%TF.GenerationSoftware,KiCad,Pcbnew,(6.0.7)*%
%TF.CreationDate,2022-09-20T14:40:13-04:00*%
%TF.ProjectId,RPi Pico Core,52506920-5069-4636-9f20-436f72652e6b,rev?*%
%TF.SameCoordinates,Original*%
%TF.FileFunction,Legend,Top*%
%TF.FilePolarity,Positive*%
%FSLAX46Y46*%
G04 Gerber Fmt 4.6, Leading zero omitted, Abs format (unit mm)*
G04 Created by KiCad (PCBNEW (6.0.7)) date 2022-09-20 14:40:13*
%MOMM*%
%LPD*%
G01*
G04 APERTURE LIST*
%ADD10C,0.100000*%
%ADD11C,0.400000*%
%ADD12C,0.150000*%
%ADD13C,0.120000*%
G04 APERTURE END LIST*
D10*
X192377714Y-121181428D02*
X192449142Y-121110000D01*
X192592000Y-121038571D01*
X192949142Y-121038571D01*
X193092000Y-121110000D01*
X193163428Y-121181428D01*
X193234857Y-121324285D01*
X193234857Y-121467142D01*
X193163428Y-121681428D01*
X192306285Y-122538571D01*
X193234857Y-122538571D01*
X194163428Y-121038571D02*
X194306285Y-121038571D01*
X194449142Y-121110000D01*
X194520571Y-121181428D01*
X194592000Y-121324285D01*
X194663428Y-121610000D01*
X194663428Y-121967142D01*
X194592000Y-122252857D01*
X194520571Y-122395714D01*
X194449142Y-122467142D01*
X194306285Y-122538571D01*
X194163428Y-122538571D01*
X194020571Y-122467142D01*
X193949142Y-122395714D01*
X193877714Y-122252857D01*
X193806285Y-121967142D01*
X193806285Y-121610000D01*
X193877714Y-121324285D01*
X193949142Y-121181428D01*
X194020571Y-121110000D01*
X194163428Y-121038571D01*
X195234857Y-122467142D02*
X195449142Y-122538571D01*
X195806285Y-122538571D01*
X195949142Y-122467142D01*
X196020571Y-122395714D01*
X196092000Y-122252857D01*
X196092000Y-122110000D01*
X196020571Y-121967142D01*
X195949142Y-121895714D01*
X195806285Y-121824285D01*
X195520571Y-121752857D01*
X195377714Y-121681428D01*
X195306285Y-121610000D01*
X195234857Y-121467142D01*
X195234857Y-121324285D01*
X195306285Y-121181428D01*
X195377714Y-121110000D01*
X195520571Y-121038571D01*
X195877714Y-121038571D01*
X196092000Y-121110000D01*
X196734857Y-121752857D02*
X197234857Y-121752857D01*
X197449142Y-122538571D02*
X196734857Y-122538571D01*
X196734857Y-121038571D01*
X197449142Y-121038571D01*
X198092000Y-122538571D02*
X198092000Y-121038571D01*
X198663428Y-121038571D01*
X198806285Y-121110000D01*
X198877714Y-121181428D01*
X198949142Y-121324285D01*
X198949142Y-121538571D01*
X198877714Y-121681428D01*
X198806285Y-121752857D01*
X198663428Y-121824285D01*
X198092000Y-121824285D01*
X199520571Y-121181428D02*
X199592000Y-121110000D01*
X199734857Y-121038571D01*
X200092000Y-121038571D01*
X200234857Y-121110000D01*
X200306285Y-121181428D01*
X200377714Y-121324285D01*
X200377714Y-121467142D01*
X200306285Y-121681428D01*
X199449142Y-122538571D01*
X200377714Y-122538571D01*
X200949142Y-121181428D02*
X201020571Y-121110000D01*
X201163428Y-121038571D01*
X201520571Y-121038571D01*
X201663428Y-121110000D01*
X201734857Y-121181428D01*
X201806285Y-121324285D01*
X201806285Y-121467142D01*
X201734857Y-121681428D01*
X200877714Y-122538571D01*
X201806285Y-122538571D01*
X136624571Y-130504000D02*
X136529333Y-130456380D01*
X136386476Y-130456380D01*
X136243619Y-130504000D01*
X136148380Y-130599238D01*
X136100761Y-130694476D01*
X136053142Y-130884952D01*
X136053142Y-131027809D01*
X136100761Y-131218285D01*
X136148380Y-131313523D01*
X136243619Y-131408761D01*
X136386476Y-131456380D01*
X136481714Y-131456380D01*
X136624571Y-131408761D01*
X136672190Y-131361142D01*
X136672190Y-131027809D01*
X136481714Y-131027809D01*
X137672190Y-131456380D02*
X137338857Y-130980190D01*
X137100761Y-131456380D02*
X137100761Y-130456380D01*
X137481714Y-130456380D01*
X137576952Y-130504000D01*
X137624571Y-130551619D01*
X137672190Y-130646857D01*
X137672190Y-130789714D01*
X137624571Y-130884952D01*
X137576952Y-130932571D01*
X137481714Y-130980190D01*
X137100761Y-130980190D01*
X138291238Y-130456380D02*
X138481714Y-130456380D01*
X138576952Y-130504000D01*
X138672190Y-130599238D01*
X138719809Y-130789714D01*
X138719809Y-131123047D01*
X138672190Y-131313523D01*
X138576952Y-131408761D01*
X138481714Y-131456380D01*
X138291238Y-131456380D01*
X138196000Y-131408761D01*
X138100761Y-131313523D01*
X138053142Y-131123047D01*
X138053142Y-130789714D01*
X138100761Y-130599238D01*
X138196000Y-130504000D01*
X138291238Y-130456380D01*
X139148380Y-130456380D02*
X139148380Y-131265904D01*
X139196000Y-131361142D01*
X139243619Y-131408761D01*
X139338857Y-131456380D01*
X139529333Y-131456380D01*
X139624571Y-131408761D01*
X139672190Y-131361142D01*
X139719809Y-131265904D01*
X139719809Y-130456380D01*
X140196000Y-131456380D02*
X140196000Y-130456380D01*
X140767428Y-131456380D01*
X140767428Y-130456380D01*
X141243619Y-131456380D02*
X141243619Y-130456380D01*
X141481714Y-130456380D01*
X141624571Y-130504000D01*
X141719809Y-130599238D01*
X141767428Y-130694476D01*
X141815047Y-130884952D01*
X141815047Y-131027809D01*
X141767428Y-131218285D01*
X141719809Y-131313523D01*
X141624571Y-131408761D01*
X141481714Y-131456380D01*
X141243619Y-131456380D01*
X142862666Y-130456380D02*
X143434095Y-130456380D01*
X143148380Y-131456380D02*
X143148380Y-130456380D01*
X143767428Y-131456380D02*
X143767428Y-130456380D01*
X144148380Y-130456380D01*
X144243619Y-130504000D01*
X144291238Y-130551619D01*
X144338857Y-130646857D01*
X144338857Y-130789714D01*
X144291238Y-130884952D01*
X144243619Y-130932571D01*
X144148380Y-130980190D01*
X143767428Y-130980190D01*
X122099047Y-131170666D02*
X122575238Y-131170666D01*
X122003809Y-131456380D02*
X122337142Y-130456380D01*
X122670476Y-131456380D01*
X122908571Y-130456380D02*
X123146666Y-131456380D01*
X123337142Y-130742095D01*
X123527619Y-131456380D01*
X123765714Y-130456380D01*
X124670476Y-130504000D02*
X124575238Y-130456380D01*
X124432380Y-130456380D01*
X124289523Y-130504000D01*
X124194285Y-130599238D01*
X124146666Y-130694476D01*
X124099047Y-130884952D01*
X124099047Y-131027809D01*
X124146666Y-131218285D01*
X124194285Y-131313523D01*
X124289523Y-131408761D01*
X124432380Y-131456380D01*
X124527619Y-131456380D01*
X124670476Y-131408761D01*
X124718095Y-131361142D01*
X124718095Y-131027809D01*
X124527619Y-131027809D01*
X126099047Y-130456380D02*
X126289523Y-130456380D01*
X126384761Y-130504000D01*
X126480000Y-130599238D01*
X126527619Y-130789714D01*
X126527619Y-131123047D01*
X126480000Y-131313523D01*
X126384761Y-131408761D01*
X126289523Y-131456380D01*
X126099047Y-131456380D01*
X126003809Y-131408761D01*
X125908571Y-131313523D01*
X125860952Y-131123047D01*
X125860952Y-130789714D01*
X125908571Y-130599238D01*
X126003809Y-130504000D01*
X126099047Y-130456380D01*
X126956190Y-130456380D02*
X126956190Y-131265904D01*
X127003809Y-131361142D01*
X127051428Y-131408761D01*
X127146666Y-131456380D01*
X127337142Y-131456380D01*
X127432380Y-131408761D01*
X127480000Y-131361142D01*
X127527619Y-131265904D01*
X127527619Y-130456380D01*
X127860952Y-130456380D02*
X128432380Y-130456380D01*
X128146666Y-131456380D02*
X128146666Y-130456380D01*
X129384761Y-130456380D02*
X129956190Y-130456380D01*
X129670476Y-131456380D02*
X129670476Y-130456380D01*
X130289523Y-131456380D02*
X130289523Y-130456380D01*
X130670476Y-130456380D01*
X130765714Y-130504000D01*
X130813333Y-130551619D01*
X130860952Y-130646857D01*
X130860952Y-130789714D01*
X130813333Y-130884952D01*
X130765714Y-130932571D01*
X130670476Y-130980190D01*
X130289523Y-130980190D01*
D11*
X143517238Y-63590857D02*
X143326761Y-63448000D01*
X143231523Y-63305142D01*
X143136285Y-63019428D01*
X143136285Y-62876571D01*
X143231523Y-62590857D01*
X143326761Y-62448000D01*
X143517238Y-62305142D01*
X143898190Y-62305142D01*
X144088666Y-62448000D01*
X144183904Y-62590857D01*
X144279142Y-62876571D01*
X144279142Y-63019428D01*
X144183904Y-63305142D01*
X144088666Y-63448000D01*
X143898190Y-63590857D01*
X143517238Y-63590857D01*
X143326761Y-63733714D01*
X143231523Y-63876571D01*
X143136285Y-64162285D01*
X143136285Y-64733714D01*
X143231523Y-65019428D01*
X143326761Y-65162285D01*
X143517238Y-65305142D01*
X143898190Y-65305142D01*
X144088666Y-65162285D01*
X144183904Y-65019428D01*
X144279142Y-64733714D01*
X144279142Y-64162285D01*
X144183904Y-63876571D01*
X144088666Y-63733714D01*
X143898190Y-63590857D01*
X148088666Y-62162285D02*
X146374380Y-66019428D01*
X151326761Y-65305142D02*
X150183904Y-65305142D01*
X150755333Y-65305142D02*
X150755333Y-62305142D01*
X150564857Y-62733714D01*
X150374380Y-63019428D01*
X150183904Y-63162285D01*
X152564857Y-62305142D02*
X152755333Y-62305142D01*
X152945809Y-62448000D01*
X153041047Y-62590857D01*
X153136285Y-62876571D01*
X153231523Y-63448000D01*
X153231523Y-64162285D01*
X153136285Y-64733714D01*
X153041047Y-65019428D01*
X152945809Y-65162285D01*
X152755333Y-65305142D01*
X152564857Y-65305142D01*
X152374380Y-65162285D01*
X152279142Y-65019428D01*
X152183904Y-64733714D01*
X152088666Y-64162285D01*
X152088666Y-63448000D01*
X152183904Y-62876571D01*
X152279142Y-62590857D01*
X152374380Y-62448000D01*
X152564857Y-62305142D01*
X155612476Y-65305142D02*
X155612476Y-62305142D01*
X155612476Y-63448000D02*
X155802952Y-63305142D01*
X156183904Y-63305142D01*
X156374380Y-63448000D01*
X156469619Y-63590857D01*
X156564857Y-63876571D01*
X156564857Y-64733714D01*
X156469619Y-65019428D01*
X156374380Y-65162285D01*
X156183904Y-65305142D01*
X155802952Y-65305142D01*
X155612476Y-65162285D01*
X157421999Y-65305142D02*
X157421999Y-63305142D01*
X157421999Y-62305142D02*
X157326761Y-62448000D01*
X157421999Y-62590857D01*
X157517238Y-62448000D01*
X157421999Y-62305142D01*
X157421999Y-62590857D01*
X158088666Y-63305142D02*
X158850571Y-63305142D01*
X158374380Y-62305142D02*
X158374380Y-64876571D01*
X158469619Y-65162285D01*
X158660095Y-65305142D01*
X158850571Y-65305142D01*
X160945809Y-64448000D02*
X161898190Y-64448000D01*
X160755333Y-65305142D02*
X161421999Y-62305142D01*
X162088666Y-65305142D01*
X162755333Y-65305142D02*
X162755333Y-63305142D01*
X162755333Y-63876571D02*
X162850571Y-63590857D01*
X162945809Y-63448000D01*
X163136285Y-63305142D01*
X163326761Y-63305142D01*
X163993428Y-65305142D02*
X163993428Y-62305142D01*
X163993428Y-63448000D02*
X164183904Y-63305142D01*
X164564857Y-63305142D01*
X164755333Y-63448000D01*
X164850571Y-63590857D01*
X164945809Y-63876571D01*
X164945809Y-64733714D01*
X164850571Y-65019428D01*
X164755333Y-65162285D01*
X164564857Y-65305142D01*
X164183904Y-65305142D01*
X163993428Y-65162285D01*
X165802952Y-65305142D02*
X165802952Y-63305142D01*
X165802952Y-62305142D02*
X165707714Y-62448000D01*
X165802952Y-62590857D01*
X165898190Y-62448000D01*
X165802952Y-62305142D01*
X165802952Y-62590857D01*
X166469619Y-63305142D02*
X167231523Y-63305142D01*
X166755333Y-62305142D02*
X166755333Y-64876571D01*
X166850571Y-65162285D01*
X167041047Y-65305142D01*
X167231523Y-65305142D01*
X167898190Y-65305142D02*
X167898190Y-63305142D01*
X167898190Y-63876571D02*
X167993428Y-63590857D01*
X168088666Y-63448000D01*
X168279142Y-63305142D01*
X168469619Y-63305142D01*
X169993428Y-65305142D02*
X169993428Y-63733714D01*
X169898190Y-63448000D01*
X169707714Y-63305142D01*
X169326761Y-63305142D01*
X169136285Y-63448000D01*
X169993428Y-65162285D02*
X169802952Y-65305142D01*
X169326761Y-65305142D01*
X169136285Y-65162285D01*
X169041047Y-64876571D01*
X169041047Y-64590857D01*
X169136285Y-64305142D01*
X169326761Y-64162285D01*
X169802952Y-64162285D01*
X169993428Y-64019428D01*
X170945809Y-65305142D02*
X170945809Y-63305142D01*
X170945809Y-63876571D02*
X171041047Y-63590857D01*
X171136285Y-63448000D01*
X171326761Y-63305142D01*
X171517238Y-63305142D01*
X171993428Y-63305142D02*
X172469619Y-65305142D01*
X172945809Y-63305142D02*
X172469619Y-65305142D01*
X172279142Y-66019428D01*
X172183904Y-66162285D01*
X171993428Y-66305142D01*
X175041047Y-62305142D02*
X175517238Y-65305142D01*
X175898190Y-63162285D01*
X176279142Y-65305142D01*
X176755333Y-62305142D01*
X178374380Y-65305142D02*
X178374380Y-63733714D01*
X178279142Y-63448000D01*
X178088666Y-63305142D01*
X177707714Y-63305142D01*
X177517238Y-63448000D01*
X178374380Y-65162285D02*
X178183904Y-65305142D01*
X177707714Y-65305142D01*
X177517238Y-65162285D01*
X177421999Y-64876571D01*
X177421999Y-64590857D01*
X177517238Y-64305142D01*
X177707714Y-64162285D01*
X178183904Y-64162285D01*
X178374380Y-64019428D01*
X179136285Y-63305142D02*
X179612476Y-65305142D01*
X180088666Y-63305142D01*
X181612476Y-65162285D02*
X181421999Y-65305142D01*
X181041047Y-65305142D01*
X180850571Y-65162285D01*
X180755333Y-64876571D01*
X180755333Y-63733714D01*
X180850571Y-63448000D01*
X181041047Y-63305142D01*
X181421999Y-63305142D01*
X181612476Y-63448000D01*
X181707714Y-63733714D01*
X181707714Y-64019428D01*
X180755333Y-64305142D01*
X185136285Y-62448000D02*
X184945809Y-62305142D01*
X184660095Y-62305142D01*
X184374380Y-62448000D01*
X184183904Y-62733714D01*
X184088666Y-63019428D01*
X183993428Y-63590857D01*
X183993428Y-64019428D01*
X184088666Y-64590857D01*
X184183904Y-64876571D01*
X184374380Y-65162285D01*
X184660095Y-65305142D01*
X184850571Y-65305142D01*
X185136285Y-65162285D01*
X185231523Y-65019428D01*
X185231523Y-64019428D01*
X184850571Y-64019428D01*
X186850571Y-65162285D02*
X186660095Y-65305142D01*
X186279142Y-65305142D01*
X186088666Y-65162285D01*
X185993428Y-64876571D01*
X185993428Y-63733714D01*
X186088666Y-63448000D01*
X186279142Y-63305142D01*
X186660095Y-63305142D01*
X186850571Y-63448000D01*
X186945809Y-63733714D01*
X186945809Y-64019428D01*
X185993428Y-64305142D01*
X187802952Y-63305142D02*
X187802952Y-65305142D01*
X187802952Y-63590857D02*
X187898190Y-63448000D01*
X188088666Y-63305142D01*
X188374380Y-63305142D01*
X188564857Y-63448000D01*
X188660095Y-63733714D01*
X188660095Y-65305142D01*
X190374380Y-65162285D02*
X190183904Y-65305142D01*
X189802952Y-65305142D01*
X189612476Y-65162285D01*
X189517238Y-64876571D01*
X189517238Y-63733714D01*
X189612476Y-63448000D01*
X189802952Y-63305142D01*
X190183904Y-63305142D01*
X190374380Y-63448000D01*
X190469619Y-63733714D01*
X190469619Y-64019428D01*
X189517238Y-64305142D01*
X191326761Y-65305142D02*
X191326761Y-63305142D01*
X191326761Y-63876571D02*
X191421999Y-63590857D01*
X191517238Y-63448000D01*
X191707714Y-63305142D01*
X191898190Y-63305142D01*
X193421999Y-65305142D02*
X193421999Y-63733714D01*
X193326761Y-63448000D01*
X193136285Y-63305142D01*
X192755333Y-63305142D01*
X192564857Y-63448000D01*
X193421999Y-65162285D02*
X193231523Y-65305142D01*
X192755333Y-65305142D01*
X192564857Y-65162285D01*
X192469619Y-64876571D01*
X192469619Y-64590857D01*
X192564857Y-64305142D01*
X192755333Y-64162285D01*
X193231523Y-64162285D01*
X193421999Y-64019428D01*
X194088666Y-63305142D02*
X194850571Y-63305142D01*
X194374380Y-62305142D02*
X194374380Y-64876571D01*
X194469619Y-65162285D01*
X194660095Y-65305142D01*
X194850571Y-65305142D01*
X195802952Y-65305142D02*
X195612476Y-65162285D01*
X195517238Y-65019428D01*
X195421999Y-64733714D01*
X195421999Y-63876571D01*
X195517238Y-63590857D01*
X195612476Y-63448000D01*
X195802952Y-63305142D01*
X196088666Y-63305142D01*
X196279142Y-63448000D01*
X196374380Y-63590857D01*
X196469619Y-63876571D01*
X196469619Y-64733714D01*
X196374380Y-65019428D01*
X196279142Y-65162285D01*
X196088666Y-65305142D01*
X195802952Y-65305142D01*
X197326761Y-65305142D02*
X197326761Y-63305142D01*
X197326761Y-63876571D02*
X197421999Y-63590857D01*
X197517238Y-63448000D01*
X197707714Y-63305142D01*
X197898190Y-63305142D01*
D12*
X116066571Y-66865666D02*
X116542761Y-66865666D01*
X115971333Y-67151380D02*
X116304666Y-66151380D01*
X116638000Y-67151380D01*
X117114190Y-67151380D02*
X117018952Y-67103761D01*
X116971333Y-67008523D01*
X116971333Y-66151380D01*
X117638000Y-67151380D02*
X117542761Y-67103761D01*
X117495142Y-67008523D01*
X117495142Y-66151380D01*
X119352285Y-67151380D02*
X119018952Y-66675190D01*
X118780857Y-67151380D02*
X118780857Y-66151380D01*
X119161809Y-66151380D01*
X119257047Y-66199000D01*
X119304666Y-66246619D01*
X119352285Y-66341857D01*
X119352285Y-66484714D01*
X119304666Y-66579952D01*
X119257047Y-66627571D01*
X119161809Y-66675190D01*
X118780857Y-66675190D01*
X120161809Y-67103761D02*
X120066571Y-67151380D01*
X119876095Y-67151380D01*
X119780857Y-67103761D01*
X119733238Y-67008523D01*
X119733238Y-66627571D01*
X119780857Y-66532333D01*
X119876095Y-66484714D01*
X120066571Y-66484714D01*
X120161809Y-66532333D01*
X120209428Y-66627571D01*
X120209428Y-66722809D01*
X119733238Y-66818047D01*
X120590380Y-67103761D02*
X120685619Y-67151380D01*
X120876095Y-67151380D01*
X120971333Y-67103761D01*
X121018952Y-67008523D01*
X121018952Y-66960904D01*
X120971333Y-66865666D01*
X120876095Y-66818047D01*
X120733238Y-66818047D01*
X120638000Y-66770428D01*
X120590380Y-66675190D01*
X120590380Y-66627571D01*
X120638000Y-66532333D01*
X120733238Y-66484714D01*
X120876095Y-66484714D01*
X120971333Y-66532333D01*
X121447523Y-67151380D02*
X121447523Y-66484714D01*
X121447523Y-66151380D02*
X121399904Y-66199000D01*
X121447523Y-66246619D01*
X121495142Y-66199000D01*
X121447523Y-66151380D01*
X121447523Y-66246619D01*
X121876095Y-67103761D02*
X121971333Y-67151380D01*
X122161809Y-67151380D01*
X122257047Y-67103761D01*
X122304666Y-67008523D01*
X122304666Y-66960904D01*
X122257047Y-66865666D01*
X122161809Y-66818047D01*
X122018952Y-66818047D01*
X121923714Y-66770428D01*
X121876095Y-66675190D01*
X121876095Y-66627571D01*
X121923714Y-66532333D01*
X122018952Y-66484714D01*
X122161809Y-66484714D01*
X122257047Y-66532333D01*
X122590380Y-66484714D02*
X122971333Y-66484714D01*
X122733238Y-66151380D02*
X122733238Y-67008523D01*
X122780857Y-67103761D01*
X122876095Y-67151380D01*
X122971333Y-67151380D01*
X123447523Y-67151380D02*
X123352285Y-67103761D01*
X123304666Y-67056142D01*
X123257047Y-66960904D01*
X123257047Y-66675190D01*
X123304666Y-66579952D01*
X123352285Y-66532333D01*
X123447523Y-66484714D01*
X123590380Y-66484714D01*
X123685619Y-66532333D01*
X123733238Y-66579952D01*
X123780857Y-66675190D01*
X123780857Y-66960904D01*
X123733238Y-67056142D01*
X123685619Y-67103761D01*
X123590380Y-67151380D01*
X123447523Y-67151380D01*
X124209428Y-67151380D02*
X124209428Y-66484714D01*
X124209428Y-66675190D02*
X124257047Y-66579952D01*
X124304666Y-66532333D01*
X124399904Y-66484714D01*
X124495142Y-66484714D01*
X124780857Y-67103761D02*
X124876095Y-67151380D01*
X125066571Y-67151380D01*
X125161809Y-67103761D01*
X125209428Y-67008523D01*
X125209428Y-66960904D01*
X125161809Y-66865666D01*
X125066571Y-66818047D01*
X124923714Y-66818047D01*
X124828476Y-66770428D01*
X124780857Y-66675190D01*
X124780857Y-66627571D01*
X124828476Y-66532333D01*
X124923714Y-66484714D01*
X125066571Y-66484714D01*
X125161809Y-66532333D01*
X116090380Y-67856619D02*
X116138000Y-67809000D01*
X116233238Y-67761380D01*
X116471333Y-67761380D01*
X116566571Y-67809000D01*
X116614190Y-67856619D01*
X116661809Y-67951857D01*
X116661809Y-68047095D01*
X116614190Y-68189952D01*
X116042761Y-68761380D01*
X116661809Y-68761380D01*
X117090380Y-68761380D02*
X117090380Y-67761380D01*
X117185619Y-68380428D02*
X117471333Y-68761380D01*
X117471333Y-68094714D02*
X117090380Y-68475666D01*
X119185619Y-68761380D02*
X118614190Y-68761380D01*
X118899904Y-68761380D02*
X118899904Y-67761380D01*
X118804666Y-67904238D01*
X118709428Y-67999476D01*
X118614190Y-68047095D01*
X120328476Y-67713761D02*
X119471333Y-68999476D01*
X121090380Y-68094714D02*
X121090380Y-68761380D01*
X120852285Y-67713761D02*
X120614190Y-68428047D01*
X121233238Y-68428047D01*
X121518952Y-67761380D02*
X121757047Y-68761380D01*
X121947523Y-68047095D01*
X122138000Y-68761380D01*
X122376095Y-67761380D01*
X124042761Y-68761380D02*
X123471333Y-68761380D01*
X123757047Y-68761380D02*
X123757047Y-67761380D01*
X123661809Y-67904238D01*
X123566571Y-67999476D01*
X123471333Y-68047095D01*
X124423714Y-68761380D02*
X125185619Y-67761380D01*
X124566571Y-67761380D02*
X124661809Y-67809000D01*
X124709428Y-67904238D01*
X124661809Y-67999476D01*
X124566571Y-68047095D01*
X124471333Y-67999476D01*
X124423714Y-67904238D01*
X124471333Y-67809000D01*
X124566571Y-67761380D01*
X125138000Y-68713761D02*
X125185619Y-68618523D01*
X125138000Y-68523285D01*
X125042761Y-68475666D01*
X124947523Y-68523285D01*
X124899904Y-68618523D01*
X124947523Y-68713761D01*
X125042761Y-68761380D01*
X125138000Y-68713761D01*
X107668857Y-124788952D02*
X107573619Y-124741333D01*
X107526000Y-124693714D01*
X107478380Y-124598476D01*
X107478380Y-124550857D01*
X107526000Y-124455619D01*
X107573619Y-124408000D01*
X107668857Y-124360380D01*
X107859333Y-124360380D01*
X107954571Y-124408000D01*
X108002190Y-124455619D01*
X108049809Y-124550857D01*
X108049809Y-124598476D01*
X108002190Y-124693714D01*
X107954571Y-124741333D01*
X107859333Y-124788952D01*
X107668857Y-124788952D01*
X107573619Y-124836571D01*
X107526000Y-124884190D01*
X107478380Y-124979428D01*
X107478380Y-125169904D01*
X107526000Y-125265142D01*
X107573619Y-125312761D01*
X107668857Y-125360380D01*
X107859333Y-125360380D01*
X107954571Y-125312761D01*
X108002190Y-125265142D01*
X108049809Y-125169904D01*
X108049809Y-124979428D01*
X108002190Y-124884190D01*
X107954571Y-124836571D01*
X107859333Y-124788952D01*
X109192666Y-124312761D02*
X108335523Y-125598476D01*
X110049809Y-125360380D02*
X109478380Y-125360380D01*
X109764095Y-125360380D02*
X109764095Y-124360380D01*
X109668857Y-124503238D01*
X109573619Y-124598476D01*
X109478380Y-124646095D01*
X110668857Y-124360380D02*
X110764095Y-124360380D01*
X110859333Y-124408000D01*
X110906952Y-124455619D01*
X110954571Y-124550857D01*
X111002190Y-124741333D01*
X111002190Y-124979428D01*
X110954571Y-125169904D01*
X110906952Y-125265142D01*
X110859333Y-125312761D01*
X110764095Y-125360380D01*
X110668857Y-125360380D01*
X110573619Y-125312761D01*
X110526000Y-125265142D01*
X110478380Y-125169904D01*
X110430761Y-124979428D01*
X110430761Y-124741333D01*
X110478380Y-124550857D01*
X110526000Y-124455619D01*
X110573619Y-124408000D01*
X110668857Y-124360380D01*
X112192666Y-125360380D02*
X112192666Y-124360380D01*
X112192666Y-124741333D02*
X112287904Y-124693714D01*
X112478380Y-124693714D01*
X112573619Y-124741333D01*
X112621238Y-124788952D01*
X112668857Y-124884190D01*
X112668857Y-125169904D01*
X112621238Y-125265142D01*
X112573619Y-125312761D01*
X112478380Y-125360380D01*
X112287904Y-125360380D01*
X112192666Y-125312761D01*
X113097428Y-125360380D02*
X113097428Y-124693714D01*
X113097428Y-124360380D02*
X113049809Y-124408000D01*
X113097428Y-124455619D01*
X113145047Y-124408000D01*
X113097428Y-124360380D01*
X113097428Y-124455619D01*
X113430761Y-124693714D02*
X113811714Y-124693714D01*
X113573619Y-124360380D02*
X113573619Y-125217523D01*
X113621238Y-125312761D01*
X113716476Y-125360380D01*
X113811714Y-125360380D01*
X114906952Y-124693714D02*
X114906952Y-125550857D01*
X114859333Y-125646095D01*
X114764095Y-125693714D01*
X114716476Y-125693714D01*
X114906952Y-124360380D02*
X114859333Y-124408000D01*
X114906952Y-124455619D01*
X114954571Y-124408000D01*
X114906952Y-124360380D01*
X114906952Y-124455619D01*
X115811714Y-124693714D02*
X115811714Y-125360380D01*
X115383142Y-124693714D02*
X115383142Y-125217523D01*
X115430761Y-125312761D01*
X115526000Y-125360380D01*
X115668857Y-125360380D01*
X115764095Y-125312761D01*
X115811714Y-125265142D01*
X116287904Y-125360380D02*
X116287904Y-124693714D01*
X116287904Y-124788952D02*
X116335523Y-124741333D01*
X116430761Y-124693714D01*
X116573619Y-124693714D01*
X116668857Y-124741333D01*
X116716476Y-124836571D01*
X116716476Y-125360380D01*
X116716476Y-124836571D02*
X116764095Y-124741333D01*
X116859333Y-124693714D01*
X117002190Y-124693714D01*
X117097428Y-124741333D01*
X117145047Y-124836571D01*
X117145047Y-125360380D01*
X117621238Y-124693714D02*
X117621238Y-125693714D01*
X117621238Y-124741333D02*
X117716476Y-124693714D01*
X117906952Y-124693714D01*
X118002190Y-124741333D01*
X118049809Y-124788952D01*
X118097428Y-124884190D01*
X118097428Y-125169904D01*
X118049809Y-125265142D01*
X118002190Y-125312761D01*
X117906952Y-125360380D01*
X117716476Y-125360380D01*
X117621238Y-125312761D01*
X118906952Y-125312761D02*
X118811714Y-125360380D01*
X118621238Y-125360380D01*
X118526000Y-125312761D01*
X118478380Y-125217523D01*
X118478380Y-124836571D01*
X118526000Y-124741333D01*
X118621238Y-124693714D01*
X118811714Y-124693714D01*
X118906952Y-124741333D01*
X118954571Y-124836571D01*
X118954571Y-124931809D01*
X118478380Y-125027047D01*
X119383142Y-125360380D02*
X119383142Y-124693714D01*
X119383142Y-124884190D02*
X119430761Y-124788952D01*
X119478380Y-124741333D01*
X119573619Y-124693714D01*
X119668857Y-124693714D01*
X156040000Y-69480380D02*
X155706666Y-69004190D01*
X155468571Y-69480380D02*
X155468571Y-68480380D01*
X155849523Y-68480380D01*
X155944761Y-68528000D01*
X155992380Y-68575619D01*
X156040000Y-68670857D01*
X156040000Y-68813714D01*
X155992380Y-68908952D01*
X155944761Y-68956571D01*
X155849523Y-69004190D01*
X155468571Y-69004190D01*
X156897142Y-69480380D02*
X156897142Y-68956571D01*
X156849523Y-68861333D01*
X156754285Y-68813714D01*
X156563809Y-68813714D01*
X156468571Y-68861333D01*
X156897142Y-69432761D02*
X156801904Y-69480380D01*
X156563809Y-69480380D01*
X156468571Y-69432761D01*
X156420952Y-69337523D01*
X156420952Y-69242285D01*
X156468571Y-69147047D01*
X156563809Y-69099428D01*
X156801904Y-69099428D01*
X156897142Y-69051809D01*
X157325714Y-69432761D02*
X157420952Y-69480380D01*
X157611428Y-69480380D01*
X157706666Y-69432761D01*
X157754285Y-69337523D01*
X157754285Y-69289904D01*
X157706666Y-69194666D01*
X157611428Y-69147047D01*
X157468571Y-69147047D01*
X157373333Y-69099428D01*
X157325714Y-69004190D01*
X157325714Y-68956571D01*
X157373333Y-68861333D01*
X157468571Y-68813714D01*
X157611428Y-68813714D01*
X157706666Y-68861333D01*
X158182857Y-68813714D02*
X158182857Y-69813714D01*
X158182857Y-68861333D02*
X158278095Y-68813714D01*
X158468571Y-68813714D01*
X158563809Y-68861333D01*
X158611428Y-68908952D01*
X158659047Y-69004190D01*
X158659047Y-69289904D01*
X158611428Y-69385142D01*
X158563809Y-69432761D01*
X158468571Y-69480380D01*
X158278095Y-69480380D01*
X158182857Y-69432761D01*
X159087619Y-69480380D02*
X159087619Y-68480380D01*
X159087619Y-68861333D02*
X159182857Y-68813714D01*
X159373333Y-68813714D01*
X159468571Y-68861333D01*
X159516190Y-68908952D01*
X159563809Y-69004190D01*
X159563809Y-69289904D01*
X159516190Y-69385142D01*
X159468571Y-69432761D01*
X159373333Y-69480380D01*
X159182857Y-69480380D01*
X159087619Y-69432761D01*
X160373333Y-69432761D02*
X160278095Y-69480380D01*
X160087619Y-69480380D01*
X159992380Y-69432761D01*
X159944761Y-69337523D01*
X159944761Y-68956571D01*
X159992380Y-68861333D01*
X160087619Y-68813714D01*
X160278095Y-68813714D01*
X160373333Y-68861333D01*
X160420952Y-68956571D01*
X160420952Y-69051809D01*
X159944761Y-69147047D01*
X160849523Y-69480380D02*
X160849523Y-68813714D01*
X160849523Y-69004190D02*
X160897142Y-68908952D01*
X160944761Y-68861333D01*
X161040000Y-68813714D01*
X161135238Y-68813714D01*
X161468571Y-69480380D02*
X161468571Y-68813714D01*
X161468571Y-69004190D02*
X161516190Y-68908952D01*
X161563809Y-68861333D01*
X161659047Y-68813714D01*
X161754285Y-68813714D01*
X161992380Y-68813714D02*
X162230476Y-69480380D01*
X162468571Y-68813714D02*
X162230476Y-69480380D01*
X162135238Y-69718476D01*
X162087619Y-69766095D01*
X161992380Y-69813714D01*
X163611428Y-69480380D02*
X163611428Y-68480380D01*
X163992380Y-68480380D01*
X164087619Y-68528000D01*
X164135238Y-68575619D01*
X164182857Y-68670857D01*
X164182857Y-68813714D01*
X164135238Y-68908952D01*
X164087619Y-68956571D01*
X163992380Y-69004190D01*
X163611428Y-69004190D01*
X164611428Y-69480380D02*
X164611428Y-68813714D01*
X164611428Y-68480380D02*
X164563809Y-68528000D01*
X164611428Y-68575619D01*
X164659047Y-68528000D01*
X164611428Y-68480380D01*
X164611428Y-68575619D01*
X165849523Y-69480380D02*
X165849523Y-68480380D01*
X166230476Y-68480380D01*
X166325714Y-68528000D01*
X166373333Y-68575619D01*
X166420952Y-68670857D01*
X166420952Y-68813714D01*
X166373333Y-68908952D01*
X166325714Y-68956571D01*
X166230476Y-69004190D01*
X165849523Y-69004190D01*
X166849523Y-69480380D02*
X166849523Y-68813714D01*
X166849523Y-68480380D02*
X166801904Y-68528000D01*
X166849523Y-68575619D01*
X166897142Y-68528000D01*
X166849523Y-68480380D01*
X166849523Y-68575619D01*
X167754285Y-69432761D02*
X167659047Y-69480380D01*
X167468571Y-69480380D01*
X167373333Y-69432761D01*
X167325714Y-69385142D01*
X167278095Y-69289904D01*
X167278095Y-69004190D01*
X167325714Y-68908952D01*
X167373333Y-68861333D01*
X167468571Y-68813714D01*
X167659047Y-68813714D01*
X167754285Y-68861333D01*
X168325714Y-69480380D02*
X168230476Y-69432761D01*
X168182857Y-69385142D01*
X168135238Y-69289904D01*
X168135238Y-69004190D01*
X168182857Y-68908952D01*
X168230476Y-68861333D01*
X168325714Y-68813714D01*
X168468571Y-68813714D01*
X168563809Y-68861333D01*
X168611428Y-68908952D01*
X168659047Y-69004190D01*
X168659047Y-69289904D01*
X168611428Y-69385142D01*
X168563809Y-69432761D01*
X168468571Y-69480380D01*
X168325714Y-69480380D01*
X190051619Y-72782380D02*
X189718285Y-72306190D01*
X189480190Y-72782380D02*
X189480190Y-71782380D01*
X189861142Y-71782380D01*
X189956380Y-71830000D01*
X190004000Y-71877619D01*
X190051619Y-71972857D01*
X190051619Y-72115714D01*
X190004000Y-72210952D01*
X189956380Y-72258571D01*
X189861142Y-72306190D01*
X189480190Y-72306190D01*
X190480190Y-72258571D02*
X190813523Y-72258571D01*
X190956380Y-72782380D02*
X190480190Y-72782380D01*
X190480190Y-71782380D01*
X190956380Y-71782380D01*
X191337333Y-72734761D02*
X191480190Y-72782380D01*
X191718285Y-72782380D01*
X191813523Y-72734761D01*
X191861142Y-72687142D01*
X191908761Y-72591904D01*
X191908761Y-72496666D01*
X191861142Y-72401428D01*
X191813523Y-72353809D01*
X191718285Y-72306190D01*
X191527809Y-72258571D01*
X191432571Y-72210952D01*
X191384952Y-72163333D01*
X191337333Y-72068095D01*
X191337333Y-71972857D01*
X191384952Y-71877619D01*
X191432571Y-71830000D01*
X191527809Y-71782380D01*
X191765904Y-71782380D01*
X191908761Y-71830000D01*
X192337333Y-72258571D02*
X192670666Y-72258571D01*
X192813523Y-72782380D02*
X192337333Y-72782380D01*
X192337333Y-71782380D01*
X192813523Y-71782380D01*
X193099238Y-71782380D02*
X193670666Y-71782380D01*
X193384952Y-72782380D02*
X193384952Y-71782380D01*
X180185714Y-96059761D02*
X180328571Y-96107380D01*
X180566666Y-96107380D01*
X180661904Y-96059761D01*
X180709523Y-96012142D01*
X180757142Y-95916904D01*
X180757142Y-95821666D01*
X180709523Y-95726428D01*
X180661904Y-95678809D01*
X180566666Y-95631190D01*
X180376190Y-95583571D01*
X180280952Y-95535952D01*
X180233333Y-95488333D01*
X180185714Y-95393095D01*
X180185714Y-95297857D01*
X180233333Y-95202619D01*
X180280952Y-95155000D01*
X180376190Y-95107380D01*
X180614285Y-95107380D01*
X180757142Y-95155000D01*
X181185714Y-96107380D02*
X181185714Y-95107380D01*
X181566666Y-95107380D01*
X181661904Y-95155000D01*
X181709523Y-95202619D01*
X181757142Y-95297857D01*
X181757142Y-95440714D01*
X181709523Y-95535952D01*
X181661904Y-95583571D01*
X181566666Y-95631190D01*
X181185714Y-95631190D01*
X182185714Y-96107380D02*
X182185714Y-95107380D01*
X183423809Y-96107380D02*
X183423809Y-95107380D01*
X183900000Y-95440714D02*
X183900000Y-96107380D01*
X183900000Y-95535952D02*
X183947619Y-95488333D01*
X184042857Y-95440714D01*
X184185714Y-95440714D01*
X184280952Y-95488333D01*
X184328571Y-95583571D01*
X184328571Y-96107380D01*
X184661904Y-95440714D02*
X185042857Y-95440714D01*
X184804761Y-95107380D02*
X184804761Y-95964523D01*
X184852380Y-96059761D01*
X184947619Y-96107380D01*
X185042857Y-96107380D01*
X185757142Y-96059761D02*
X185661904Y-96107380D01*
X185471428Y-96107380D01*
X185376190Y-96059761D01*
X185328571Y-95964523D01*
X185328571Y-95583571D01*
X185376190Y-95488333D01*
X185471428Y-95440714D01*
X185661904Y-95440714D01*
X185757142Y-95488333D01*
X185804761Y-95583571D01*
X185804761Y-95678809D01*
X185328571Y-95774047D01*
X186233333Y-96107380D02*
X186233333Y-95440714D01*
X186233333Y-95631190D02*
X186280952Y-95535952D01*
X186328571Y-95488333D01*
X186423809Y-95440714D01*
X186519047Y-95440714D01*
X186709523Y-95440714D02*
X187090476Y-95440714D01*
X186852380Y-96107380D02*
X186852380Y-95250238D01*
X186900000Y-95155000D01*
X186995238Y-95107380D01*
X187090476Y-95107380D01*
X187852380Y-96107380D02*
X187852380Y-95583571D01*
X187804761Y-95488333D01*
X187709523Y-95440714D01*
X187519047Y-95440714D01*
X187423809Y-95488333D01*
X187852380Y-96059761D02*
X187757142Y-96107380D01*
X187519047Y-96107380D01*
X187423809Y-96059761D01*
X187376190Y-95964523D01*
X187376190Y-95869285D01*
X187423809Y-95774047D01*
X187519047Y-95726428D01*
X187757142Y-95726428D01*
X187852380Y-95678809D01*
X188757142Y-96059761D02*
X188661904Y-96107380D01*
X188471428Y-96107380D01*
X188376190Y-96059761D01*
X188328571Y-96012142D01*
X188280952Y-95916904D01*
X188280952Y-95631190D01*
X188328571Y-95535952D01*
X188376190Y-95488333D01*
X188471428Y-95440714D01*
X188661904Y-95440714D01*
X188757142Y-95488333D01*
X189566666Y-96059761D02*
X189471428Y-96107380D01*
X189280952Y-96107380D01*
X189185714Y-96059761D01*
X189138095Y-95964523D01*
X189138095Y-95583571D01*
X189185714Y-95488333D01*
X189280952Y-95440714D01*
X189471428Y-95440714D01*
X189566666Y-95488333D01*
X189614285Y-95583571D01*
X189614285Y-95678809D01*
X189138095Y-95774047D01*
X181185714Y-97050714D02*
X181566666Y-97050714D01*
X181328571Y-96717380D02*
X181328571Y-97574523D01*
X181376190Y-97669761D01*
X181471428Y-97717380D01*
X181566666Y-97717380D01*
X182042857Y-97717380D02*
X181947619Y-97669761D01*
X181900000Y-97622142D01*
X181852380Y-97526904D01*
X181852380Y-97241190D01*
X181900000Y-97145952D01*
X181947619Y-97098333D01*
X182042857Y-97050714D01*
X182185714Y-97050714D01*
X182280952Y-97098333D01*
X182328571Y-97145952D01*
X182376190Y-97241190D01*
X182376190Y-97526904D01*
X182328571Y-97622142D01*
X182280952Y-97669761D01*
X182185714Y-97717380D01*
X182042857Y-97717380D01*
X183566666Y-97717380D02*
X183566666Y-96717380D01*
X183804761Y-96717380D01*
X183947619Y-96765000D01*
X184042857Y-96860238D01*
X184090476Y-96955476D01*
X184138095Y-97145952D01*
X184138095Y-97288809D01*
X184090476Y-97479285D01*
X184042857Y-97574523D01*
X183947619Y-97669761D01*
X183804761Y-97717380D01*
X183566666Y-97717380D01*
X184566666Y-97717380D02*
X184566666Y-97050714D01*
X184566666Y-96717380D02*
X184519047Y-96765000D01*
X184566666Y-96812619D01*
X184614285Y-96765000D01*
X184566666Y-96717380D01*
X184566666Y-96812619D01*
X184995238Y-97669761D02*
X185090476Y-97717380D01*
X185280952Y-97717380D01*
X185376190Y-97669761D01*
X185423809Y-97574523D01*
X185423809Y-97526904D01*
X185376190Y-97431666D01*
X185280952Y-97384047D01*
X185138095Y-97384047D01*
X185042857Y-97336428D01*
X184995238Y-97241190D01*
X184995238Y-97193571D01*
X185042857Y-97098333D01*
X185138095Y-97050714D01*
X185280952Y-97050714D01*
X185376190Y-97098333D01*
X185852380Y-97050714D02*
X185852380Y-98050714D01*
X185852380Y-97098333D02*
X185947619Y-97050714D01*
X186138095Y-97050714D01*
X186233333Y-97098333D01*
X186280952Y-97145952D01*
X186328571Y-97241190D01*
X186328571Y-97526904D01*
X186280952Y-97622142D01*
X186233333Y-97669761D01*
X186138095Y-97717380D01*
X185947619Y-97717380D01*
X185852380Y-97669761D01*
X186900000Y-97717380D02*
X186804761Y-97669761D01*
X186757142Y-97574523D01*
X186757142Y-96717380D01*
X187709523Y-97717380D02*
X187709523Y-97193571D01*
X187661904Y-97098333D01*
X187566666Y-97050714D01*
X187376190Y-97050714D01*
X187280952Y-97098333D01*
X187709523Y-97669761D02*
X187614285Y-97717380D01*
X187376190Y-97717380D01*
X187280952Y-97669761D01*
X187233333Y-97574523D01*
X187233333Y-97479285D01*
X187280952Y-97384047D01*
X187376190Y-97336428D01*
X187614285Y-97336428D01*
X187709523Y-97288809D01*
X188090476Y-97050714D02*
X188328571Y-97717380D01*
X188566666Y-97050714D02*
X188328571Y-97717380D01*
X188233333Y-97955476D01*
X188185714Y-98003095D01*
X188090476Y-98050714D01*
%TO.C,U1*%
X157795176Y-96262380D02*
X157795176Y-97071904D01*
X157842795Y-97167142D01*
X157890414Y-97214761D01*
X157985652Y-97262380D01*
X158176128Y-97262380D01*
X158271366Y-97214761D01*
X158318985Y-97167142D01*
X158366604Y-97071904D01*
X158366604Y-96262380D01*
X159366604Y-97262380D02*
X158795176Y-97262380D01*
X159080890Y-97262380D02*
X159080890Y-96262380D01*
X158985652Y-96405238D01*
X158890414Y-96500476D01*
X158795176Y-96548095D01*
X144400803Y-108630592D02*
X144319991Y-108657529D01*
X144239178Y-108738341D01*
X144185304Y-108846091D01*
X144185304Y-108953841D01*
X144212241Y-109034653D01*
X144293053Y-109169340D01*
X144373865Y-109250152D01*
X144508552Y-109330964D01*
X144589365Y-109357902D01*
X144697114Y-109357902D01*
X144804864Y-109304027D01*
X144858739Y-109250152D01*
X144912613Y-109142402D01*
X144912613Y-109088528D01*
X144724052Y-108899966D01*
X144616302Y-109007715D01*
X145208925Y-108899966D02*
X144643239Y-108334280D01*
X144858739Y-108118781D01*
X144939551Y-108091844D01*
X144993426Y-108091844D01*
X145074238Y-108118781D01*
X145155050Y-108199593D01*
X145181987Y-108280406D01*
X145181987Y-108334280D01*
X145155050Y-108415093D01*
X144939551Y-108630592D01*
X146070922Y-108037969D02*
X145747673Y-108361218D01*
X145909297Y-108199593D02*
X145343612Y-107633908D01*
X145370549Y-107768595D01*
X145370549Y-107876345D01*
X145343612Y-107957157D01*
X146609670Y-107499221D02*
X146286421Y-107822470D01*
X146448045Y-107660845D02*
X145882360Y-107095160D01*
X145909297Y-107229847D01*
X145909297Y-107337597D01*
X145882360Y-107418409D01*
X171395456Y-98753435D02*
X170937520Y-98672622D01*
X171072207Y-99076683D02*
X170506522Y-98510998D01*
X170722021Y-98295499D01*
X170802833Y-98268561D01*
X170856708Y-98268561D01*
X170937520Y-98295499D01*
X171018332Y-98376311D01*
X171045270Y-98457123D01*
X171045270Y-98510998D01*
X171018332Y-98591810D01*
X170802833Y-98807309D01*
X171072207Y-97945312D02*
X171530143Y-98403248D01*
X171610955Y-98430186D01*
X171664830Y-98430186D01*
X171745642Y-98403248D01*
X171853392Y-98295499D01*
X171880329Y-98214687D01*
X171880329Y-98160812D01*
X171853392Y-98079999D01*
X171395456Y-97622064D01*
X172230516Y-97918375D02*
X171664830Y-97352690D01*
X172553764Y-97595126D01*
X171988079Y-97029441D01*
X145070177Y-100741218D02*
X144989365Y-100768155D01*
X144908552Y-100848967D01*
X144854678Y-100956717D01*
X144854678Y-101064467D01*
X144881615Y-101145279D01*
X144962427Y-101279966D01*
X145043239Y-101360778D01*
X145177926Y-101441590D01*
X145258739Y-101468528D01*
X145366488Y-101468528D01*
X145474238Y-101414653D01*
X145528113Y-101360778D01*
X145581987Y-101253028D01*
X145581987Y-101199154D01*
X145393426Y-101010592D01*
X145285676Y-101118341D01*
X145878299Y-101010592D02*
X145312613Y-100444906D01*
X145528113Y-100229407D01*
X145608925Y-100202470D01*
X145662800Y-100202470D01*
X145743612Y-100229407D01*
X145824424Y-100310219D01*
X145851361Y-100391032D01*
X145851361Y-100444906D01*
X145824424Y-100525719D01*
X145608925Y-100741218D01*
X146470922Y-100417969D02*
X146578671Y-100310219D01*
X146605609Y-100229407D01*
X146605609Y-100175532D01*
X146578671Y-100040845D01*
X146497859Y-99906158D01*
X146282360Y-99690659D01*
X146201548Y-99663722D01*
X146147673Y-99663722D01*
X146066861Y-99690659D01*
X145959111Y-99798409D01*
X145932174Y-99879221D01*
X145932174Y-99933096D01*
X145959111Y-100013908D01*
X146093798Y-100148595D01*
X146174610Y-100175532D01*
X146228485Y-100175532D01*
X146309297Y-100148595D01*
X146417047Y-100040845D01*
X146443984Y-99960033D01*
X146443984Y-99906158D01*
X146417047Y-99825346D01*
X170654803Y-118790592D02*
X170573991Y-118817529D01*
X170493178Y-118898341D01*
X170439304Y-119006091D01*
X170439304Y-119113841D01*
X170466241Y-119194653D01*
X170547053Y-119329340D01*
X170627865Y-119410152D01*
X170762552Y-119490964D01*
X170843365Y-119517902D01*
X170951114Y-119517902D01*
X171058864Y-119464027D01*
X171112739Y-119410152D01*
X171166613Y-119302402D01*
X171166613Y-119248528D01*
X170978052Y-119059966D01*
X170870302Y-119167715D01*
X171462925Y-119059966D02*
X170897239Y-118494280D01*
X171112739Y-118278781D01*
X171193551Y-118251844D01*
X171247426Y-118251844D01*
X171328238Y-118278781D01*
X171409050Y-118359593D01*
X171435987Y-118440406D01*
X171435987Y-118494280D01*
X171409050Y-118575093D01*
X171193551Y-118790592D01*
X172324922Y-118197969D02*
X172001673Y-118521218D01*
X172163297Y-118359593D02*
X171597612Y-117793908D01*
X171624549Y-117928595D01*
X171624549Y-118036345D01*
X171597612Y-118117157D01*
X171947798Y-117443722D02*
X172324922Y-117066598D01*
X172648170Y-117874720D01*
X162461842Y-123333809D02*
X162576128Y-123371904D01*
X162766604Y-123371904D01*
X162842795Y-123333809D01*
X162880890Y-123295714D01*
X162918985Y-123219523D01*
X162918985Y-123143333D01*
X162880890Y-123067142D01*
X162842795Y-123029047D01*
X162766604Y-122990952D01*
X162614223Y-122952857D01*
X162538033Y-122914761D01*
X162499938Y-122876666D01*
X162461842Y-122800476D01*
X162461842Y-122724285D01*
X162499938Y-122648095D01*
X162538033Y-122610000D01*
X162614223Y-122571904D01*
X162804700Y-122571904D01*
X162918985Y-122610000D01*
X163185652Y-122571904D02*
X163376128Y-123371904D01*
X163528509Y-122800476D01*
X163680890Y-123371904D01*
X163871366Y-122571904D01*
X164176128Y-123371904D02*
X164176128Y-122571904D01*
X164366604Y-122571904D01*
X164480890Y-122610000D01*
X164557081Y-122686190D01*
X164595176Y-122762380D01*
X164633271Y-122914761D01*
X164633271Y-123029047D01*
X164595176Y-123181428D01*
X164557081Y-123257619D01*
X164480890Y-123333809D01*
X164366604Y-123371904D01*
X164176128Y-123371904D01*
X164976128Y-123371904D02*
X164976128Y-122571904D01*
X165509461Y-122571904D02*
X165661842Y-122571904D01*
X165738033Y-122610000D01*
X165814223Y-122686190D01*
X165852319Y-122838571D01*
X165852319Y-123105238D01*
X165814223Y-123257619D01*
X165738033Y-123333809D01*
X165661842Y-123371904D01*
X165509461Y-123371904D01*
X165433271Y-123333809D01*
X165357081Y-123257619D01*
X165318985Y-123105238D01*
X165318985Y-122838571D01*
X165357081Y-122686190D01*
X165433271Y-122610000D01*
X165509461Y-122571904D01*
X145070177Y-93121218D02*
X144989365Y-93148155D01*
X144908552Y-93228967D01*
X144854678Y-93336717D01*
X144854678Y-93444467D01*
X144881615Y-93525279D01*
X144962427Y-93659966D01*
X145043239Y-93740778D01*
X145177926Y-93821590D01*
X145258739Y-93848528D01*
X145366488Y-93848528D01*
X145474238Y-93794653D01*
X145528113Y-93740778D01*
X145581987Y-93633028D01*
X145581987Y-93579154D01*
X145393426Y-93390592D01*
X145285676Y-93498341D01*
X145878299Y-93390592D02*
X145312613Y-92824906D01*
X145528113Y-92609407D01*
X145608925Y-92582470D01*
X145662800Y-92582470D01*
X145743612Y-92609407D01*
X145824424Y-92690219D01*
X145851361Y-92771032D01*
X145851361Y-92824906D01*
X145824424Y-92905719D01*
X145608925Y-93121218D01*
X146120735Y-92016784D02*
X146012986Y-92124534D01*
X145986048Y-92205346D01*
X145986048Y-92259221D01*
X146012986Y-92393908D01*
X146093798Y-92528595D01*
X146309297Y-92744094D01*
X146390109Y-92771032D01*
X146443984Y-92771032D01*
X146524796Y-92744094D01*
X146632546Y-92636345D01*
X146659483Y-92555532D01*
X146659483Y-92501658D01*
X146632546Y-92420845D01*
X146497859Y-92286158D01*
X146417047Y-92259221D01*
X146363172Y-92259221D01*
X146282360Y-92286158D01*
X146174610Y-92393908D01*
X146147673Y-92474720D01*
X146147673Y-92528595D01*
X146174610Y-92609407D01*
X145070177Y-88041218D02*
X144989365Y-88068155D01*
X144908552Y-88148967D01*
X144854678Y-88256717D01*
X144854678Y-88364467D01*
X144881615Y-88445279D01*
X144962427Y-88579966D01*
X145043239Y-88660778D01*
X145177926Y-88741590D01*
X145258739Y-88768528D01*
X145366488Y-88768528D01*
X145474238Y-88714653D01*
X145528113Y-88660778D01*
X145581987Y-88553028D01*
X145581987Y-88499154D01*
X145393426Y-88310592D01*
X145285676Y-88418341D01*
X145878299Y-88310592D02*
X145312613Y-87744906D01*
X145528113Y-87529407D01*
X145608925Y-87502470D01*
X145662800Y-87502470D01*
X145743612Y-87529407D01*
X145824424Y-87610219D01*
X145851361Y-87691032D01*
X145851361Y-87744906D01*
X145824424Y-87825719D01*
X145608925Y-88041218D01*
X146147673Y-86909847D02*
X145878299Y-87179221D01*
X146120735Y-87475532D01*
X146120735Y-87421658D01*
X146147673Y-87340845D01*
X146282360Y-87206158D01*
X146363172Y-87179221D01*
X146417047Y-87179221D01*
X146497859Y-87206158D01*
X146632546Y-87340845D01*
X146659483Y-87421658D01*
X146659483Y-87475532D01*
X146632546Y-87556345D01*
X146497859Y-87691032D01*
X146417047Y-87717969D01*
X146363172Y-87717969D01*
X151047557Y-123333809D02*
X151161842Y-123371904D01*
X151352319Y-123371904D01*
X151428509Y-123333809D01*
X151466604Y-123295714D01*
X151504700Y-123219523D01*
X151504700Y-123143333D01*
X151466604Y-123067142D01*
X151428509Y-123029047D01*
X151352319Y-122990952D01*
X151199938Y-122952857D01*
X151123747Y-122914761D01*
X151085652Y-122876666D01*
X151047557Y-122800476D01*
X151047557Y-122724285D01*
X151085652Y-122648095D01*
X151123747Y-122610000D01*
X151199938Y-122571904D01*
X151390414Y-122571904D01*
X151504700Y-122610000D01*
X151771366Y-122571904D02*
X151961842Y-123371904D01*
X152114223Y-122800476D01*
X152266604Y-123371904D01*
X152457081Y-122571904D01*
X153218985Y-123295714D02*
X153180890Y-123333809D01*
X153066604Y-123371904D01*
X152990414Y-123371904D01*
X152876128Y-123333809D01*
X152799938Y-123257619D01*
X152761842Y-123181428D01*
X152723747Y-123029047D01*
X152723747Y-122914761D01*
X152761842Y-122762380D01*
X152799938Y-122686190D01*
X152876128Y-122610000D01*
X152990414Y-122571904D01*
X153066604Y-122571904D01*
X153180890Y-122610000D01*
X153218985Y-122648095D01*
X153942795Y-123371904D02*
X153561842Y-123371904D01*
X153561842Y-122571904D01*
X154209461Y-123371904D02*
X154209461Y-122571904D01*
X154666604Y-123371904D02*
X154323747Y-122914761D01*
X154666604Y-122571904D02*
X154209461Y-123029047D01*
X170654803Y-95930592D02*
X170573991Y-95957529D01*
X170493178Y-96038341D01*
X170439304Y-96146091D01*
X170439304Y-96253841D01*
X170466241Y-96334653D01*
X170547053Y-96469340D01*
X170627865Y-96550152D01*
X170762552Y-96630964D01*
X170843365Y-96657902D01*
X170951114Y-96657902D01*
X171058864Y-96604027D01*
X171112739Y-96550152D01*
X171166613Y-96442402D01*
X171166613Y-96388528D01*
X170978052Y-96199966D01*
X170870302Y-96307715D01*
X171462925Y-96199966D02*
X170897239Y-95634280D01*
X171112739Y-95418781D01*
X171193551Y-95391844D01*
X171247426Y-95391844D01*
X171328238Y-95418781D01*
X171409050Y-95499593D01*
X171435987Y-95580406D01*
X171435987Y-95634280D01*
X171409050Y-95715093D01*
X171193551Y-95930592D01*
X171489862Y-95149407D02*
X171489862Y-95095532D01*
X171516800Y-95014720D01*
X171651487Y-94880033D01*
X171732299Y-94853096D01*
X171786174Y-94853096D01*
X171866986Y-94880033D01*
X171920861Y-94933908D01*
X171974735Y-95041658D01*
X171974735Y-95688155D01*
X172324922Y-95337969D01*
X172244109Y-94287410D02*
X172136360Y-94395160D01*
X172109422Y-94475972D01*
X172109422Y-94529847D01*
X172136360Y-94664534D01*
X172217172Y-94799221D01*
X172432671Y-95014720D01*
X172513483Y-95041658D01*
X172567358Y-95041658D01*
X172648170Y-95014720D01*
X172755920Y-94906971D01*
X172782857Y-94826158D01*
X172782857Y-94772284D01*
X172755920Y-94691471D01*
X172621233Y-94556784D01*
X172540421Y-94529847D01*
X172486546Y-94529847D01*
X172405734Y-94556784D01*
X172297984Y-94664534D01*
X172271047Y-94745346D01*
X172271047Y-94799221D01*
X172297984Y-94880033D01*
X145170177Y-95631218D02*
X145089365Y-95658155D01*
X145008552Y-95738967D01*
X144954678Y-95846717D01*
X144954678Y-95954467D01*
X144981615Y-96035279D01*
X145062427Y-96169966D01*
X145143239Y-96250778D01*
X145277926Y-96331590D01*
X145358739Y-96358528D01*
X145466488Y-96358528D01*
X145574238Y-96304653D01*
X145628113Y-96250778D01*
X145681987Y-96143028D01*
X145681987Y-96089154D01*
X145493426Y-95900592D01*
X145385676Y-96008341D01*
X145978299Y-95900592D02*
X145412613Y-95334906D01*
X145628113Y-95119407D01*
X145708925Y-95092470D01*
X145762800Y-95092470D01*
X145843612Y-95119407D01*
X145924424Y-95200219D01*
X145951361Y-95281032D01*
X145951361Y-95334906D01*
X145924424Y-95415719D01*
X145708925Y-95631218D01*
X145924424Y-94823096D02*
X146301548Y-94445972D01*
X146624796Y-95254094D01*
X170708678Y-91550964D02*
X170978052Y-91281590D01*
X170816427Y-91766463D02*
X170439304Y-91012216D01*
X171193551Y-91389340D01*
X171139676Y-90365719D02*
X171058864Y-90392656D01*
X170978052Y-90473468D01*
X170924177Y-90581218D01*
X170924177Y-90688967D01*
X170951114Y-90769780D01*
X171031926Y-90904467D01*
X171112739Y-90985279D01*
X171247426Y-91066091D01*
X171328238Y-91093028D01*
X171435987Y-91093028D01*
X171543737Y-91039154D01*
X171597612Y-90985279D01*
X171651487Y-90877529D01*
X171651487Y-90823654D01*
X171462925Y-90635093D01*
X171355175Y-90742842D01*
X171947798Y-90635093D02*
X171382113Y-90069407D01*
X172271047Y-90311844D01*
X171705361Y-89746158D01*
X172540421Y-90042470D02*
X171974735Y-89476784D01*
X172109422Y-89342097D01*
X172217172Y-89288223D01*
X172324922Y-89288223D01*
X172405734Y-89315160D01*
X172540421Y-89395972D01*
X172621233Y-89476784D01*
X172702045Y-89611471D01*
X172728983Y-89692284D01*
X172728983Y-89800033D01*
X172675108Y-89907783D01*
X172540421Y-90042470D01*
X145043239Y-77908155D02*
X144962427Y-77935093D01*
X144881615Y-78015905D01*
X144827740Y-78123654D01*
X144827740Y-78231404D01*
X144854678Y-78312216D01*
X144935490Y-78446903D01*
X145016302Y-78527715D01*
X145150989Y-78608528D01*
X145231801Y-78635465D01*
X145339551Y-78635465D01*
X145447300Y-78581590D01*
X145501175Y-78527715D01*
X145555050Y-78419966D01*
X145555050Y-78366091D01*
X145366488Y-78177529D01*
X145258739Y-78285279D01*
X145851361Y-78177529D02*
X145285676Y-77611844D01*
X146174610Y-77854280D01*
X145608925Y-77288595D01*
X146443984Y-77584906D02*
X145878299Y-77019221D01*
X146012986Y-76884534D01*
X146120735Y-76830659D01*
X146228485Y-76830659D01*
X146309297Y-76857597D01*
X146443984Y-76938409D01*
X146524796Y-77019221D01*
X146605609Y-77153908D01*
X146632546Y-77234720D01*
X146632546Y-77342470D01*
X146578671Y-77450219D01*
X146443984Y-77584906D01*
X170654803Y-111170592D02*
X170573991Y-111197529D01*
X170493178Y-111278341D01*
X170439304Y-111386091D01*
X170439304Y-111493841D01*
X170466241Y-111574653D01*
X170547053Y-111709340D01*
X170627865Y-111790152D01*
X170762552Y-111870964D01*
X170843365Y-111897902D01*
X170951114Y-111897902D01*
X171058864Y-111844027D01*
X171112739Y-111790152D01*
X171166613Y-111682402D01*
X171166613Y-111628528D01*
X170978052Y-111439966D01*
X170870302Y-111547715D01*
X171462925Y-111439966D02*
X170897239Y-110874280D01*
X171112739Y-110658781D01*
X171193551Y-110631844D01*
X171247426Y-110631844D01*
X171328238Y-110658781D01*
X171409050Y-110739593D01*
X171435987Y-110820406D01*
X171435987Y-110874280D01*
X171409050Y-110955093D01*
X171193551Y-111170592D01*
X172324922Y-110577969D02*
X172001673Y-110901218D01*
X172163297Y-110739593D02*
X171597612Y-110173908D01*
X171624549Y-110308595D01*
X171624549Y-110416345D01*
X171597612Y-110497157D01*
X172594296Y-110308595D02*
X172702045Y-110200845D01*
X172728983Y-110120033D01*
X172728983Y-110066158D01*
X172702045Y-109931471D01*
X172621233Y-109796784D01*
X172405734Y-109581285D01*
X172324922Y-109554348D01*
X172271047Y-109554348D01*
X172190235Y-109581285D01*
X172082485Y-109689035D01*
X172055548Y-109769847D01*
X172055548Y-109823722D01*
X172082485Y-109904534D01*
X172217172Y-110039221D01*
X172297984Y-110066158D01*
X172351859Y-110066158D01*
X172432671Y-110039221D01*
X172540421Y-109931471D01*
X172567358Y-109850659D01*
X172567358Y-109796784D01*
X172540421Y-109715972D01*
X144546803Y-113710592D02*
X144465991Y-113737529D01*
X144385178Y-113818341D01*
X144331304Y-113926091D01*
X144331304Y-114033841D01*
X144358241Y-114114653D01*
X144439053Y-114249340D01*
X144519865Y-114330152D01*
X144654552Y-114410964D01*
X144735365Y-114437902D01*
X144843114Y-114437902D01*
X144950864Y-114384027D01*
X145004739Y-114330152D01*
X145058613Y-114222402D01*
X145058613Y-114168528D01*
X144870052Y-113979966D01*
X144762302Y-114087715D01*
X145354925Y-113979966D02*
X144789239Y-113414280D01*
X145004739Y-113198781D01*
X145085551Y-113171844D01*
X145139426Y-113171844D01*
X145220238Y-113198781D01*
X145301050Y-113279593D01*
X145327987Y-113360406D01*
X145327987Y-113414280D01*
X145301050Y-113495093D01*
X145085551Y-113710592D01*
X146216922Y-113117969D02*
X145893673Y-113441218D01*
X146055297Y-113279593D02*
X145489612Y-112713908D01*
X145516549Y-112848595D01*
X145516549Y-112956345D01*
X145489612Y-113037157D01*
X145839798Y-112363722D02*
X146189984Y-112013536D01*
X146216922Y-112417597D01*
X146297734Y-112336784D01*
X146378546Y-112309847D01*
X146432421Y-112309847D01*
X146513233Y-112336784D01*
X146647920Y-112471471D01*
X146674857Y-112552284D01*
X146674857Y-112606158D01*
X146647920Y-112686971D01*
X146486296Y-112848595D01*
X146405483Y-112875532D01*
X146351609Y-112875532D01*
X170654803Y-93400592D02*
X170573991Y-93427529D01*
X170493178Y-93508341D01*
X170439304Y-93616091D01*
X170439304Y-93723841D01*
X170466241Y-93804653D01*
X170547053Y-93939340D01*
X170627865Y-94020152D01*
X170762552Y-94100964D01*
X170843365Y-94127902D01*
X170951114Y-94127902D01*
X171058864Y-94074027D01*
X171112739Y-94020152D01*
X171166613Y-93912402D01*
X171166613Y-93858528D01*
X170978052Y-93669966D01*
X170870302Y-93777715D01*
X171462925Y-93669966D02*
X170897239Y-93104280D01*
X171112739Y-92888781D01*
X171193551Y-92861844D01*
X171247426Y-92861844D01*
X171328238Y-92888781D01*
X171409050Y-92969593D01*
X171435987Y-93050406D01*
X171435987Y-93104280D01*
X171409050Y-93185093D01*
X171193551Y-93400592D01*
X171489862Y-92619407D02*
X171489862Y-92565532D01*
X171516800Y-92484720D01*
X171651487Y-92350033D01*
X171732299Y-92323096D01*
X171786174Y-92323096D01*
X171866986Y-92350033D01*
X171920861Y-92403908D01*
X171974735Y-92511658D01*
X171974735Y-93158155D01*
X172324922Y-92807969D01*
X171947798Y-92053722D02*
X172324922Y-91676598D01*
X172648170Y-92484720D01*
X170654803Y-106100592D02*
X170573991Y-106127529D01*
X170493178Y-106208341D01*
X170439304Y-106316091D01*
X170439304Y-106423841D01*
X170466241Y-106504653D01*
X170547053Y-106639340D01*
X170627865Y-106720152D01*
X170762552Y-106800964D01*
X170843365Y-106827902D01*
X170951114Y-106827902D01*
X171058864Y-106774027D01*
X171112739Y-106720152D01*
X171166613Y-106612402D01*
X171166613Y-106558528D01*
X170978052Y-106369966D01*
X170870302Y-106477715D01*
X171462925Y-106369966D02*
X170897239Y-105804280D01*
X171112739Y-105588781D01*
X171193551Y-105561844D01*
X171247426Y-105561844D01*
X171328238Y-105588781D01*
X171409050Y-105669593D01*
X171435987Y-105750406D01*
X171435987Y-105804280D01*
X171409050Y-105885093D01*
X171193551Y-106100592D01*
X171489862Y-105319407D02*
X171489862Y-105265532D01*
X171516800Y-105184720D01*
X171651487Y-105050033D01*
X171732299Y-105023096D01*
X171786174Y-105023096D01*
X171866986Y-105050033D01*
X171920861Y-105103908D01*
X171974735Y-105211658D01*
X171974735Y-105858155D01*
X172324922Y-105507969D01*
X172863670Y-104969221D02*
X172540421Y-105292470D01*
X172702045Y-105130845D02*
X172136360Y-104565160D01*
X172163297Y-104699847D01*
X172163297Y-104807597D01*
X172136360Y-104888409D01*
X170479212Y-80768308D02*
X170829398Y-80418122D01*
X170856336Y-80822183D01*
X170937148Y-80741370D01*
X171017960Y-80714433D01*
X171071835Y-80714433D01*
X171152647Y-80741370D01*
X171287334Y-80876057D01*
X171314271Y-80956870D01*
X171314271Y-81010744D01*
X171287334Y-81091557D01*
X171125710Y-81253181D01*
X171044897Y-81280118D01*
X170991023Y-81280118D01*
X170991023Y-80256497D02*
X171745270Y-80633621D01*
X171368146Y-79879374D01*
X171502833Y-79744687D02*
X171853019Y-79394500D01*
X171879957Y-79798561D01*
X171960769Y-79717749D01*
X172041581Y-79690812D01*
X172095456Y-79690812D01*
X172176268Y-79717749D01*
X172310955Y-79852436D01*
X172337893Y-79933248D01*
X172337893Y-79987123D01*
X172310955Y-80067935D01*
X172149331Y-80229560D01*
X172068519Y-80256497D01*
X172014644Y-80256497D01*
X172580329Y-79906311D02*
X173011328Y-79475312D01*
X172795829Y-78990439D02*
X172984390Y-78801877D01*
X173361514Y-79017377D02*
X173092140Y-79286751D01*
X172526455Y-78721065D01*
X172795829Y-78451691D01*
X173603951Y-78774940D02*
X173038265Y-78209255D01*
X173927199Y-78451691D01*
X173361514Y-77886006D01*
X170510210Y-73337309D02*
X171264458Y-73714433D01*
X170887334Y-72960186D01*
X171533832Y-72852436D02*
X171641581Y-72798561D01*
X171695456Y-72798561D01*
X171776268Y-72825499D01*
X171857081Y-72906311D01*
X171884018Y-72987123D01*
X171884018Y-73040998D01*
X171857081Y-73121810D01*
X171641581Y-73337309D01*
X171075896Y-72771624D01*
X171264458Y-72583062D01*
X171345270Y-72556125D01*
X171399145Y-72556125D01*
X171479957Y-72583062D01*
X171533832Y-72636937D01*
X171560769Y-72717749D01*
X171560769Y-72771624D01*
X171533832Y-72852436D01*
X171345270Y-73040998D01*
X171641581Y-72205938D02*
X172099517Y-72663874D01*
X172180329Y-72690812D01*
X172234204Y-72690812D01*
X172315016Y-72663874D01*
X172422766Y-72556125D01*
X172449703Y-72475312D01*
X172449703Y-72421438D01*
X172422766Y-72340625D01*
X171964830Y-71882690D01*
X172746015Y-72179001D02*
X172853764Y-72125126D01*
X172988451Y-71990439D01*
X173015389Y-71909627D01*
X173015389Y-71855752D01*
X172988451Y-71774940D01*
X172934577Y-71721065D01*
X172853764Y-71694128D01*
X172799890Y-71694128D01*
X172719077Y-71721065D01*
X172584390Y-71801877D01*
X172503578Y-71828815D01*
X172449703Y-71828815D01*
X172368891Y-71801877D01*
X172315016Y-71748003D01*
X172288079Y-71667190D01*
X172288079Y-71613316D01*
X172315016Y-71532503D01*
X172449703Y-71397816D01*
X172557453Y-71343942D01*
X145043239Y-116008155D02*
X144962427Y-116035093D01*
X144881615Y-116115905D01*
X144827740Y-116223654D01*
X144827740Y-116331404D01*
X144854678Y-116412216D01*
X144935490Y-116546903D01*
X145016302Y-116627715D01*
X145150989Y-116708528D01*
X145231801Y-116735465D01*
X145339551Y-116735465D01*
X145447300Y-116681590D01*
X145501175Y-116627715D01*
X145555050Y-116519966D01*
X145555050Y-116466091D01*
X145366488Y-116277529D01*
X145258739Y-116385279D01*
X145851361Y-116277529D02*
X145285676Y-115711844D01*
X146174610Y-115954280D01*
X145608925Y-115388595D01*
X146443984Y-115684906D02*
X145878299Y-115119221D01*
X146012986Y-114984534D01*
X146120735Y-114930659D01*
X146228485Y-114930659D01*
X146309297Y-114957597D01*
X146443984Y-115038409D01*
X146524796Y-115119221D01*
X146605609Y-115253908D01*
X146632546Y-115334720D01*
X146632546Y-115442470D01*
X146578671Y-115550219D01*
X146443984Y-115684906D01*
X144400803Y-111170592D02*
X144319991Y-111197529D01*
X144239178Y-111278341D01*
X144185304Y-111386091D01*
X144185304Y-111493841D01*
X144212241Y-111574653D01*
X144293053Y-111709340D01*
X144373865Y-111790152D01*
X144508552Y-111870964D01*
X144589365Y-111897902D01*
X144697114Y-111897902D01*
X144804864Y-111844027D01*
X144858739Y-111790152D01*
X144912613Y-111682402D01*
X144912613Y-111628528D01*
X144724052Y-111439966D01*
X144616302Y-111547715D01*
X145208925Y-111439966D02*
X144643239Y-110874280D01*
X144858739Y-110658781D01*
X144939551Y-110631844D01*
X144993426Y-110631844D01*
X145074238Y-110658781D01*
X145155050Y-110739593D01*
X145181987Y-110820406D01*
X145181987Y-110874280D01*
X145155050Y-110955093D01*
X144939551Y-111170592D01*
X146070922Y-110577969D02*
X145747673Y-110901218D01*
X145909297Y-110739593D02*
X145343612Y-110173908D01*
X145370549Y-110308595D01*
X145370549Y-110416345D01*
X145343612Y-110497157D01*
X145774610Y-109850659D02*
X145774610Y-109796784D01*
X145801548Y-109715972D01*
X145936235Y-109581285D01*
X146017047Y-109554348D01*
X146070922Y-109554348D01*
X146151734Y-109581285D01*
X146205609Y-109635160D01*
X146259483Y-109742910D01*
X146259483Y-110389407D01*
X146609670Y-110039221D01*
X144970177Y-80421218D02*
X144889365Y-80448155D01*
X144808552Y-80528967D01*
X144754678Y-80636717D01*
X144754678Y-80744467D01*
X144781615Y-80825279D01*
X144862427Y-80959966D01*
X144943239Y-81040778D01*
X145077926Y-81121590D01*
X145158739Y-81148528D01*
X145266488Y-81148528D01*
X145374238Y-81094653D01*
X145428113Y-81040778D01*
X145481987Y-80933028D01*
X145481987Y-80879154D01*
X145293426Y-80690592D01*
X145185676Y-80798341D01*
X145778299Y-80690592D02*
X145212613Y-80124906D01*
X145428113Y-79909407D01*
X145508925Y-79882470D01*
X145562800Y-79882470D01*
X145643612Y-79909407D01*
X145724424Y-79990219D01*
X145751361Y-80071032D01*
X145751361Y-80124906D01*
X145724424Y-80205719D01*
X145508925Y-80421218D01*
X145805236Y-79640033D02*
X145805236Y-79586158D01*
X145832174Y-79505346D01*
X145966861Y-79370659D01*
X146047673Y-79343722D01*
X146101548Y-79343722D01*
X146182360Y-79370659D01*
X146236235Y-79424534D01*
X146290109Y-79532284D01*
X146290109Y-80178781D01*
X146640296Y-79828595D01*
X144546803Y-106090592D02*
X144465991Y-106117529D01*
X144385178Y-106198341D01*
X144331304Y-106306091D01*
X144331304Y-106413841D01*
X144358241Y-106494653D01*
X144439053Y-106629340D01*
X144519865Y-106710152D01*
X144654552Y-106790964D01*
X144735365Y-106817902D01*
X144843114Y-106817902D01*
X144950864Y-106764027D01*
X145004739Y-106710152D01*
X145058613Y-106602402D01*
X145058613Y-106548528D01*
X144870052Y-106359966D01*
X144762302Y-106467715D01*
X145354925Y-106359966D02*
X144789239Y-105794280D01*
X145004739Y-105578781D01*
X145085551Y-105551844D01*
X145139426Y-105551844D01*
X145220238Y-105578781D01*
X145301050Y-105659593D01*
X145327987Y-105740406D01*
X145327987Y-105794280D01*
X145301050Y-105875093D01*
X145085551Y-106090592D01*
X146216922Y-105497969D02*
X145893673Y-105821218D01*
X146055297Y-105659593D02*
X145489612Y-105093908D01*
X145516549Y-105228595D01*
X145516549Y-105336345D01*
X145489612Y-105417157D01*
X146001422Y-104582097D02*
X146055297Y-104528223D01*
X146136109Y-104501285D01*
X146189984Y-104501285D01*
X146270796Y-104528223D01*
X146405483Y-104609035D01*
X146540170Y-104743722D01*
X146620983Y-104878409D01*
X146647920Y-104959221D01*
X146647920Y-105013096D01*
X146620983Y-105093908D01*
X146567108Y-105147783D01*
X146486296Y-105174720D01*
X146432421Y-105174720D01*
X146351609Y-105147783D01*
X146216922Y-105066971D01*
X146082235Y-104932284D01*
X146001422Y-104797597D01*
X145974485Y-104716784D01*
X145974485Y-104662910D01*
X146001422Y-104582097D01*
X170643239Y-116008155D02*
X170562427Y-116035093D01*
X170481615Y-116115905D01*
X170427740Y-116223654D01*
X170427740Y-116331404D01*
X170454678Y-116412216D01*
X170535490Y-116546903D01*
X170616302Y-116627715D01*
X170750989Y-116708528D01*
X170831801Y-116735465D01*
X170939551Y-116735465D01*
X171047300Y-116681590D01*
X171101175Y-116627715D01*
X171155050Y-116519966D01*
X171155050Y-116466091D01*
X170966488Y-116277529D01*
X170858739Y-116385279D01*
X171451361Y-116277529D02*
X170885676Y-115711844D01*
X171774610Y-115954280D01*
X171208925Y-115388595D01*
X172043984Y-115684906D02*
X171478299Y-115119221D01*
X171612986Y-114984534D01*
X171720735Y-114930659D01*
X171828485Y-114930659D01*
X171909297Y-114957597D01*
X172043984Y-115038409D01*
X172124796Y-115119221D01*
X172205609Y-115253908D01*
X172232546Y-115334720D01*
X172232546Y-115442470D01*
X172178671Y-115550219D01*
X172043984Y-115684906D01*
X145070177Y-82961218D02*
X144989365Y-82988155D01*
X144908552Y-83068967D01*
X144854678Y-83176717D01*
X144854678Y-83284467D01*
X144881615Y-83365279D01*
X144962427Y-83499966D01*
X145043239Y-83580778D01*
X145177926Y-83661590D01*
X145258739Y-83688528D01*
X145366488Y-83688528D01*
X145474238Y-83634653D01*
X145528113Y-83580778D01*
X145581987Y-83473028D01*
X145581987Y-83419154D01*
X145393426Y-83230592D01*
X145285676Y-83338341D01*
X145878299Y-83230592D02*
X145312613Y-82664906D01*
X145528113Y-82449407D01*
X145608925Y-82422470D01*
X145662800Y-82422470D01*
X145743612Y-82449407D01*
X145824424Y-82530219D01*
X145851361Y-82611032D01*
X145851361Y-82664906D01*
X145824424Y-82745719D01*
X145608925Y-82961218D01*
X145824424Y-82153096D02*
X146174610Y-81802910D01*
X146201548Y-82206971D01*
X146282360Y-82126158D01*
X146363172Y-82099221D01*
X146417047Y-82099221D01*
X146497859Y-82126158D01*
X146632546Y-82260845D01*
X146659483Y-82341658D01*
X146659483Y-82395532D01*
X146632546Y-82476345D01*
X146470922Y-82637969D01*
X146390109Y-82664906D01*
X146336235Y-82664906D01*
X170654803Y-121330592D02*
X170573991Y-121357529D01*
X170493178Y-121438341D01*
X170439304Y-121546091D01*
X170439304Y-121653841D01*
X170466241Y-121734653D01*
X170547053Y-121869340D01*
X170627865Y-121950152D01*
X170762552Y-122030964D01*
X170843365Y-122057902D01*
X170951114Y-122057902D01*
X171058864Y-122004027D01*
X171112739Y-121950152D01*
X171166613Y-121842402D01*
X171166613Y-121788528D01*
X170978052Y-121599966D01*
X170870302Y-121707715D01*
X171462925Y-121599966D02*
X170897239Y-121034280D01*
X171112739Y-120818781D01*
X171193551Y-120791844D01*
X171247426Y-120791844D01*
X171328238Y-120818781D01*
X171409050Y-120899593D01*
X171435987Y-120980406D01*
X171435987Y-121034280D01*
X171409050Y-121115093D01*
X171193551Y-121330592D01*
X172324922Y-120737969D02*
X172001673Y-121061218D01*
X172163297Y-120899593D02*
X171597612Y-120333908D01*
X171624549Y-120468595D01*
X171624549Y-120576345D01*
X171597612Y-120657157D01*
X172244109Y-119687410D02*
X172136360Y-119795160D01*
X172109422Y-119875972D01*
X172109422Y-119929847D01*
X172136360Y-120064534D01*
X172217172Y-120199221D01*
X172432671Y-120414720D01*
X172513483Y-120441658D01*
X172567358Y-120441658D01*
X172648170Y-120414720D01*
X172755920Y-120306971D01*
X172782857Y-120226158D01*
X172782857Y-120172284D01*
X172755920Y-120091471D01*
X172621233Y-119956784D01*
X172540421Y-119929847D01*
X172486546Y-119929847D01*
X172405734Y-119956784D01*
X172297984Y-120064534D01*
X172271047Y-120145346D01*
X172271047Y-120199221D01*
X172297984Y-120280033D01*
X145070177Y-72801218D02*
X144989365Y-72828155D01*
X144908552Y-72908967D01*
X144854678Y-73016717D01*
X144854678Y-73124467D01*
X144881615Y-73205279D01*
X144962427Y-73339966D01*
X145043239Y-73420778D01*
X145177926Y-73501590D01*
X145258739Y-73528528D01*
X145366488Y-73528528D01*
X145474238Y-73474653D01*
X145528113Y-73420778D01*
X145581987Y-73313028D01*
X145581987Y-73259154D01*
X145393426Y-73070592D01*
X145285676Y-73178341D01*
X145878299Y-73070592D02*
X145312613Y-72504906D01*
X145528113Y-72289407D01*
X145608925Y-72262470D01*
X145662800Y-72262470D01*
X145743612Y-72289407D01*
X145824424Y-72370219D01*
X145851361Y-72451032D01*
X145851361Y-72504906D01*
X145824424Y-72585719D01*
X145608925Y-72801218D01*
X145986048Y-71831471D02*
X146039923Y-71777597D01*
X146120735Y-71750659D01*
X146174610Y-71750659D01*
X146255422Y-71777597D01*
X146390109Y-71858409D01*
X146524796Y-71993096D01*
X146605609Y-72127783D01*
X146632546Y-72208595D01*
X146632546Y-72262470D01*
X146605609Y-72343282D01*
X146551734Y-72397157D01*
X146470922Y-72424094D01*
X146417047Y-72424094D01*
X146336235Y-72397157D01*
X146201548Y-72316345D01*
X146066861Y-72181658D01*
X145986048Y-72046971D01*
X145959111Y-71966158D01*
X145959111Y-71912284D01*
X145986048Y-71831471D01*
X170654803Y-113710592D02*
X170573991Y-113737529D01*
X170493178Y-113818341D01*
X170439304Y-113926091D01*
X170439304Y-114033841D01*
X170466241Y-114114653D01*
X170547053Y-114249340D01*
X170627865Y-114330152D01*
X170762552Y-114410964D01*
X170843365Y-114437902D01*
X170951114Y-114437902D01*
X171058864Y-114384027D01*
X171112739Y-114330152D01*
X171166613Y-114222402D01*
X171166613Y-114168528D01*
X170978052Y-113979966D01*
X170870302Y-114087715D01*
X171462925Y-113979966D02*
X170897239Y-113414280D01*
X171112739Y-113198781D01*
X171193551Y-113171844D01*
X171247426Y-113171844D01*
X171328238Y-113198781D01*
X171409050Y-113279593D01*
X171435987Y-113360406D01*
X171435987Y-113414280D01*
X171409050Y-113495093D01*
X171193551Y-113710592D01*
X172324922Y-113117969D02*
X172001673Y-113441218D01*
X172163297Y-113279593D02*
X171597612Y-112713908D01*
X171624549Y-112848595D01*
X171624549Y-112956345D01*
X171597612Y-113037157D01*
X172324922Y-112471471D02*
X172244109Y-112498409D01*
X172190235Y-112498409D01*
X172109422Y-112471471D01*
X172082485Y-112444534D01*
X172055548Y-112363722D01*
X172055548Y-112309847D01*
X172082485Y-112229035D01*
X172190235Y-112121285D01*
X172271047Y-112094348D01*
X172324922Y-112094348D01*
X172405734Y-112121285D01*
X172432671Y-112148223D01*
X172459609Y-112229035D01*
X172459609Y-112282910D01*
X172432671Y-112363722D01*
X172324922Y-112471471D01*
X172297984Y-112552284D01*
X172297984Y-112606158D01*
X172324922Y-112686971D01*
X172432671Y-112794720D01*
X172513483Y-112821658D01*
X172567358Y-112821658D01*
X172648170Y-112794720D01*
X172755920Y-112686971D01*
X172782857Y-112606158D01*
X172782857Y-112552284D01*
X172755920Y-112471471D01*
X172648170Y-112363722D01*
X172567358Y-112336784D01*
X172513483Y-112336784D01*
X172432671Y-112363722D01*
X170654803Y-88056592D02*
X170573991Y-88083529D01*
X170493178Y-88164341D01*
X170439304Y-88272091D01*
X170439304Y-88379841D01*
X170466241Y-88460653D01*
X170547053Y-88595340D01*
X170627865Y-88676152D01*
X170762552Y-88756964D01*
X170843365Y-88783902D01*
X170951114Y-88783902D01*
X171058864Y-88730027D01*
X171112739Y-88676152D01*
X171166613Y-88568402D01*
X171166613Y-88514528D01*
X170978052Y-88325966D01*
X170870302Y-88433715D01*
X171462925Y-88325966D02*
X170897239Y-87760280D01*
X171112739Y-87544781D01*
X171193551Y-87517844D01*
X171247426Y-87517844D01*
X171328238Y-87544781D01*
X171409050Y-87625593D01*
X171435987Y-87706406D01*
X171435987Y-87760280D01*
X171409050Y-87841093D01*
X171193551Y-88056592D01*
X171489862Y-87275407D02*
X171489862Y-87221532D01*
X171516800Y-87140720D01*
X171651487Y-87006033D01*
X171732299Y-86979096D01*
X171786174Y-86979096D01*
X171866986Y-87006033D01*
X171920861Y-87059908D01*
X171974735Y-87167658D01*
X171974735Y-87814155D01*
X172324922Y-87463969D01*
X172324922Y-86817471D02*
X172244109Y-86844409D01*
X172190235Y-86844409D01*
X172109422Y-86817471D01*
X172082485Y-86790534D01*
X172055548Y-86709722D01*
X172055548Y-86655847D01*
X172082485Y-86575035D01*
X172190235Y-86467285D01*
X172271047Y-86440348D01*
X172324922Y-86440348D01*
X172405734Y-86467285D01*
X172432671Y-86494223D01*
X172459609Y-86575035D01*
X172459609Y-86628910D01*
X172432671Y-86709722D01*
X172324922Y-86817471D01*
X172297984Y-86898284D01*
X172297984Y-86952158D01*
X172324922Y-87032971D01*
X172432671Y-87140720D01*
X172513483Y-87167658D01*
X172567358Y-87167658D01*
X172648170Y-87140720D01*
X172755920Y-87032971D01*
X172782857Y-86952158D01*
X172782857Y-86898284D01*
X172755920Y-86817471D01*
X172648170Y-86709722D01*
X172567358Y-86682784D01*
X172513483Y-86682784D01*
X172432671Y-86709722D01*
X145043239Y-103308155D02*
X144962427Y-103335093D01*
X144881615Y-103415905D01*
X144827740Y-103523654D01*
X144827740Y-103631404D01*
X144854678Y-103712216D01*
X144935490Y-103846903D01*
X145016302Y-103927715D01*
X145150989Y-104008528D01*
X145231801Y-104035465D01*
X145339551Y-104035465D01*
X145447300Y-103981590D01*
X145501175Y-103927715D01*
X145555050Y-103819966D01*
X145555050Y-103766091D01*
X145366488Y-103577529D01*
X145258739Y-103685279D01*
X145851361Y-103577529D02*
X145285676Y-103011844D01*
X146174610Y-103254280D01*
X145608925Y-102688595D01*
X146443984Y-102984906D02*
X145878299Y-102419221D01*
X146012986Y-102284534D01*
X146120735Y-102230659D01*
X146228485Y-102230659D01*
X146309297Y-102257597D01*
X146443984Y-102338409D01*
X146524796Y-102419221D01*
X146605609Y-102553908D01*
X146632546Y-102634720D01*
X146632546Y-102742470D01*
X146578671Y-102850219D01*
X146443984Y-102984906D01*
X170643239Y-103308155D02*
X170562427Y-103335093D01*
X170481615Y-103415905D01*
X170427740Y-103523654D01*
X170427740Y-103631404D01*
X170454678Y-103712216D01*
X170535490Y-103846903D01*
X170616302Y-103927715D01*
X170750989Y-104008528D01*
X170831801Y-104035465D01*
X170939551Y-104035465D01*
X171047300Y-103981590D01*
X171101175Y-103927715D01*
X171155050Y-103819966D01*
X171155050Y-103766091D01*
X170966488Y-103577529D01*
X170858739Y-103685279D01*
X171451361Y-103577529D02*
X170885676Y-103011844D01*
X171774610Y-103254280D01*
X171208925Y-102688595D01*
X172043984Y-102984906D02*
X171478299Y-102419221D01*
X171612986Y-102284534D01*
X171720735Y-102230659D01*
X171828485Y-102230659D01*
X171909297Y-102257597D01*
X172043984Y-102338409D01*
X172124796Y-102419221D01*
X172205609Y-102553908D01*
X172232546Y-102634720D01*
X172232546Y-102742470D01*
X172178671Y-102850219D01*
X172043984Y-102984906D01*
X170711869Y-86343773D02*
X170981243Y-86074399D01*
X170819618Y-86559272D02*
X170442495Y-85805025D01*
X171196742Y-86182149D01*
X171385304Y-85993587D02*
X170819618Y-85427902D01*
X170954305Y-85293215D01*
X171062055Y-85239340D01*
X171169804Y-85239340D01*
X171250617Y-85266277D01*
X171385304Y-85347089D01*
X171466116Y-85427902D01*
X171546928Y-85562589D01*
X171573865Y-85643401D01*
X171573865Y-85751150D01*
X171519991Y-85858900D01*
X171385304Y-85993587D01*
X172220363Y-85050778D02*
X172220363Y-85104653D01*
X172166488Y-85212402D01*
X172112613Y-85266277D01*
X172004864Y-85320152D01*
X171897114Y-85320152D01*
X171816302Y-85293215D01*
X171681615Y-85212402D01*
X171600803Y-85131590D01*
X171519991Y-84996903D01*
X171493053Y-84916091D01*
X171493053Y-84808341D01*
X171546928Y-84700592D01*
X171600803Y-84646717D01*
X171708552Y-84592842D01*
X171762427Y-84592842D01*
X172435862Y-85050778D02*
X172866861Y-84619780D01*
X172301175Y-83946345D02*
X173055422Y-84323468D01*
X172678299Y-83569221D01*
X173755795Y-83623096D02*
X173297859Y-83542284D01*
X173432546Y-83946345D02*
X172866861Y-83380659D01*
X173082360Y-83165160D01*
X173163172Y-83138223D01*
X173217047Y-83138223D01*
X173297859Y-83165160D01*
X173378671Y-83245972D01*
X173405609Y-83326784D01*
X173405609Y-83380659D01*
X173378671Y-83461471D01*
X173163172Y-83676971D01*
X173701920Y-83084348D02*
X173890482Y-82895786D01*
X174267605Y-83111285D02*
X173998231Y-83380659D01*
X173432546Y-82814974D01*
X173701920Y-82545600D01*
X174402292Y-82383975D02*
X174213731Y-82572537D01*
X174510042Y-82868849D02*
X173944357Y-82303163D01*
X174213731Y-82033789D01*
X144500803Y-118790592D02*
X144419991Y-118817529D01*
X144339178Y-118898341D01*
X144285304Y-119006091D01*
X144285304Y-119113841D01*
X144312241Y-119194653D01*
X144393053Y-119329340D01*
X144473865Y-119410152D01*
X144608552Y-119490964D01*
X144689365Y-119517902D01*
X144797114Y-119517902D01*
X144904864Y-119464027D01*
X144958739Y-119410152D01*
X145012613Y-119302402D01*
X145012613Y-119248528D01*
X144824052Y-119059966D01*
X144716302Y-119167715D01*
X145308925Y-119059966D02*
X144743239Y-118494280D01*
X144958739Y-118278781D01*
X145039551Y-118251844D01*
X145093426Y-118251844D01*
X145174238Y-118278781D01*
X145255050Y-118359593D01*
X145281987Y-118440406D01*
X145281987Y-118494280D01*
X145255050Y-118575093D01*
X145039551Y-118790592D01*
X146170922Y-118197969D02*
X145847673Y-118521218D01*
X146009297Y-118359593D02*
X145443612Y-117793908D01*
X145470549Y-117928595D01*
X145470549Y-118036345D01*
X145443612Y-118117157D01*
X146278671Y-117335972D02*
X146655795Y-117713096D01*
X145928485Y-117255160D02*
X146197859Y-117793908D01*
X146548045Y-117443722D01*
X170643239Y-77908155D02*
X170562427Y-77935093D01*
X170481615Y-78015905D01*
X170427740Y-78123654D01*
X170427740Y-78231404D01*
X170454678Y-78312216D01*
X170535490Y-78446903D01*
X170616302Y-78527715D01*
X170750989Y-78608528D01*
X170831801Y-78635465D01*
X170939551Y-78635465D01*
X171047300Y-78581590D01*
X171101175Y-78527715D01*
X171155050Y-78419966D01*
X171155050Y-78366091D01*
X170966488Y-78177529D01*
X170858739Y-78285279D01*
X171451361Y-78177529D02*
X170885676Y-77611844D01*
X171774610Y-77854280D01*
X171208925Y-77288595D01*
X172043984Y-77584906D02*
X171478299Y-77019221D01*
X171612986Y-76884534D01*
X171720735Y-76830659D01*
X171828485Y-76830659D01*
X171909297Y-76857597D01*
X172043984Y-76938409D01*
X172124796Y-77019221D01*
X172205609Y-77153908D01*
X172232546Y-77234720D01*
X172232546Y-77342470D01*
X172178671Y-77450219D01*
X172043984Y-77584906D01*
X144546803Y-121330592D02*
X144465991Y-121357529D01*
X144385178Y-121438341D01*
X144331304Y-121546091D01*
X144331304Y-121653841D01*
X144358241Y-121734653D01*
X144439053Y-121869340D01*
X144519865Y-121950152D01*
X144654552Y-122030964D01*
X144735365Y-122057902D01*
X144843114Y-122057902D01*
X144950864Y-122004027D01*
X145004739Y-121950152D01*
X145058613Y-121842402D01*
X145058613Y-121788528D01*
X144870052Y-121599966D01*
X144762302Y-121707715D01*
X145354925Y-121599966D02*
X144789239Y-121034280D01*
X145004739Y-120818781D01*
X145085551Y-120791844D01*
X145139426Y-120791844D01*
X145220238Y-120818781D01*
X145301050Y-120899593D01*
X145327987Y-120980406D01*
X145327987Y-121034280D01*
X145301050Y-121115093D01*
X145085551Y-121330592D01*
X146216922Y-120737969D02*
X145893673Y-121061218D01*
X146055297Y-120899593D02*
X145489612Y-120333908D01*
X145516549Y-120468595D01*
X145516549Y-120576345D01*
X145489612Y-120657157D01*
X146163047Y-119660473D02*
X145893673Y-119929847D01*
X146136109Y-120226158D01*
X146136109Y-120172284D01*
X146163047Y-120091471D01*
X146297734Y-119956784D01*
X146378546Y-119929847D01*
X146432421Y-119929847D01*
X146513233Y-119956784D01*
X146647920Y-120091471D01*
X146674857Y-120172284D01*
X146674857Y-120226158D01*
X146647920Y-120306971D01*
X146513233Y-120441658D01*
X146432421Y-120468595D01*
X146378546Y-120468595D01*
X170654803Y-108630592D02*
X170573991Y-108657529D01*
X170493178Y-108738341D01*
X170439304Y-108846091D01*
X170439304Y-108953841D01*
X170466241Y-109034653D01*
X170547053Y-109169340D01*
X170627865Y-109250152D01*
X170762552Y-109330964D01*
X170843365Y-109357902D01*
X170951114Y-109357902D01*
X171058864Y-109304027D01*
X171112739Y-109250152D01*
X171166613Y-109142402D01*
X171166613Y-109088528D01*
X170978052Y-108899966D01*
X170870302Y-109007715D01*
X171462925Y-108899966D02*
X170897239Y-108334280D01*
X171112739Y-108118781D01*
X171193551Y-108091844D01*
X171247426Y-108091844D01*
X171328238Y-108118781D01*
X171409050Y-108199593D01*
X171435987Y-108280406D01*
X171435987Y-108334280D01*
X171409050Y-108415093D01*
X171193551Y-108630592D01*
X171489862Y-107849407D02*
X171489862Y-107795532D01*
X171516800Y-107714720D01*
X171651487Y-107580033D01*
X171732299Y-107553096D01*
X171786174Y-107553096D01*
X171866986Y-107580033D01*
X171920861Y-107633908D01*
X171974735Y-107741658D01*
X171974735Y-108388155D01*
X172324922Y-108037969D01*
X172109422Y-107122097D02*
X172163297Y-107068223D01*
X172244109Y-107041285D01*
X172297984Y-107041285D01*
X172378796Y-107068223D01*
X172513483Y-107149035D01*
X172648170Y-107283722D01*
X172728983Y-107418409D01*
X172755920Y-107499221D01*
X172755920Y-107553096D01*
X172728983Y-107633908D01*
X172675108Y-107687783D01*
X172594296Y-107714720D01*
X172540421Y-107714720D01*
X172459609Y-107687783D01*
X172324922Y-107606971D01*
X172190235Y-107472284D01*
X172109422Y-107337597D01*
X172082485Y-107256784D01*
X172082485Y-107202910D01*
X172109422Y-107122097D01*
X170477554Y-75879966D02*
X171231801Y-76257089D01*
X170854678Y-75502842D01*
X171555050Y-75879966D02*
X171662800Y-75826091D01*
X171797487Y-75691404D01*
X171824424Y-75610592D01*
X171824424Y-75556717D01*
X171797487Y-75475905D01*
X171743612Y-75422030D01*
X171662800Y-75395093D01*
X171608925Y-75395093D01*
X171528113Y-75422030D01*
X171393426Y-75502842D01*
X171312613Y-75529780D01*
X171258739Y-75529780D01*
X171177926Y-75502842D01*
X171124052Y-75448967D01*
X171097114Y-75368155D01*
X171097114Y-75314280D01*
X171124052Y-75233468D01*
X171258739Y-75098781D01*
X171366488Y-75044906D01*
X171986048Y-74964094D02*
X172255422Y-75233468D01*
X171501175Y-74856345D02*
X171986048Y-74964094D01*
X171878299Y-74479221D01*
X172578671Y-74856345D02*
X172686421Y-74802470D01*
X172821108Y-74667783D01*
X172848045Y-74586971D01*
X172848045Y-74533096D01*
X172821108Y-74452284D01*
X172767233Y-74398409D01*
X172686421Y-74371471D01*
X172632546Y-74371471D01*
X172551734Y-74398409D01*
X172417047Y-74479221D01*
X172336235Y-74506158D01*
X172282360Y-74506158D01*
X172201548Y-74479221D01*
X172147673Y-74425346D01*
X172120735Y-74344534D01*
X172120735Y-74290659D01*
X172147673Y-74209847D01*
X172282360Y-74075160D01*
X172390109Y-74021285D01*
X145070177Y-85501218D02*
X144989365Y-85528155D01*
X144908552Y-85608967D01*
X144854678Y-85716717D01*
X144854678Y-85824467D01*
X144881615Y-85905279D01*
X144962427Y-86039966D01*
X145043239Y-86120778D01*
X145177926Y-86201590D01*
X145258739Y-86228528D01*
X145366488Y-86228528D01*
X145474238Y-86174653D01*
X145528113Y-86120778D01*
X145581987Y-86013028D01*
X145581987Y-85959154D01*
X145393426Y-85770592D01*
X145285676Y-85878341D01*
X145878299Y-85770592D02*
X145312613Y-85204906D01*
X145528113Y-84989407D01*
X145608925Y-84962470D01*
X145662800Y-84962470D01*
X145743612Y-84989407D01*
X145824424Y-85070219D01*
X145851361Y-85151032D01*
X145851361Y-85204906D01*
X145824424Y-85285719D01*
X145608925Y-85501218D01*
X146309297Y-84585346D02*
X146686421Y-84962470D01*
X145959111Y-84504534D02*
X146228485Y-85043282D01*
X146578671Y-84693096D01*
X170446928Y-83300592D02*
X170797114Y-82950406D01*
X170824052Y-83354467D01*
X170904864Y-83273654D01*
X170985676Y-83246717D01*
X171039551Y-83246717D01*
X171120363Y-83273654D01*
X171255050Y-83408341D01*
X171281987Y-83489154D01*
X171281987Y-83543028D01*
X171255050Y-83623841D01*
X171093426Y-83785465D01*
X171012613Y-83812402D01*
X170958739Y-83812402D01*
X170958739Y-82788781D02*
X171712986Y-83165905D01*
X171335862Y-82411658D01*
X171470549Y-82276971D02*
X171820735Y-81926784D01*
X171847673Y-82330845D01*
X171928485Y-82250033D01*
X172009297Y-82223096D01*
X172063172Y-82223096D01*
X172143984Y-82250033D01*
X172278671Y-82384720D01*
X172305609Y-82465532D01*
X172305609Y-82519407D01*
X172278671Y-82600219D01*
X172117047Y-82761844D01*
X172036235Y-82788781D01*
X171982360Y-82788781D01*
X145043239Y-90608155D02*
X144962427Y-90635093D01*
X144881615Y-90715905D01*
X144827740Y-90823654D01*
X144827740Y-90931404D01*
X144854678Y-91012216D01*
X144935490Y-91146903D01*
X145016302Y-91227715D01*
X145150989Y-91308528D01*
X145231801Y-91335465D01*
X145339551Y-91335465D01*
X145447300Y-91281590D01*
X145501175Y-91227715D01*
X145555050Y-91119966D01*
X145555050Y-91066091D01*
X145366488Y-90877529D01*
X145258739Y-90985279D01*
X145851361Y-90877529D02*
X145285676Y-90311844D01*
X146174610Y-90554280D01*
X145608925Y-89988595D01*
X146443984Y-90284906D02*
X145878299Y-89719221D01*
X146012986Y-89584534D01*
X146120735Y-89530659D01*
X146228485Y-89530659D01*
X146309297Y-89557597D01*
X146443984Y-89638409D01*
X146524796Y-89719221D01*
X146605609Y-89853908D01*
X146632546Y-89934720D01*
X146632546Y-90042470D01*
X146578671Y-90150219D01*
X146443984Y-90284906D01*
X170654803Y-101010592D02*
X170573991Y-101037529D01*
X170493178Y-101118341D01*
X170439304Y-101226091D01*
X170439304Y-101333841D01*
X170466241Y-101414653D01*
X170547053Y-101549340D01*
X170627865Y-101630152D01*
X170762552Y-101710964D01*
X170843365Y-101737902D01*
X170951114Y-101737902D01*
X171058864Y-101684027D01*
X171112739Y-101630152D01*
X171166613Y-101522402D01*
X171166613Y-101468528D01*
X170978052Y-101279966D01*
X170870302Y-101387715D01*
X171462925Y-101279966D02*
X170897239Y-100714280D01*
X171112739Y-100498781D01*
X171193551Y-100471844D01*
X171247426Y-100471844D01*
X171328238Y-100498781D01*
X171409050Y-100579593D01*
X171435987Y-100660406D01*
X171435987Y-100714280D01*
X171409050Y-100795093D01*
X171193551Y-101010592D01*
X171489862Y-100229407D02*
X171489862Y-100175532D01*
X171516800Y-100094720D01*
X171651487Y-99960033D01*
X171732299Y-99933096D01*
X171786174Y-99933096D01*
X171866986Y-99960033D01*
X171920861Y-100013908D01*
X171974735Y-100121658D01*
X171974735Y-100768155D01*
X172324922Y-100417969D01*
X172028610Y-99690659D02*
X172028610Y-99636784D01*
X172055548Y-99555972D01*
X172190235Y-99421285D01*
X172271047Y-99394348D01*
X172324922Y-99394348D01*
X172405734Y-99421285D01*
X172459609Y-99475160D01*
X172513483Y-99582910D01*
X172513483Y-100229407D01*
X172863670Y-99879221D01*
%TO.C,R23*%
X117314461Y-89222857D02*
X116838271Y-89556190D01*
X117314461Y-89794285D02*
X116314461Y-89794285D01*
X116314461Y-89413333D01*
X116362081Y-89318095D01*
X116409700Y-89270476D01*
X116504938Y-89222857D01*
X116647795Y-89222857D01*
X116743033Y-89270476D01*
X116790652Y-89318095D01*
X116838271Y-89413333D01*
X116838271Y-89794285D01*
X116409700Y-88841904D02*
X116362081Y-88794285D01*
X116314461Y-88699047D01*
X116314461Y-88460952D01*
X116362081Y-88365714D01*
X116409700Y-88318095D01*
X116504938Y-88270476D01*
X116600176Y-88270476D01*
X116743033Y-88318095D01*
X117314461Y-88889523D01*
X117314461Y-88270476D01*
X116314461Y-87937142D02*
X116314461Y-87318095D01*
X116695414Y-87651428D01*
X116695414Y-87508571D01*
X116743033Y-87413333D01*
X116790652Y-87365714D01*
X116885890Y-87318095D01*
X117123985Y-87318095D01*
X117219223Y-87365714D01*
X117266842Y-87413333D01*
X117314461Y-87508571D01*
X117314461Y-87794285D01*
X117266842Y-87889523D01*
X117219223Y-87937142D01*
%TO.C,R37*%
X129439461Y-115897857D02*
X128963271Y-116231190D01*
X129439461Y-116469285D02*
X128439461Y-116469285D01*
X128439461Y-116088333D01*
X128487081Y-115993095D01*
X128534700Y-115945476D01*
X128629938Y-115897857D01*
X128772795Y-115897857D01*
X128868033Y-115945476D01*
X128915652Y-115993095D01*
X128963271Y-116088333D01*
X128963271Y-116469285D01*
X128439461Y-115564523D02*
X128439461Y-114945476D01*
X128820414Y-115278809D01*
X128820414Y-115135952D01*
X128868033Y-115040714D01*
X128915652Y-114993095D01*
X129010890Y-114945476D01*
X129248985Y-114945476D01*
X129344223Y-114993095D01*
X129391842Y-115040714D01*
X129439461Y-115135952D01*
X129439461Y-115421666D01*
X129391842Y-115516904D01*
X129344223Y-115564523D01*
X128439461Y-114612142D02*
X128439461Y-113945476D01*
X129439461Y-114374047D01*
%TO.C,R25*%
X117429461Y-100032857D02*
X116953271Y-100366190D01*
X117429461Y-100604285D02*
X116429461Y-100604285D01*
X116429461Y-100223333D01*
X116477081Y-100128095D01*
X116524700Y-100080476D01*
X116619938Y-100032857D01*
X116762795Y-100032857D01*
X116858033Y-100080476D01*
X116905652Y-100128095D01*
X116953271Y-100223333D01*
X116953271Y-100604285D01*
X116524700Y-99651904D02*
X116477081Y-99604285D01*
X116429461Y-99509047D01*
X116429461Y-99270952D01*
X116477081Y-99175714D01*
X116524700Y-99128095D01*
X116619938Y-99080476D01*
X116715176Y-99080476D01*
X116858033Y-99128095D01*
X117429461Y-99699523D01*
X117429461Y-99080476D01*
X116429461Y-98175714D02*
X116429461Y-98651904D01*
X116905652Y-98699523D01*
X116858033Y-98651904D01*
X116810414Y-98556666D01*
X116810414Y-98318571D01*
X116858033Y-98223333D01*
X116905652Y-98175714D01*
X117000890Y-98128095D01*
X117238985Y-98128095D01*
X117334223Y-98175714D01*
X117381842Y-98223333D01*
X117429461Y-98318571D01*
X117429461Y-98556666D01*
X117381842Y-98651904D01*
X117334223Y-98699523D01*
%TO.C,R17*%
X113014461Y-110522857D02*
X112538271Y-110856190D01*
X113014461Y-111094285D02*
X112014461Y-111094285D01*
X112014461Y-110713333D01*
X112062081Y-110618095D01*
X112109700Y-110570476D01*
X112204938Y-110522857D01*
X112347795Y-110522857D01*
X112443033Y-110570476D01*
X112490652Y-110618095D01*
X112538271Y-110713333D01*
X112538271Y-111094285D01*
X113014461Y-109570476D02*
X113014461Y-110141904D01*
X113014461Y-109856190D02*
X112014461Y-109856190D01*
X112157319Y-109951428D01*
X112252557Y-110046666D01*
X112300176Y-110141904D01*
X112014461Y-109237142D02*
X112014461Y-108570476D01*
X113014461Y-108999047D01*
%TO.C,R12*%
X113009461Y-84112857D02*
X112533271Y-84446190D01*
X113009461Y-84684285D02*
X112009461Y-84684285D01*
X112009461Y-84303333D01*
X112057081Y-84208095D01*
X112104700Y-84160476D01*
X112199938Y-84112857D01*
X112342795Y-84112857D01*
X112438033Y-84160476D01*
X112485652Y-84208095D01*
X112533271Y-84303333D01*
X112533271Y-84684285D01*
X113009461Y-83160476D02*
X113009461Y-83731904D01*
X113009461Y-83446190D02*
X112009461Y-83446190D01*
X112152319Y-83541428D01*
X112247557Y-83636666D01*
X112295176Y-83731904D01*
X112104700Y-82779523D02*
X112057081Y-82731904D01*
X112009461Y-82636666D01*
X112009461Y-82398571D01*
X112057081Y-82303333D01*
X112104700Y-82255714D01*
X112199938Y-82208095D01*
X112295176Y-82208095D01*
X112438033Y-82255714D01*
X113009461Y-82827142D01*
X113009461Y-82208095D01*
%TO.C,R13*%
X112939461Y-89292857D02*
X112463271Y-89626190D01*
X112939461Y-89864285D02*
X111939461Y-89864285D01*
X111939461Y-89483333D01*
X111987081Y-89388095D01*
X112034700Y-89340476D01*
X112129938Y-89292857D01*
X112272795Y-89292857D01*
X112368033Y-89340476D01*
X112415652Y-89388095D01*
X112463271Y-89483333D01*
X112463271Y-89864285D01*
X112939461Y-88340476D02*
X112939461Y-88911904D01*
X112939461Y-88626190D02*
X111939461Y-88626190D01*
X112082319Y-88721428D01*
X112177557Y-88816666D01*
X112225176Y-88911904D01*
X111939461Y-88007142D02*
X111939461Y-87388095D01*
X112320414Y-87721428D01*
X112320414Y-87578571D01*
X112368033Y-87483333D01*
X112415652Y-87435714D01*
X112510890Y-87388095D01*
X112748985Y-87388095D01*
X112844223Y-87435714D01*
X112891842Y-87483333D01*
X112939461Y-87578571D01*
X112939461Y-87864285D01*
X112891842Y-87959523D01*
X112844223Y-88007142D01*
%TO.C,R18*%
X113049461Y-115772857D02*
X112573271Y-116106190D01*
X113049461Y-116344285D02*
X112049461Y-116344285D01*
X112049461Y-115963333D01*
X112097081Y-115868095D01*
X112144700Y-115820476D01*
X112239938Y-115772857D01*
X112382795Y-115772857D01*
X112478033Y-115820476D01*
X112525652Y-115868095D01*
X112573271Y-115963333D01*
X112573271Y-116344285D01*
X113049461Y-114820476D02*
X113049461Y-115391904D01*
X113049461Y-115106190D02*
X112049461Y-115106190D01*
X112192319Y-115201428D01*
X112287557Y-115296666D01*
X112335176Y-115391904D01*
X112478033Y-114249047D02*
X112430414Y-114344285D01*
X112382795Y-114391904D01*
X112287557Y-114439523D01*
X112239938Y-114439523D01*
X112144700Y-114391904D01*
X112097081Y-114344285D01*
X112049461Y-114249047D01*
X112049461Y-114058571D01*
X112097081Y-113963333D01*
X112144700Y-113915714D01*
X112239938Y-113868095D01*
X112287557Y-113868095D01*
X112382795Y-113915714D01*
X112430414Y-113963333D01*
X112478033Y-114058571D01*
X112478033Y-114249047D01*
X112525652Y-114344285D01*
X112573271Y-114391904D01*
X112668509Y-114439523D01*
X112858985Y-114439523D01*
X112954223Y-114391904D01*
X113001842Y-114344285D01*
X113049461Y-114249047D01*
X113049461Y-114058571D01*
X113001842Y-113963333D01*
X112954223Y-113915714D01*
X112858985Y-113868095D01*
X112668509Y-113868095D01*
X112573271Y-113915714D01*
X112525652Y-113963333D01*
X112478033Y-114058571D01*
%TO.C,R34*%
X129389461Y-100047857D02*
X128913271Y-100381190D01*
X129389461Y-100619285D02*
X128389461Y-100619285D01*
X128389461Y-100238333D01*
X128437081Y-100143095D01*
X128484700Y-100095476D01*
X128579938Y-100047857D01*
X128722795Y-100047857D01*
X128818033Y-100095476D01*
X128865652Y-100143095D01*
X128913271Y-100238333D01*
X128913271Y-100619285D01*
X128389461Y-99714523D02*
X128389461Y-99095476D01*
X128770414Y-99428809D01*
X128770414Y-99285952D01*
X128818033Y-99190714D01*
X128865652Y-99143095D01*
X128960890Y-99095476D01*
X129198985Y-99095476D01*
X129294223Y-99143095D01*
X129341842Y-99190714D01*
X129389461Y-99285952D01*
X129389461Y-99571666D01*
X129341842Y-99666904D01*
X129294223Y-99714523D01*
X128722795Y-98238333D02*
X129389461Y-98238333D01*
X128341842Y-98476428D02*
X129056128Y-98714523D01*
X129056128Y-98095476D01*
%TO.C,R15*%
X112939461Y-100032857D02*
X112463271Y-100366190D01*
X112939461Y-100604285D02*
X111939461Y-100604285D01*
X111939461Y-100223333D01*
X111987081Y-100128095D01*
X112034700Y-100080476D01*
X112129938Y-100032857D01*
X112272795Y-100032857D01*
X112368033Y-100080476D01*
X112415652Y-100128095D01*
X112463271Y-100223333D01*
X112463271Y-100604285D01*
X112939461Y-99080476D02*
X112939461Y-99651904D01*
X112939461Y-99366190D02*
X111939461Y-99366190D01*
X112082319Y-99461428D01*
X112177557Y-99556666D01*
X112225176Y-99651904D01*
X111939461Y-98175714D02*
X111939461Y-98651904D01*
X112415652Y-98699523D01*
X112368033Y-98651904D01*
X112320414Y-98556666D01*
X112320414Y-98318571D01*
X112368033Y-98223333D01*
X112415652Y-98175714D01*
X112510890Y-98128095D01*
X112748985Y-98128095D01*
X112844223Y-98175714D01*
X112891842Y-98223333D01*
X112939461Y-98318571D01*
X112939461Y-98556666D01*
X112891842Y-98651904D01*
X112844223Y-98699523D01*
%TO.C,R38*%
X129469461Y-121057857D02*
X128993271Y-121391190D01*
X129469461Y-121629285D02*
X128469461Y-121629285D01*
X128469461Y-121248333D01*
X128517081Y-121153095D01*
X128564700Y-121105476D01*
X128659938Y-121057857D01*
X128802795Y-121057857D01*
X128898033Y-121105476D01*
X128945652Y-121153095D01*
X128993271Y-121248333D01*
X128993271Y-121629285D01*
X128469461Y-120724523D02*
X128469461Y-120105476D01*
X128850414Y-120438809D01*
X128850414Y-120295952D01*
X128898033Y-120200714D01*
X128945652Y-120153095D01*
X129040890Y-120105476D01*
X129278985Y-120105476D01*
X129374223Y-120153095D01*
X129421842Y-120200714D01*
X129469461Y-120295952D01*
X129469461Y-120581666D01*
X129421842Y-120676904D01*
X129374223Y-120724523D01*
X128898033Y-119534047D02*
X128850414Y-119629285D01*
X128802795Y-119676904D01*
X128707557Y-119724523D01*
X128659938Y-119724523D01*
X128564700Y-119676904D01*
X128517081Y-119629285D01*
X128469461Y-119534047D01*
X128469461Y-119343571D01*
X128517081Y-119248333D01*
X128564700Y-119200714D01*
X128659938Y-119153095D01*
X128707557Y-119153095D01*
X128802795Y-119200714D01*
X128850414Y-119248333D01*
X128898033Y-119343571D01*
X128898033Y-119534047D01*
X128945652Y-119629285D01*
X128993271Y-119676904D01*
X129088509Y-119724523D01*
X129278985Y-119724523D01*
X129374223Y-119676904D01*
X129421842Y-119629285D01*
X129469461Y-119534047D01*
X129469461Y-119343571D01*
X129421842Y-119248333D01*
X129374223Y-119200714D01*
X129278985Y-119153095D01*
X129088509Y-119153095D01*
X128993271Y-119200714D01*
X128945652Y-119248333D01*
X128898033Y-119343571D01*
%TO.C,R33*%
X129419461Y-94737857D02*
X128943271Y-95071190D01*
X129419461Y-95309285D02*
X128419461Y-95309285D01*
X128419461Y-94928333D01*
X128467081Y-94833095D01*
X128514700Y-94785476D01*
X128609938Y-94737857D01*
X128752795Y-94737857D01*
X128848033Y-94785476D01*
X128895652Y-94833095D01*
X128943271Y-94928333D01*
X128943271Y-95309285D01*
X128419461Y-94404523D02*
X128419461Y-93785476D01*
X128800414Y-94118809D01*
X128800414Y-93975952D01*
X128848033Y-93880714D01*
X128895652Y-93833095D01*
X128990890Y-93785476D01*
X129228985Y-93785476D01*
X129324223Y-93833095D01*
X129371842Y-93880714D01*
X129419461Y-93975952D01*
X129419461Y-94261666D01*
X129371842Y-94356904D01*
X129324223Y-94404523D01*
X128419461Y-93452142D02*
X128419461Y-92833095D01*
X128800414Y-93166428D01*
X128800414Y-93023571D01*
X128848033Y-92928333D01*
X128895652Y-92880714D01*
X128990890Y-92833095D01*
X129228985Y-92833095D01*
X129324223Y-92880714D01*
X129371842Y-92928333D01*
X129419461Y-93023571D01*
X129419461Y-93309285D01*
X129371842Y-93404523D01*
X129324223Y-93452142D01*
%TO.C,SW1*%
X189579747Y-82211761D02*
X189722604Y-82259380D01*
X189960700Y-82259380D01*
X190055938Y-82211761D01*
X190103557Y-82164142D01*
X190151176Y-82068904D01*
X190151176Y-81973666D01*
X190103557Y-81878428D01*
X190055938Y-81830809D01*
X189960700Y-81783190D01*
X189770223Y-81735571D01*
X189674985Y-81687952D01*
X189627366Y-81640333D01*
X189579747Y-81545095D01*
X189579747Y-81449857D01*
X189627366Y-81354619D01*
X189674985Y-81307000D01*
X189770223Y-81259380D01*
X190008319Y-81259380D01*
X190151176Y-81307000D01*
X190484509Y-81259380D02*
X190722604Y-82259380D01*
X190913081Y-81545095D01*
X191103557Y-82259380D01*
X191341652Y-81259380D01*
X192246414Y-82259380D02*
X191674985Y-82259380D01*
X191960700Y-82259380D02*
X191960700Y-81259380D01*
X191865461Y-81402238D01*
X191770223Y-81497476D01*
X191674985Y-81545095D01*
%TO.C,C3*%
X176014414Y-77828142D02*
X175966795Y-77875761D01*
X175823938Y-77923380D01*
X175728700Y-77923380D01*
X175585842Y-77875761D01*
X175490604Y-77780523D01*
X175442985Y-77685285D01*
X175395366Y-77494809D01*
X175395366Y-77351952D01*
X175442985Y-77161476D01*
X175490604Y-77066238D01*
X175585842Y-76971000D01*
X175728700Y-76923380D01*
X175823938Y-76923380D01*
X175966795Y-76971000D01*
X176014414Y-77018619D01*
X176347747Y-76923380D02*
X176966795Y-76923380D01*
X176633461Y-77304333D01*
X176776319Y-77304333D01*
X176871557Y-77351952D01*
X176919176Y-77399571D01*
X176966795Y-77494809D01*
X176966795Y-77732904D01*
X176919176Y-77828142D01*
X176871557Y-77875761D01*
X176776319Y-77923380D01*
X176490604Y-77923380D01*
X176395366Y-77875761D01*
X176347747Y-77828142D01*
%TO.C,R29*%
X128919461Y-73317857D02*
X128443271Y-73651190D01*
X128919461Y-73889285D02*
X127919461Y-73889285D01*
X127919461Y-73508333D01*
X127967081Y-73413095D01*
X128014700Y-73365476D01*
X128109938Y-73317857D01*
X128252795Y-73317857D01*
X128348033Y-73365476D01*
X128395652Y-73413095D01*
X128443271Y-73508333D01*
X128443271Y-73889285D01*
X128014700Y-72936904D02*
X127967081Y-72889285D01*
X127919461Y-72794047D01*
X127919461Y-72555952D01*
X127967081Y-72460714D01*
X128014700Y-72413095D01*
X128109938Y-72365476D01*
X128205176Y-72365476D01*
X128348033Y-72413095D01*
X128919461Y-72984523D01*
X128919461Y-72365476D01*
X128919461Y-71889285D02*
X128919461Y-71698809D01*
X128871842Y-71603571D01*
X128824223Y-71555952D01*
X128681366Y-71460714D01*
X128490890Y-71413095D01*
X128109938Y-71413095D01*
X128014700Y-71460714D01*
X127967081Y-71508333D01*
X127919461Y-71603571D01*
X127919461Y-71794047D01*
X127967081Y-71889285D01*
X128014700Y-71936904D01*
X128109938Y-71984523D01*
X128348033Y-71984523D01*
X128443271Y-71936904D01*
X128490890Y-71889285D01*
X128538509Y-71794047D01*
X128538509Y-71603571D01*
X128490890Y-71508333D01*
X128443271Y-71460714D01*
X128348033Y-71413095D01*
%TO.C,R10*%
X112279461Y-73182857D02*
X111803271Y-73516190D01*
X112279461Y-73754285D02*
X111279461Y-73754285D01*
X111279461Y-73373333D01*
X111327081Y-73278095D01*
X111374700Y-73230476D01*
X111469938Y-73182857D01*
X111612795Y-73182857D01*
X111708033Y-73230476D01*
X111755652Y-73278095D01*
X111803271Y-73373333D01*
X111803271Y-73754285D01*
X112279461Y-72230476D02*
X112279461Y-72801904D01*
X112279461Y-72516190D02*
X111279461Y-72516190D01*
X111422319Y-72611428D01*
X111517557Y-72706666D01*
X111565176Y-72801904D01*
X111279461Y-71611428D02*
X111279461Y-71516190D01*
X111327081Y-71420952D01*
X111374700Y-71373333D01*
X111469938Y-71325714D01*
X111660414Y-71278095D01*
X111898509Y-71278095D01*
X112088985Y-71325714D01*
X112184223Y-71373333D01*
X112231842Y-71420952D01*
X112279461Y-71516190D01*
X112279461Y-71611428D01*
X112231842Y-71706666D01*
X112184223Y-71754285D01*
X112088985Y-71801904D01*
X111898509Y-71849523D01*
X111660414Y-71849523D01*
X111469938Y-71801904D01*
X111374700Y-71754285D01*
X111327081Y-71706666D01*
X111279461Y-71611428D01*
%TO.C,C2*%
X178300414Y-85448142D02*
X178252795Y-85495761D01*
X178109938Y-85543380D01*
X178014700Y-85543380D01*
X177871842Y-85495761D01*
X177776604Y-85400523D01*
X177728985Y-85305285D01*
X177681366Y-85114809D01*
X177681366Y-84971952D01*
X177728985Y-84781476D01*
X177776604Y-84686238D01*
X177871842Y-84591000D01*
X178014700Y-84543380D01*
X178109938Y-84543380D01*
X178252795Y-84591000D01*
X178300414Y-84638619D01*
X178681366Y-84638619D02*
X178728985Y-84591000D01*
X178824223Y-84543380D01*
X179062319Y-84543380D01*
X179157557Y-84591000D01*
X179205176Y-84638619D01*
X179252795Y-84733857D01*
X179252795Y-84829095D01*
X179205176Y-84971952D01*
X178633747Y-85543380D01*
X179252795Y-85543380D01*
%TO.C,R24*%
X117469461Y-94622857D02*
X116993271Y-94956190D01*
X117469461Y-95194285D02*
X116469461Y-95194285D01*
X116469461Y-94813333D01*
X116517081Y-94718095D01*
X116564700Y-94670476D01*
X116659938Y-94622857D01*
X116802795Y-94622857D01*
X116898033Y-94670476D01*
X116945652Y-94718095D01*
X116993271Y-94813333D01*
X116993271Y-95194285D01*
X116564700Y-94241904D02*
X116517081Y-94194285D01*
X116469461Y-94099047D01*
X116469461Y-93860952D01*
X116517081Y-93765714D01*
X116564700Y-93718095D01*
X116659938Y-93670476D01*
X116755176Y-93670476D01*
X116898033Y-93718095D01*
X117469461Y-94289523D01*
X117469461Y-93670476D01*
X116802795Y-92813333D02*
X117469461Y-92813333D01*
X116421842Y-93051428D02*
X117136128Y-93289523D01*
X117136128Y-92670476D01*
%TO.C,R28*%
X117469461Y-115722857D02*
X116993271Y-116056190D01*
X117469461Y-116294285D02*
X116469461Y-116294285D01*
X116469461Y-115913333D01*
X116517081Y-115818095D01*
X116564700Y-115770476D01*
X116659938Y-115722857D01*
X116802795Y-115722857D01*
X116898033Y-115770476D01*
X116945652Y-115818095D01*
X116993271Y-115913333D01*
X116993271Y-116294285D01*
X116564700Y-115341904D02*
X116517081Y-115294285D01*
X116469461Y-115199047D01*
X116469461Y-114960952D01*
X116517081Y-114865714D01*
X116564700Y-114818095D01*
X116659938Y-114770476D01*
X116755176Y-114770476D01*
X116898033Y-114818095D01*
X117469461Y-115389523D01*
X117469461Y-114770476D01*
X116898033Y-114199047D02*
X116850414Y-114294285D01*
X116802795Y-114341904D01*
X116707557Y-114389523D01*
X116659938Y-114389523D01*
X116564700Y-114341904D01*
X116517081Y-114294285D01*
X116469461Y-114199047D01*
X116469461Y-114008571D01*
X116517081Y-113913333D01*
X116564700Y-113865714D01*
X116659938Y-113818095D01*
X116707557Y-113818095D01*
X116802795Y-113865714D01*
X116850414Y-113913333D01*
X116898033Y-114008571D01*
X116898033Y-114199047D01*
X116945652Y-114294285D01*
X116993271Y-114341904D01*
X117088509Y-114389523D01*
X117278985Y-114389523D01*
X117374223Y-114341904D01*
X117421842Y-114294285D01*
X117469461Y-114199047D01*
X117469461Y-114008571D01*
X117421842Y-113913333D01*
X117374223Y-113865714D01*
X117278985Y-113818095D01*
X117088509Y-113818095D01*
X116993271Y-113865714D01*
X116945652Y-113913333D01*
X116898033Y-114008571D01*
%TO.C,C1*%
X160603333Y-126281142D02*
X160555714Y-126328761D01*
X160412857Y-126376380D01*
X160317619Y-126376380D01*
X160174761Y-126328761D01*
X160079523Y-126233523D01*
X160031904Y-126138285D01*
X159984285Y-125947809D01*
X159984285Y-125804952D01*
X160031904Y-125614476D01*
X160079523Y-125519238D01*
X160174761Y-125424000D01*
X160317619Y-125376380D01*
X160412857Y-125376380D01*
X160555714Y-125424000D01*
X160603333Y-125471619D01*
X161555714Y-126376380D02*
X160984285Y-126376380D01*
X161270000Y-126376380D02*
X161270000Y-125376380D01*
X161174761Y-125519238D01*
X161079523Y-125614476D01*
X160984285Y-125662095D01*
%TO.C,J1*%
X183623747Y-125352380D02*
X183623747Y-126066666D01*
X183576128Y-126209523D01*
X183480890Y-126304761D01*
X183338033Y-126352380D01*
X183242795Y-126352380D01*
X184623747Y-126352380D02*
X184052319Y-126352380D01*
X184338033Y-126352380D02*
X184338033Y-125352380D01*
X184242795Y-125495238D01*
X184147557Y-125590476D01*
X184052319Y-125638095D01*
%TO.C,R16*%
X112979461Y-105302857D02*
X112503271Y-105636190D01*
X112979461Y-105874285D02*
X111979461Y-105874285D01*
X111979461Y-105493333D01*
X112027081Y-105398095D01*
X112074700Y-105350476D01*
X112169938Y-105302857D01*
X112312795Y-105302857D01*
X112408033Y-105350476D01*
X112455652Y-105398095D01*
X112503271Y-105493333D01*
X112503271Y-105874285D01*
X112979461Y-104350476D02*
X112979461Y-104921904D01*
X112979461Y-104636190D02*
X111979461Y-104636190D01*
X112122319Y-104731428D01*
X112217557Y-104826666D01*
X112265176Y-104921904D01*
X111979461Y-103493333D02*
X111979461Y-103683809D01*
X112027081Y-103779047D01*
X112074700Y-103826666D01*
X112217557Y-103921904D01*
X112408033Y-103969523D01*
X112788985Y-103969523D01*
X112884223Y-103921904D01*
X112931842Y-103874285D01*
X112979461Y-103779047D01*
X112979461Y-103588571D01*
X112931842Y-103493333D01*
X112884223Y-103445714D01*
X112788985Y-103398095D01*
X112550890Y-103398095D01*
X112455652Y-103445714D01*
X112408033Y-103493333D01*
X112360414Y-103588571D01*
X112360414Y-103779047D01*
X112408033Y-103874285D01*
X112455652Y-103921904D01*
X112550890Y-103969523D01*
%TO.C,R11*%
X112509461Y-78282857D02*
X112033271Y-78616190D01*
X112509461Y-78854285D02*
X111509461Y-78854285D01*
X111509461Y-78473333D01*
X111557081Y-78378095D01*
X111604700Y-78330476D01*
X111699938Y-78282857D01*
X111842795Y-78282857D01*
X111938033Y-78330476D01*
X111985652Y-78378095D01*
X112033271Y-78473333D01*
X112033271Y-78854285D01*
X112509461Y-77330476D02*
X112509461Y-77901904D01*
X112509461Y-77616190D02*
X111509461Y-77616190D01*
X111652319Y-77711428D01*
X111747557Y-77806666D01*
X111795176Y-77901904D01*
X112509461Y-76378095D02*
X112509461Y-76949523D01*
X112509461Y-76663809D02*
X111509461Y-76663809D01*
X111652319Y-76759047D01*
X111747557Y-76854285D01*
X111795176Y-76949523D01*
%TO.C,R36*%
X129429461Y-110667857D02*
X128953271Y-111001190D01*
X129429461Y-111239285D02*
X128429461Y-111239285D01*
X128429461Y-110858333D01*
X128477081Y-110763095D01*
X128524700Y-110715476D01*
X128619938Y-110667857D01*
X128762795Y-110667857D01*
X128858033Y-110715476D01*
X128905652Y-110763095D01*
X128953271Y-110858333D01*
X128953271Y-111239285D01*
X128429461Y-110334523D02*
X128429461Y-109715476D01*
X128810414Y-110048809D01*
X128810414Y-109905952D01*
X128858033Y-109810714D01*
X128905652Y-109763095D01*
X129000890Y-109715476D01*
X129238985Y-109715476D01*
X129334223Y-109763095D01*
X129381842Y-109810714D01*
X129429461Y-109905952D01*
X129429461Y-110191666D01*
X129381842Y-110286904D01*
X129334223Y-110334523D01*
X128429461Y-108858333D02*
X128429461Y-109048809D01*
X128477081Y-109144047D01*
X128524700Y-109191666D01*
X128667557Y-109286904D01*
X128858033Y-109334523D01*
X129238985Y-109334523D01*
X129334223Y-109286904D01*
X129381842Y-109239285D01*
X129429461Y-109144047D01*
X129429461Y-108953571D01*
X129381842Y-108858333D01*
X129334223Y-108810714D01*
X129238985Y-108763095D01*
X129000890Y-108763095D01*
X128905652Y-108810714D01*
X128858033Y-108858333D01*
X128810414Y-108953571D01*
X128810414Y-109144047D01*
X128858033Y-109239285D01*
X128905652Y-109286904D01*
X129000890Y-109334523D01*
%TO.C,R31*%
X129159461Y-83897857D02*
X128683271Y-84231190D01*
X129159461Y-84469285D02*
X128159461Y-84469285D01*
X128159461Y-84088333D01*
X128207081Y-83993095D01*
X128254700Y-83945476D01*
X128349938Y-83897857D01*
X128492795Y-83897857D01*
X128588033Y-83945476D01*
X128635652Y-83993095D01*
X128683271Y-84088333D01*
X128683271Y-84469285D01*
X128159461Y-83564523D02*
X128159461Y-82945476D01*
X128540414Y-83278809D01*
X128540414Y-83135952D01*
X128588033Y-83040714D01*
X128635652Y-82993095D01*
X128730890Y-82945476D01*
X128968985Y-82945476D01*
X129064223Y-82993095D01*
X129111842Y-83040714D01*
X129159461Y-83135952D01*
X129159461Y-83421666D01*
X129111842Y-83516904D01*
X129064223Y-83564523D01*
X129159461Y-81993095D02*
X129159461Y-82564523D01*
X129159461Y-82278809D02*
X128159461Y-82278809D01*
X128302319Y-82374047D01*
X128397557Y-82469285D01*
X128445176Y-82564523D01*
%TO.C,R27*%
X117419461Y-110632857D02*
X116943271Y-110966190D01*
X117419461Y-111204285D02*
X116419461Y-111204285D01*
X116419461Y-110823333D01*
X116467081Y-110728095D01*
X116514700Y-110680476D01*
X116609938Y-110632857D01*
X116752795Y-110632857D01*
X116848033Y-110680476D01*
X116895652Y-110728095D01*
X116943271Y-110823333D01*
X116943271Y-111204285D01*
X116514700Y-110251904D02*
X116467081Y-110204285D01*
X116419461Y-110109047D01*
X116419461Y-109870952D01*
X116467081Y-109775714D01*
X116514700Y-109728095D01*
X116609938Y-109680476D01*
X116705176Y-109680476D01*
X116848033Y-109728095D01*
X117419461Y-110299523D01*
X117419461Y-109680476D01*
X116419461Y-109347142D02*
X116419461Y-108680476D01*
X117419461Y-109109047D01*
%TO.C,R32*%
X129109461Y-89427857D02*
X128633271Y-89761190D01*
X129109461Y-89999285D02*
X128109461Y-89999285D01*
X128109461Y-89618333D01*
X128157081Y-89523095D01*
X128204700Y-89475476D01*
X128299938Y-89427857D01*
X128442795Y-89427857D01*
X128538033Y-89475476D01*
X128585652Y-89523095D01*
X128633271Y-89618333D01*
X128633271Y-89999285D01*
X128109461Y-89094523D02*
X128109461Y-88475476D01*
X128490414Y-88808809D01*
X128490414Y-88665952D01*
X128538033Y-88570714D01*
X128585652Y-88523095D01*
X128680890Y-88475476D01*
X128918985Y-88475476D01*
X129014223Y-88523095D01*
X129061842Y-88570714D01*
X129109461Y-88665952D01*
X129109461Y-88951666D01*
X129061842Y-89046904D01*
X129014223Y-89094523D01*
X128204700Y-88094523D02*
X128157081Y-88046904D01*
X128109461Y-87951666D01*
X128109461Y-87713571D01*
X128157081Y-87618333D01*
X128204700Y-87570714D01*
X128299938Y-87523095D01*
X128395176Y-87523095D01*
X128538033Y-87570714D01*
X129109461Y-88142142D01*
X129109461Y-87523095D01*
%TO.C,R30*%
X129039461Y-78407857D02*
X128563271Y-78741190D01*
X129039461Y-78979285D02*
X128039461Y-78979285D01*
X128039461Y-78598333D01*
X128087081Y-78503095D01*
X128134700Y-78455476D01*
X128229938Y-78407857D01*
X128372795Y-78407857D01*
X128468033Y-78455476D01*
X128515652Y-78503095D01*
X128563271Y-78598333D01*
X128563271Y-78979285D01*
X128039461Y-78074523D02*
X128039461Y-77455476D01*
X128420414Y-77788809D01*
X128420414Y-77645952D01*
X128468033Y-77550714D01*
X128515652Y-77503095D01*
X128610890Y-77455476D01*
X128848985Y-77455476D01*
X128944223Y-77503095D01*
X128991842Y-77550714D01*
X129039461Y-77645952D01*
X129039461Y-77931666D01*
X128991842Y-78026904D01*
X128944223Y-78074523D01*
X128039461Y-76836428D02*
X128039461Y-76741190D01*
X128087081Y-76645952D01*
X128134700Y-76598333D01*
X128229938Y-76550714D01*
X128420414Y-76503095D01*
X128658509Y-76503095D01*
X128848985Y-76550714D01*
X128944223Y-76598333D01*
X128991842Y-76645952D01*
X129039461Y-76741190D01*
X129039461Y-76836428D01*
X128991842Y-76931666D01*
X128944223Y-76979285D01*
X128848985Y-77026904D01*
X128658509Y-77074523D01*
X128420414Y-77074523D01*
X128229938Y-77026904D01*
X128134700Y-76979285D01*
X128087081Y-76931666D01*
X128039461Y-76836428D01*
%TO.C,R19*%
X128849461Y-68187857D02*
X128373271Y-68521190D01*
X128849461Y-68759285D02*
X127849461Y-68759285D01*
X127849461Y-68378333D01*
X127897081Y-68283095D01*
X127944700Y-68235476D01*
X128039938Y-68187857D01*
X128182795Y-68187857D01*
X128278033Y-68235476D01*
X128325652Y-68283095D01*
X128373271Y-68378333D01*
X128373271Y-68759285D01*
X128849461Y-67235476D02*
X128849461Y-67806904D01*
X128849461Y-67521190D02*
X127849461Y-67521190D01*
X127992319Y-67616428D01*
X128087557Y-67711666D01*
X128135176Y-67806904D01*
X128849461Y-66759285D02*
X128849461Y-66568809D01*
X128801842Y-66473571D01*
X128754223Y-66425952D01*
X128611366Y-66330714D01*
X128420890Y-66283095D01*
X128039938Y-66283095D01*
X127944700Y-66330714D01*
X127897081Y-66378333D01*
X127849461Y-66473571D01*
X127849461Y-66664047D01*
X127897081Y-66759285D01*
X127944700Y-66806904D01*
X128039938Y-66854523D01*
X128278033Y-66854523D01*
X128373271Y-66806904D01*
X128420890Y-66759285D01*
X128468509Y-66664047D01*
X128468509Y-66473571D01*
X128420890Y-66378333D01*
X128373271Y-66330714D01*
X128278033Y-66283095D01*
%TO.C,R14*%
X112939461Y-94622857D02*
X112463271Y-94956190D01*
X112939461Y-95194285D02*
X111939461Y-95194285D01*
X111939461Y-94813333D01*
X111987081Y-94718095D01*
X112034700Y-94670476D01*
X112129938Y-94622857D01*
X112272795Y-94622857D01*
X112368033Y-94670476D01*
X112415652Y-94718095D01*
X112463271Y-94813333D01*
X112463271Y-95194285D01*
X112939461Y-93670476D02*
X112939461Y-94241904D01*
X112939461Y-93956190D02*
X111939461Y-93956190D01*
X112082319Y-94051428D01*
X112177557Y-94146666D01*
X112225176Y-94241904D01*
X112272795Y-92813333D02*
X112939461Y-92813333D01*
X111891842Y-93051428D02*
X112606128Y-93289523D01*
X112606128Y-92670476D01*
%TO.C,R22*%
X117189461Y-83962857D02*
X116713271Y-84296190D01*
X117189461Y-84534285D02*
X116189461Y-84534285D01*
X116189461Y-84153333D01*
X116237081Y-84058095D01*
X116284700Y-84010476D01*
X116379938Y-83962857D01*
X116522795Y-83962857D01*
X116618033Y-84010476D01*
X116665652Y-84058095D01*
X116713271Y-84153333D01*
X116713271Y-84534285D01*
X116284700Y-83581904D02*
X116237081Y-83534285D01*
X116189461Y-83439047D01*
X116189461Y-83200952D01*
X116237081Y-83105714D01*
X116284700Y-83058095D01*
X116379938Y-83010476D01*
X116475176Y-83010476D01*
X116618033Y-83058095D01*
X117189461Y-83629523D01*
X117189461Y-83010476D01*
X116284700Y-82629523D02*
X116237081Y-82581904D01*
X116189461Y-82486666D01*
X116189461Y-82248571D01*
X116237081Y-82153333D01*
X116284700Y-82105714D01*
X116379938Y-82058095D01*
X116475176Y-82058095D01*
X116618033Y-82105714D01*
X117189461Y-82677142D01*
X117189461Y-82058095D01*
%TO.C,R20*%
X117009461Y-73192857D02*
X116533271Y-73526190D01*
X117009461Y-73764285D02*
X116009461Y-73764285D01*
X116009461Y-73383333D01*
X116057081Y-73288095D01*
X116104700Y-73240476D01*
X116199938Y-73192857D01*
X116342795Y-73192857D01*
X116438033Y-73240476D01*
X116485652Y-73288095D01*
X116533271Y-73383333D01*
X116533271Y-73764285D01*
X116104700Y-72811904D02*
X116057081Y-72764285D01*
X116009461Y-72669047D01*
X116009461Y-72430952D01*
X116057081Y-72335714D01*
X116104700Y-72288095D01*
X116199938Y-72240476D01*
X116295176Y-72240476D01*
X116438033Y-72288095D01*
X117009461Y-72859523D01*
X117009461Y-72240476D01*
X116009461Y-71621428D02*
X116009461Y-71526190D01*
X116057081Y-71430952D01*
X116104700Y-71383333D01*
X116199938Y-71335714D01*
X116390414Y-71288095D01*
X116628509Y-71288095D01*
X116818985Y-71335714D01*
X116914223Y-71383333D01*
X116961842Y-71430952D01*
X117009461Y-71526190D01*
X117009461Y-71621428D01*
X116961842Y-71716666D01*
X116914223Y-71764285D01*
X116818985Y-71811904D01*
X116628509Y-71859523D01*
X116390414Y-71859523D01*
X116199938Y-71811904D01*
X116104700Y-71764285D01*
X116057081Y-71716666D01*
X116009461Y-71621428D01*
%TO.C,R35*%
X129429461Y-105337857D02*
X128953271Y-105671190D01*
X129429461Y-105909285D02*
X128429461Y-105909285D01*
X128429461Y-105528333D01*
X128477081Y-105433095D01*
X128524700Y-105385476D01*
X128619938Y-105337857D01*
X128762795Y-105337857D01*
X128858033Y-105385476D01*
X128905652Y-105433095D01*
X128953271Y-105528333D01*
X128953271Y-105909285D01*
X128429461Y-105004523D02*
X128429461Y-104385476D01*
X128810414Y-104718809D01*
X128810414Y-104575952D01*
X128858033Y-104480714D01*
X128905652Y-104433095D01*
X129000890Y-104385476D01*
X129238985Y-104385476D01*
X129334223Y-104433095D01*
X129381842Y-104480714D01*
X129429461Y-104575952D01*
X129429461Y-104861666D01*
X129381842Y-104956904D01*
X129334223Y-105004523D01*
X128429461Y-103480714D02*
X128429461Y-103956904D01*
X128905652Y-104004523D01*
X128858033Y-103956904D01*
X128810414Y-103861666D01*
X128810414Y-103623571D01*
X128858033Y-103528333D01*
X128905652Y-103480714D01*
X129000890Y-103433095D01*
X129238985Y-103433095D01*
X129334223Y-103480714D01*
X129381842Y-103528333D01*
X129429461Y-103623571D01*
X129429461Y-103861666D01*
X129381842Y-103956904D01*
X129334223Y-104004523D01*
%TO.C,R26*%
X117419461Y-105362857D02*
X116943271Y-105696190D01*
X117419461Y-105934285D02*
X116419461Y-105934285D01*
X116419461Y-105553333D01*
X116467081Y-105458095D01*
X116514700Y-105410476D01*
X116609938Y-105362857D01*
X116752795Y-105362857D01*
X116848033Y-105410476D01*
X116895652Y-105458095D01*
X116943271Y-105553333D01*
X116943271Y-105934285D01*
X116514700Y-104981904D02*
X116467081Y-104934285D01*
X116419461Y-104839047D01*
X116419461Y-104600952D01*
X116467081Y-104505714D01*
X116514700Y-104458095D01*
X116609938Y-104410476D01*
X116705176Y-104410476D01*
X116848033Y-104458095D01*
X117419461Y-105029523D01*
X117419461Y-104410476D01*
X116419461Y-103553333D02*
X116419461Y-103743809D01*
X116467081Y-103839047D01*
X116514700Y-103886666D01*
X116657557Y-103981904D01*
X116848033Y-104029523D01*
X117228985Y-104029523D01*
X117324223Y-103981904D01*
X117371842Y-103934285D01*
X117419461Y-103839047D01*
X117419461Y-103648571D01*
X117371842Y-103553333D01*
X117324223Y-103505714D01*
X117228985Y-103458095D01*
X116990890Y-103458095D01*
X116895652Y-103505714D01*
X116848033Y-103553333D01*
X116800414Y-103648571D01*
X116800414Y-103839047D01*
X116848033Y-103934285D01*
X116895652Y-103981904D01*
X116990890Y-104029523D01*
%TO.C,R21*%
X117129461Y-78322857D02*
X116653271Y-78656190D01*
X117129461Y-78894285D02*
X116129461Y-78894285D01*
X116129461Y-78513333D01*
X116177081Y-78418095D01*
X116224700Y-78370476D01*
X116319938Y-78322857D01*
X116462795Y-78322857D01*
X116558033Y-78370476D01*
X116605652Y-78418095D01*
X116653271Y-78513333D01*
X116653271Y-78894285D01*
X116224700Y-77941904D02*
X116177081Y-77894285D01*
X116129461Y-77799047D01*
X116129461Y-77560952D01*
X116177081Y-77465714D01*
X116224700Y-77418095D01*
X116319938Y-77370476D01*
X116415176Y-77370476D01*
X116558033Y-77418095D01*
X117129461Y-77989523D01*
X117129461Y-77370476D01*
X117129461Y-76418095D02*
X117129461Y-76989523D01*
X117129461Y-76703809D02*
X116129461Y-76703809D01*
X116272319Y-76799047D01*
X116367557Y-76894285D01*
X116415176Y-76989523D01*
D13*
%TO.C,TP2*%
X137853000Y-129410000D02*
X142753000Y-129410000D01*
X137853000Y-127010000D02*
X137853000Y-129410000D01*
X142753000Y-127010000D02*
X137853000Y-127010000D01*
X142753000Y-129410000D02*
X142753000Y-127010000D01*
%TO.C,TP1*%
X128783000Y-129156000D02*
X128783000Y-126756000D01*
X128783000Y-126756000D02*
X123883000Y-126756000D01*
X123883000Y-126756000D02*
X123883000Y-129156000D01*
X123883000Y-129156000D02*
X128783000Y-129156000D01*
%TO.C,G\u002A\u002A\u002A*%
G36*
X199282936Y-115560503D02*
G01*
X197373636Y-115563566D01*
X196854758Y-115566599D01*
X196384932Y-115573549D01*
X195984580Y-115583772D01*
X195674128Y-115596627D01*
X195473999Y-115611469D01*
X195405507Y-115625516D01*
X195386973Y-115715100D01*
X195370700Y-115929014D01*
X195357686Y-116243056D01*
X195348927Y-116633022D01*
X195345421Y-117074709D01*
X195345411Y-117084345D01*
X195342353Y-117526314D01*
X195334606Y-117916549D01*
X195323059Y-118230991D01*
X195308601Y-118445583D01*
X195292121Y-118536266D01*
X195291716Y-118536713D01*
X195194160Y-118564761D01*
X194983936Y-118588023D01*
X194693935Y-118605950D01*
X194357047Y-118617996D01*
X194006162Y-118623614D01*
X193674171Y-118622254D01*
X193393965Y-118613372D01*
X193198433Y-118596418D01*
X193121350Y-118572834D01*
X193112840Y-118500059D01*
X193132792Y-118492992D01*
X193137832Y-118462176D01*
X193099169Y-118432368D01*
X193030989Y-118311659D01*
X193044875Y-118197508D01*
X193283827Y-118197508D01*
X193288677Y-118272943D01*
X193326130Y-118425795D01*
X193409616Y-118472266D01*
X193554339Y-118455518D01*
X193759555Y-118427310D01*
X194038918Y-118399682D01*
X194232643Y-118385200D01*
X194512863Y-118368658D01*
X194762731Y-118355953D01*
X194882497Y-118351278D01*
X195008525Y-118335803D01*
X195068064Y-118271425D01*
X195085807Y-118117217D01*
X195086737Y-118012795D01*
X195075108Y-117824020D01*
X195022957Y-117703547D01*
X194904387Y-117638542D01*
X194693504Y-117616172D01*
X194364412Y-117623602D01*
X194306912Y-117626315D01*
X193879837Y-117682933D01*
X193559594Y-117801685D01*
X193357238Y-117975551D01*
X193283827Y-118197508D01*
X193044875Y-118197508D01*
X193053411Y-118127336D01*
X193152040Y-117920852D01*
X193312480Y-117733659D01*
X193353474Y-117700071D01*
X193572383Y-117575665D01*
X193862699Y-117467096D01*
X194184539Y-117382549D01*
X194498015Y-117330210D01*
X194763244Y-117318264D01*
X194940339Y-117354896D01*
X194962908Y-117369782D01*
X194996314Y-117375702D01*
X195023504Y-117321790D01*
X195045914Y-117192642D01*
X195064981Y-116972854D01*
X195082142Y-116647020D01*
X195098834Y-116199738D01*
X195112045Y-115770587D01*
X195120442Y-115431276D01*
X195409807Y-115431276D01*
X195635954Y-115366418D01*
X195774023Y-115349028D01*
X196036057Y-115336102D01*
X196397536Y-115328073D01*
X196833943Y-115325374D01*
X197320759Y-115328438D01*
X197572519Y-115332214D01*
X199282936Y-115362869D01*
X199263680Y-112936540D01*
X199257906Y-112343939D01*
X199250502Y-111793638D01*
X199241882Y-111304639D01*
X199232459Y-110895942D01*
X199222647Y-110586550D01*
X199212860Y-110395464D01*
X199207257Y-110345871D01*
X199125645Y-110214579D01*
X198932276Y-110118946D01*
X198855168Y-110096057D01*
X198574162Y-110015354D01*
X198271799Y-109922290D01*
X198206035Y-109901026D01*
X197992209Y-109852936D01*
X197677135Y-109809108D01*
X197308097Y-109775210D01*
X197028027Y-109759848D01*
X196649310Y-109748607D01*
X196381581Y-109751187D01*
X196187599Y-109771829D01*
X196030124Y-109814776D01*
X195871916Y-109884270D01*
X195852861Y-109893721D01*
X195650126Y-110004767D01*
X195506552Y-110101389D01*
X195471221Y-110136174D01*
X195459357Y-110226036D01*
X195448176Y-110446994D01*
X195438042Y-110781605D01*
X195429317Y-111212428D01*
X195422364Y-111722021D01*
X195417544Y-112292942D01*
X195415377Y-112822205D01*
X195409807Y-115431276D01*
X195120442Y-115431276D01*
X195126491Y-115186841D01*
X195139247Y-114504125D01*
X195149647Y-113772005D01*
X195157024Y-113040045D01*
X195160711Y-112357810D01*
X195161006Y-112133032D01*
X195161006Y-110177812D01*
X194752238Y-110398963D01*
X194182417Y-110734378D01*
X193730521Y-111068116D01*
X193368706Y-111427039D01*
X193069126Y-111838012D01*
X192849406Y-112234647D01*
X192723708Y-112481178D01*
X192620969Y-112671719D01*
X192560621Y-112770442D01*
X192556092Y-112775415D01*
X192500433Y-112885857D01*
X192435114Y-113109296D01*
X192366630Y-113411075D01*
X192301475Y-113756534D01*
X192246142Y-114111014D01*
X192207126Y-114439858D01*
X192190921Y-114708405D01*
X192190807Y-114724977D01*
X192204694Y-114911801D01*
X192261283Y-114991014D01*
X192338570Y-115003486D01*
X192475474Y-115051176D01*
X192664371Y-115173272D01*
X192784184Y-115272069D01*
X192966296Y-115455492D01*
X193055297Y-115611984D01*
X193081180Y-115797740D01*
X193081474Y-115829087D01*
X193067750Y-116020705D01*
X193013835Y-116103616D01*
X192937605Y-116117521D01*
X192842654Y-116094570D01*
X192818621Y-115998228D01*
X192833809Y-115870582D01*
X192841918Y-115692022D01*
X192775509Y-115556202D01*
X192637769Y-115424968D01*
X192344317Y-115258373D01*
X192043224Y-115236687D01*
X191751376Y-115360143D01*
X191684167Y-115411746D01*
X191526135Y-115580481D01*
X191426032Y-115752456D01*
X191419168Y-115774899D01*
X191351890Y-115915284D01*
X191258262Y-115996879D01*
X191178157Y-115998196D01*
X191150480Y-115919716D01*
X191199809Y-115745872D01*
X191324625Y-115525555D01*
X191490167Y-115311836D01*
X191639411Y-115173193D01*
X191747507Y-115065517D01*
X191822450Y-114905205D01*
X191880350Y-114652152D01*
X191901724Y-114520098D01*
X191975918Y-114119731D01*
X192080911Y-113670746D01*
X192204353Y-113217198D01*
X192333894Y-112803143D01*
X192457184Y-112472637D01*
X192505321Y-112366936D01*
X192744092Y-111955011D01*
X193051206Y-111524397D01*
X193393457Y-111115242D01*
X193737643Y-110767691D01*
X194008136Y-110549866D01*
X194388378Y-110311912D01*
X194805918Y-110087250D01*
X195233582Y-109886817D01*
X195644198Y-109721544D01*
X196010591Y-109602368D01*
X196305590Y-109540221D01*
X196502019Y-109546038D01*
X196502464Y-109546179D01*
X196618557Y-109551314D01*
X196623299Y-109544714D01*
X196794924Y-109544714D01*
X196832058Y-109581848D01*
X196869193Y-109544714D01*
X196832058Y-109507579D01*
X196794924Y-109544714D01*
X196623299Y-109544714D01*
X196646386Y-109512584D01*
X196582157Y-109455759D01*
X196435441Y-109433310D01*
X196122484Y-109373460D01*
X195769012Y-109211347D01*
X195409157Y-108973124D01*
X195077053Y-108684945D01*
X195049805Y-108653486D01*
X195161006Y-108653486D01*
X195198140Y-108690620D01*
X195235275Y-108653486D01*
X195198140Y-108616351D01*
X195161006Y-108653486D01*
X195049805Y-108653486D01*
X194806833Y-108372965D01*
X194632630Y-108063338D01*
X194626689Y-108047382D01*
X194580555Y-107919802D01*
X194789661Y-107919802D01*
X194838242Y-108024905D01*
X194966579Y-108199299D01*
X195148559Y-108408085D01*
X195179573Y-108440950D01*
X195683392Y-108876106D01*
X196226529Y-109168271D01*
X196805891Y-109316809D01*
X197418384Y-109321082D01*
X198060916Y-109180454D01*
X198317626Y-109086744D01*
X198907876Y-108810956D01*
X199363223Y-108512612D01*
X199696787Y-108181490D01*
X199900371Y-107854104D01*
X199835367Y-107840995D01*
X199638501Y-107829239D01*
X199326441Y-107819175D01*
X198915861Y-107811143D01*
X198423431Y-107805482D01*
X197865823Y-107802531D01*
X197358461Y-107802396D01*
X196665698Y-107804397D01*
X196107465Y-107807859D01*
X195669756Y-107813422D01*
X195338565Y-107821726D01*
X195099885Y-107833412D01*
X194939712Y-107849120D01*
X194844039Y-107869489D01*
X194798860Y-107895161D01*
X194789661Y-107919802D01*
X194580555Y-107919802D01*
X194534502Y-107792445D01*
X193952232Y-107806478D01*
X193666772Y-107803995D01*
X193437212Y-107784731D01*
X193305401Y-107752615D01*
X193294124Y-107744674D01*
X193271220Y-107650743D01*
X193251898Y-107437757D01*
X193244604Y-107294639D01*
X193386999Y-107294639D01*
X193391435Y-107473954D01*
X193398985Y-107522742D01*
X193439517Y-107543995D01*
X193549818Y-107561601D01*
X193739575Y-107575750D01*
X194018475Y-107586637D01*
X194396206Y-107594452D01*
X194882455Y-107599388D01*
X195486910Y-107601637D01*
X196219259Y-107601391D01*
X197089187Y-107598842D01*
X197212504Y-107598353D01*
X197954219Y-107595291D01*
X198655688Y-107592307D01*
X199301950Y-107589471D01*
X199878042Y-107586853D01*
X200369003Y-107584523D01*
X200759870Y-107582550D01*
X201035681Y-107581004D01*
X201181474Y-107579954D01*
X201195363Y-107579785D01*
X201399602Y-107576585D01*
X201399602Y-105045765D01*
X197506643Y-105067169D01*
X196759417Y-105072421D01*
X196056973Y-105079569D01*
X195413339Y-105088317D01*
X194842540Y-105098368D01*
X194358602Y-105109428D01*
X193975551Y-105121201D01*
X193707415Y-105133390D01*
X193568219Y-105145701D01*
X193551819Y-105150559D01*
X193513102Y-105255319D01*
X193482146Y-105454927D01*
X193471408Y-105596173D01*
X193458345Y-105845849D01*
X193439280Y-106185319D01*
X193417529Y-106556130D01*
X193408474Y-106705783D01*
X193392823Y-107026187D01*
X193386999Y-107294639D01*
X193244604Y-107294639D01*
X193236476Y-107135162D01*
X193225271Y-106772406D01*
X193218604Y-106378936D01*
X193216792Y-105984198D01*
X193220154Y-105617640D01*
X193229008Y-105308708D01*
X193243673Y-105086849D01*
X193264236Y-104981879D01*
X193358228Y-104946527D01*
X193559523Y-104929788D01*
X193798184Y-104933619D01*
X194028272Y-104944712D01*
X194190298Y-104935175D01*
X194315698Y-104884827D01*
X194330254Y-104871345D01*
X194641123Y-104871345D01*
X194712629Y-104876975D01*
X194916098Y-104881618D01*
X195234960Y-104885178D01*
X195652642Y-104887561D01*
X196152574Y-104888671D01*
X196718183Y-104888412D01*
X197314807Y-104886759D01*
X198060308Y-104882611D01*
X198667448Y-104876233D01*
X199146393Y-104867250D01*
X199507310Y-104855288D01*
X199760363Y-104839973D01*
X199915719Y-104820929D01*
X199983544Y-104797784D01*
X199988491Y-104788282D01*
X199931958Y-104634794D01*
X199780088Y-104423789D01*
X199559476Y-104182577D01*
X199296716Y-103938471D01*
X199018403Y-103718783D01*
X198821933Y-103590249D01*
X198282752Y-103356692D01*
X197692502Y-103243705D01*
X197080357Y-103246861D01*
X196475496Y-103361734D01*
X195907094Y-103583896D01*
X195404328Y-103908921D01*
X195150110Y-104147344D01*
X194940663Y-104390426D01*
X194771106Y-104617419D01*
X194665009Y-104794795D01*
X194641123Y-104871345D01*
X194330254Y-104871345D01*
X194435907Y-104773486D01*
X194582361Y-104580970D01*
X194771499Y-104308749D01*
X195088988Y-103933967D01*
X195477624Y-103604269D01*
X195898715Y-103345805D01*
X196313569Y-103184724D01*
X196483849Y-103151475D01*
X196782282Y-103098857D01*
X196963451Y-103014748D01*
X197058566Y-102872030D01*
X197086783Y-102711965D01*
X197166269Y-102711965D01*
X197203404Y-102749100D01*
X197240538Y-102711965D01*
X197203404Y-102674831D01*
X197166269Y-102711965D01*
X197086783Y-102711965D01*
X197098838Y-102643583D01*
X197101035Y-102615192D01*
X197093298Y-102414889D01*
X197240538Y-102414889D01*
X197277673Y-102452024D01*
X197314807Y-102414889D01*
X197277673Y-102377755D01*
X197240538Y-102414889D01*
X197093298Y-102414889D01*
X197091530Y-102369117D01*
X197004443Y-102187955D01*
X196952021Y-102126923D01*
X196838780Y-101940805D01*
X197017731Y-101940805D01*
X197075163Y-102079824D01*
X197214393Y-102144398D01*
X197385822Y-102129354D01*
X197539852Y-102029518D01*
X197564934Y-101997883D01*
X197640785Y-101813504D01*
X197585870Y-101685926D01*
X197409535Y-101635224D01*
X197395984Y-101635065D01*
X197168456Y-101686837D01*
X197038577Y-101828803D01*
X197017731Y-101940805D01*
X196838780Y-101940805D01*
X196830286Y-101926845D01*
X196855477Y-101744718D01*
X197026745Y-101583460D01*
X197125637Y-101530298D01*
X197403043Y-101456443D01*
X197625739Y-101504924D01*
X197770480Y-101657988D01*
X197814019Y-101897883D01*
X197792013Y-102039187D01*
X197704864Y-102214131D01*
X197603340Y-102308058D01*
X197499209Y-102423769D01*
X197463634Y-102640586D01*
X197463345Y-102669989D01*
X197463345Y-102956996D01*
X198036025Y-103084406D01*
X198337283Y-103160736D01*
X198603469Y-103244522D01*
X198782664Y-103319176D01*
X198797283Y-103327603D01*
X199269145Y-103631359D01*
X199622855Y-103895029D01*
X199876965Y-104136621D01*
X200050031Y-104374142D01*
X200160607Y-104625599D01*
X200171739Y-104661527D01*
X200216356Y-104754996D01*
X200305283Y-104807682D01*
X200476450Y-104833056D01*
X200680484Y-104842237D01*
X200958685Y-104847815D01*
X201201353Y-104848118D01*
X201322456Y-104844674D01*
X201482407Y-104866828D01*
X201557349Y-104917800D01*
X201576231Y-105018448D01*
X201593478Y-105239399D01*
X201607627Y-105552417D01*
X201617216Y-105929268D01*
X201619749Y-106122235D01*
X201623866Y-106522254D01*
X201628311Y-106874517D01*
X201632654Y-107149918D01*
X201636467Y-107319348D01*
X201637930Y-107353778D01*
X201639770Y-107613913D01*
X201592526Y-107754089D01*
X201486615Y-107797535D01*
X201455304Y-107796486D01*
X201300968Y-107790934D01*
X201049517Y-107788887D01*
X200752344Y-107790716D01*
X200718984Y-107791171D01*
X200149770Y-107799392D01*
X199929264Y-108157759D01*
X199662123Y-108484299D01*
X199284105Y-108799364D01*
X198832268Y-109078088D01*
X198343667Y-109295602D01*
X198131766Y-109364043D01*
X197944171Y-109426444D01*
X197896542Y-109469203D01*
X197946094Y-109490539D01*
X198242811Y-109570930D01*
X198584341Y-109689817D01*
X198934568Y-109831446D01*
X199257376Y-109980063D01*
X199516649Y-110119912D01*
X199676273Y-110235238D01*
X199691415Y-110251905D01*
X199762377Y-110314625D01*
X199923600Y-110446592D01*
X200148066Y-110625899D01*
X200312958Y-110755794D01*
X200841822Y-111216210D01*
X201322376Y-111723261D01*
X201726246Y-112243577D01*
X202025057Y-112743790D01*
X202053179Y-112802321D01*
X202168112Y-113061075D01*
X202252486Y-113274421D01*
X202290192Y-113401193D01*
X202290830Y-113409736D01*
X202339416Y-113536854D01*
X202410430Y-113627095D01*
X202477768Y-113728325D01*
X202499299Y-113877758D01*
X202480198Y-114119913D01*
X202473635Y-114170851D01*
X202431680Y-114656289D01*
X202450777Y-115017054D01*
X202530500Y-115248429D01*
X202575579Y-115300562D01*
X202767356Y-115502520D01*
X202895368Y-115706374D01*
X202950076Y-115883427D01*
X202921940Y-116004980D01*
X202822469Y-116043252D01*
X202705918Y-115983288D01*
X202611529Y-115793109D01*
X202596681Y-115746176D01*
X202521762Y-115559454D01*
X202441551Y-115450274D01*
X202417820Y-115439621D01*
X202276734Y-115425153D01*
X202144004Y-115411819D01*
X201890865Y-115453725D01*
X201687316Y-115608422D01*
X201586794Y-115813528D01*
X201519211Y-115956565D01*
X201424717Y-116016500D01*
X201346785Y-115980944D01*
X201325333Y-115888034D01*
X201384780Y-115711647D01*
X201533543Y-115517416D01*
X201727254Y-115352247D01*
X201915289Y-115264349D01*
X202079681Y-115203244D01*
X202162033Y-115128918D01*
X202176631Y-114998946D01*
X202174294Y-114767027D01*
X202158374Y-114470906D01*
X202132224Y-114148328D01*
X202099195Y-113837038D01*
X202062639Y-113574780D01*
X202025909Y-113399301D01*
X202004064Y-113350170D01*
X201927585Y-113216264D01*
X201919485Y-113165581D01*
X201875276Y-113011444D01*
X201756382Y-112774693D01*
X201583402Y-112486663D01*
X201376934Y-112178688D01*
X201157578Y-111882104D01*
X200945932Y-111628245D01*
X200830090Y-111508401D01*
X200624876Y-111320566D01*
X200459837Y-111183542D01*
X200364139Y-111121150D01*
X200354537Y-111119982D01*
X200272393Y-111083009D01*
X200171496Y-110990012D01*
X200040323Y-110879923D01*
X199948940Y-110844421D01*
X199829190Y-110792514D01*
X199765684Y-110733018D01*
X199690404Y-110650610D01*
X199630587Y-110612976D01*
X199584805Y-110632708D01*
X199551627Y-110722395D01*
X199529622Y-110894629D01*
X199517362Y-111161999D01*
X199513416Y-111537098D01*
X199516354Y-112032515D01*
X199524746Y-112660841D01*
X199527386Y-112831117D01*
X199540971Y-113713219D01*
X199551696Y-114459680D01*
X199559602Y-115083369D01*
X199564725Y-115597156D01*
X199567107Y-116013910D01*
X199566784Y-116346499D01*
X199563797Y-116607793D01*
X199558184Y-116810660D01*
X199549984Y-116967971D01*
X199540241Y-117083018D01*
X199505743Y-117417228D01*
X199752367Y-117392513D01*
X200036031Y-117400569D01*
X200382338Y-117460259D01*
X200721473Y-117555999D01*
X200970436Y-117664420D01*
X201175632Y-117861635D01*
X201268566Y-118128754D01*
X201253632Y-118345591D01*
X201222975Y-118433992D01*
X201163763Y-118491861D01*
X201045644Y-118529022D01*
X200838271Y-118555301D01*
X200532566Y-118579020D01*
X200197777Y-118598593D01*
X199890212Y-118609392D01*
X199661019Y-118609860D01*
X199607353Y-118607185D01*
X199357205Y-118587593D01*
X199352179Y-118382725D01*
X199551043Y-118382725D01*
X200317772Y-118402635D01*
X200663797Y-118409460D01*
X200889243Y-118405476D01*
X201021924Y-118386368D01*
X201089658Y-118347820D01*
X201120259Y-118285517D01*
X201122348Y-118277813D01*
X201094203Y-118113017D01*
X200945634Y-117945887D01*
X200702076Y-117802154D01*
X200619778Y-117769410D01*
X200386474Y-117704658D01*
X200126451Y-117660422D01*
X199891745Y-117642578D01*
X199734392Y-117657000D01*
X199712298Y-117666939D01*
X199659560Y-117763777D01*
X199610922Y-117952760D01*
X199595515Y-118048515D01*
X199551043Y-118382725D01*
X199352179Y-118382725D01*
X199320070Y-117074048D01*
X199282936Y-115560503D01*
G37*
G36*
X198780373Y-106087847D02*
G01*
X198874627Y-106016845D01*
X199170093Y-105922641D01*
X199448602Y-105944382D01*
X199678152Y-106067725D01*
X199826741Y-106278328D01*
X199865052Y-106460757D01*
X199811775Y-106693181D01*
X199651818Y-106872357D01*
X199422895Y-106979895D01*
X199162717Y-106997400D01*
X198927711Y-106917910D01*
X198749805Y-106744919D01*
X198664138Y-106518212D01*
X198670673Y-106353242D01*
X198830159Y-106353242D01*
X198835979Y-106570096D01*
X198969824Y-106719719D01*
X199158400Y-106781224D01*
X199320185Y-106807570D01*
X199398711Y-106822767D01*
X199483777Y-106791939D01*
X199558698Y-106741059D01*
X199646774Y-106590305D01*
X199643821Y-106395350D01*
X199563253Y-106217608D01*
X199422937Y-106119561D01*
X199156217Y-106102052D01*
X198947153Y-106182220D01*
X198832153Y-106345712D01*
X198830159Y-106353242D01*
X198670673Y-106353242D01*
X198673423Y-106283838D01*
X198780373Y-106087847D01*
G37*
G36*
X194780877Y-106071929D02*
G01*
X195052427Y-105883534D01*
X195075087Y-105871626D01*
X195323973Y-105814501D01*
X195550321Y-105895034D01*
X195722716Y-106100280D01*
X195803666Y-106376030D01*
X195742243Y-106632064D01*
X195606601Y-106816806D01*
X195387158Y-106962097D01*
X195147633Y-106968117D01*
X194913593Y-106836947D01*
X194833397Y-106753928D01*
X194673626Y-106498860D01*
X194659341Y-106323181D01*
X194802610Y-106323181D01*
X194897429Y-106507321D01*
X194951592Y-106573389D01*
X195141855Y-106715753D01*
X195349841Y-106759304D01*
X195529154Y-106701260D01*
X195605804Y-106612612D01*
X195652103Y-106385607D01*
X195579244Y-106164199D01*
X195425399Y-106019318D01*
X195276491Y-105968974D01*
X195119283Y-106002840D01*
X195022582Y-106048840D01*
X194843278Y-106178105D01*
X194802610Y-106323181D01*
X194659341Y-106323181D01*
X194655365Y-106274283D01*
X194780877Y-106071929D01*
G37*
%TO.C,U1*%
X151064081Y-73977000D02*
X151064081Y-71310000D01*
X169057081Y-89010000D02*
X169057081Y-89410000D01*
X169057081Y-96610000D02*
X169057081Y-97010000D01*
X148057081Y-94110000D02*
X148057081Y-94510000D01*
X148057081Y-119510000D02*
X148057081Y-119910000D01*
X169057081Y-91510000D02*
X169057081Y-91910000D01*
X169057081Y-116910000D02*
X169057081Y-117310000D01*
X169057081Y-78810000D02*
X169057081Y-79210000D01*
X148057081Y-114410000D02*
X148057081Y-114810000D01*
X169057081Y-76310000D02*
X169057081Y-76710000D01*
X169057081Y-81410000D02*
X169057081Y-81810000D01*
X169057081Y-119510000D02*
X169057081Y-119910000D01*
X148057081Y-106810000D02*
X148057081Y-107210000D01*
X169057081Y-86410000D02*
X169057081Y-86810000D01*
X148057081Y-81410000D02*
X148057081Y-81810000D01*
X148057081Y-71310000D02*
X169057081Y-71310000D01*
X148057081Y-116910000D02*
X148057081Y-117310000D01*
X169057081Y-101710000D02*
X169057081Y-102110000D01*
X148057081Y-76310000D02*
X148057081Y-76710000D01*
X148057081Y-71310000D02*
X148057081Y-71610000D01*
X159657081Y-122310000D02*
X160057081Y-122310000D01*
X148057081Y-89010000D02*
X148057081Y-89410000D01*
X169057081Y-111910000D02*
X169057081Y-112310000D01*
X148057081Y-109310000D02*
X148057081Y-109710000D01*
X148057081Y-73710000D02*
X148057081Y-74110000D01*
X148057081Y-78810000D02*
X148057081Y-79210000D01*
X169057081Y-73710000D02*
X169057081Y-74110000D01*
X169057081Y-71310000D02*
X169057081Y-71610000D01*
X148057081Y-73977000D02*
X151064081Y-73977000D01*
X169057081Y-106810000D02*
X169057081Y-107210000D01*
X148057081Y-86410000D02*
X148057081Y-86810000D01*
X148057081Y-101710000D02*
X148057081Y-102110000D01*
X148057081Y-99110000D02*
X148057081Y-99510000D01*
X169057081Y-99110000D02*
X169057081Y-99510000D01*
X169057081Y-109310000D02*
X169057081Y-109710000D01*
X169057081Y-104210000D02*
X169057081Y-104610000D01*
X148057081Y-104210000D02*
X148057081Y-104610000D01*
X157057081Y-122310000D02*
X157457081Y-122310000D01*
X169057081Y-114410000D02*
X169057081Y-114810000D01*
X169057081Y-83910000D02*
X169057081Y-84310000D01*
X148057081Y-91510000D02*
X148057081Y-91910000D01*
X154857081Y-122310000D02*
X148057081Y-122310000D01*
X148057081Y-111910000D02*
X148057081Y-112310000D01*
X148057081Y-83910000D02*
X148057081Y-84310000D01*
X169057081Y-122310000D02*
X162257081Y-122310000D01*
X148057081Y-96610000D02*
X148057081Y-97010000D01*
X169057081Y-94110000D02*
X169057081Y-94510000D01*
%TO.C,R23*%
X120462081Y-89910000D02*
X123062081Y-89910000D01*
X120462081Y-89910000D02*
X120462081Y-87250000D01*
X120462081Y-87250000D02*
X123062081Y-87250000D01*
X123062081Y-89910000D02*
X123062081Y-87250000D01*
X117862081Y-89910000D02*
X117862081Y-88580000D01*
X119192081Y-89910000D02*
X117862081Y-89910000D01*
%TO.C,R37*%
X135187081Y-116585000D02*
X135187081Y-113925000D01*
X131317081Y-116585000D02*
X129987081Y-116585000D01*
X132587081Y-113925000D02*
X135187081Y-113925000D01*
X132587081Y-116585000D02*
X135187081Y-116585000D01*
X129987081Y-116585000D02*
X129987081Y-115255000D01*
X132587081Y-116585000D02*
X132587081Y-113925000D01*
%TO.C,R25*%
X123177081Y-100720000D02*
X123177081Y-98060000D01*
X117977081Y-100720000D02*
X117977081Y-99390000D01*
X119307081Y-100720000D02*
X117977081Y-100720000D01*
X120577081Y-100720000D02*
X120577081Y-98060000D01*
X120577081Y-100720000D02*
X123177081Y-100720000D01*
X120577081Y-98060000D02*
X123177081Y-98060000D01*
%TO.C,R17*%
X108962081Y-108550000D02*
X108962081Y-111210000D01*
X110232081Y-108550000D02*
X111562081Y-108550000D01*
X108962081Y-111210000D02*
X106362081Y-111210000D01*
X106362081Y-108550000D02*
X106362081Y-111210000D01*
X108962081Y-108550000D02*
X106362081Y-108550000D01*
X111562081Y-108550000D02*
X111562081Y-109880000D01*
%TO.C,R12*%
X108957081Y-84800000D02*
X106357081Y-84800000D01*
X111557081Y-82140000D02*
X111557081Y-83470000D01*
X108957081Y-82140000D02*
X108957081Y-84800000D01*
X110227081Y-82140000D02*
X111557081Y-82140000D01*
X106357081Y-82140000D02*
X106357081Y-84800000D01*
X108957081Y-82140000D02*
X106357081Y-82140000D01*
%TO.C,R13*%
X111487081Y-87320000D02*
X111487081Y-88650000D01*
X108887081Y-87320000D02*
X108887081Y-89980000D01*
X110157081Y-87320000D02*
X111487081Y-87320000D01*
X106287081Y-87320000D02*
X106287081Y-89980000D01*
X108887081Y-89980000D02*
X106287081Y-89980000D01*
X108887081Y-87320000D02*
X106287081Y-87320000D01*
%TO.C,R18*%
X108997081Y-113800000D02*
X108997081Y-116460000D01*
X106397081Y-113800000D02*
X106397081Y-116460000D01*
X108997081Y-116460000D02*
X106397081Y-116460000D01*
X108997081Y-113800000D02*
X106397081Y-113800000D01*
X111597081Y-113800000D02*
X111597081Y-115130000D01*
X110267081Y-113800000D02*
X111597081Y-113800000D01*
%TO.C,R34*%
X135137081Y-100735000D02*
X135137081Y-98075000D01*
X132537081Y-100735000D02*
X132537081Y-98075000D01*
X131267081Y-100735000D02*
X129937081Y-100735000D01*
X129937081Y-100735000D02*
X129937081Y-99405000D01*
X132537081Y-100735000D02*
X135137081Y-100735000D01*
X132537081Y-98075000D02*
X135137081Y-98075000D01*
%TO.C,R15*%
X110157081Y-98060000D02*
X111487081Y-98060000D01*
X111487081Y-98060000D02*
X111487081Y-99390000D01*
X108887081Y-100720000D02*
X106287081Y-100720000D01*
X108887081Y-98060000D02*
X108887081Y-100720000D01*
X108887081Y-98060000D02*
X106287081Y-98060000D01*
X106287081Y-98060000D02*
X106287081Y-100720000D01*
%TO.C,R38*%
X130017081Y-121745000D02*
X130017081Y-120415000D01*
X132617081Y-121745000D02*
X132617081Y-119085000D01*
X135217081Y-121745000D02*
X135217081Y-119085000D01*
X131347081Y-121745000D02*
X130017081Y-121745000D01*
X132617081Y-119085000D02*
X135217081Y-119085000D01*
X132617081Y-121745000D02*
X135217081Y-121745000D01*
%TO.C,R33*%
X132567081Y-95425000D02*
X135167081Y-95425000D01*
X132567081Y-92765000D02*
X135167081Y-92765000D01*
X131297081Y-95425000D02*
X129967081Y-95425000D01*
X129967081Y-95425000D02*
X129967081Y-94095000D01*
X132567081Y-95425000D02*
X132567081Y-92765000D01*
X135167081Y-95425000D02*
X135167081Y-92765000D01*
%TO.C,SW1*%
X188663081Y-80807000D02*
X193163081Y-80807000D01*
X193163081Y-74307000D02*
X188663081Y-74307000D01*
X187413081Y-76807000D02*
X187413081Y-78307000D01*
X194413081Y-78307000D02*
X194413081Y-76807000D01*
%TO.C,C3*%
X173911081Y-76341000D02*
X173911081Y-76326000D01*
X178451081Y-74201000D02*
X173911081Y-74201000D01*
X178451081Y-76341000D02*
X178451081Y-76326000D01*
X178451081Y-74216000D02*
X178451081Y-74201000D01*
X178451081Y-76341000D02*
X173911081Y-76341000D01*
X173911081Y-74216000D02*
X173911081Y-74201000D01*
%TO.C,R29*%
X132067081Y-71345000D02*
X134667081Y-71345000D01*
X130797081Y-74005000D02*
X129467081Y-74005000D01*
X134667081Y-74005000D02*
X134667081Y-71345000D01*
X132067081Y-74005000D02*
X134667081Y-74005000D01*
X129467081Y-74005000D02*
X129467081Y-72675000D01*
X132067081Y-74005000D02*
X132067081Y-71345000D01*
%TO.C,R10*%
X110827081Y-71210000D02*
X110827081Y-72540000D01*
X109497081Y-71210000D02*
X110827081Y-71210000D01*
X105627081Y-71210000D02*
X105627081Y-73870000D01*
X108227081Y-73870000D02*
X105627081Y-73870000D01*
X108227081Y-71210000D02*
X105627081Y-71210000D01*
X108227081Y-71210000D02*
X108227081Y-73870000D01*
%TO.C,C2*%
X180737081Y-83961000D02*
X180737081Y-83946000D01*
X176197081Y-83961000D02*
X176197081Y-83946000D01*
X180737081Y-81836000D02*
X180737081Y-81821000D01*
X176197081Y-81836000D02*
X176197081Y-81821000D01*
X180737081Y-81821000D02*
X176197081Y-81821000D01*
X180737081Y-83961000D02*
X176197081Y-83961000D01*
%TO.C,R24*%
X119347081Y-95310000D02*
X118017081Y-95310000D01*
X120617081Y-92650000D02*
X123217081Y-92650000D01*
X118017081Y-95310000D02*
X118017081Y-93980000D01*
X123217081Y-95310000D02*
X123217081Y-92650000D01*
X120617081Y-95310000D02*
X123217081Y-95310000D01*
X120617081Y-95310000D02*
X120617081Y-92650000D01*
%TO.C,R28*%
X119347081Y-116410000D02*
X118017081Y-116410000D01*
X120617081Y-116410000D02*
X123217081Y-116410000D01*
X120617081Y-113750000D02*
X123217081Y-113750000D01*
X120617081Y-116410000D02*
X120617081Y-113750000D01*
X123217081Y-116410000D02*
X123217081Y-113750000D01*
X118017081Y-116410000D02*
X118017081Y-115080000D01*
%TO.C,C1*%
X162989081Y-127126000D02*
X162989081Y-127141000D01*
X167529081Y-125001000D02*
X167529081Y-125016000D01*
X162989081Y-127141000D02*
X167529081Y-127141000D01*
X162989081Y-125001000D02*
X162989081Y-125016000D01*
X167529081Y-127126000D02*
X167529081Y-127141000D01*
X162989081Y-125001000D02*
X167529081Y-125001000D01*
%TO.C,J2*%
X114444081Y-122829000D02*
X109304081Y-122829000D01*
X117044081Y-120169000D02*
X117044081Y-121499000D01*
X109304081Y-120169000D02*
X109304081Y-122829000D01*
X115714081Y-120169000D02*
X117044081Y-120169000D01*
X114444081Y-120169000D02*
X109304081Y-120169000D01*
X114444081Y-120169000D02*
X114444081Y-122829000D01*
%TO.C,J1*%
X185287081Y-124900000D02*
X183957081Y-124900000D01*
X185287081Y-122300000D02*
X182627081Y-122300000D01*
X185287081Y-99380000D02*
X182627081Y-99380000D01*
X182627081Y-122300000D02*
X182627081Y-99380000D01*
X185287081Y-123570000D02*
X185287081Y-124900000D01*
X185287081Y-122300000D02*
X185287081Y-99380000D01*
%TO.C,R16*%
X106327081Y-103330000D02*
X106327081Y-105990000D01*
X110197081Y-103330000D02*
X111527081Y-103330000D01*
X108927081Y-103330000D02*
X106327081Y-103330000D01*
X111527081Y-103330000D02*
X111527081Y-104660000D01*
X108927081Y-103330000D02*
X108927081Y-105990000D01*
X108927081Y-105990000D02*
X106327081Y-105990000D01*
%TO.C,R11*%
X108457081Y-76310000D02*
X105857081Y-76310000D01*
X108457081Y-78970000D02*
X105857081Y-78970000D01*
X105857081Y-76310000D02*
X105857081Y-78970000D01*
X108457081Y-76310000D02*
X108457081Y-78970000D01*
X109727081Y-76310000D02*
X111057081Y-76310000D01*
X111057081Y-76310000D02*
X111057081Y-77640000D01*
%TO.C,R36*%
X132577081Y-108695000D02*
X135177081Y-108695000D01*
X135177081Y-111355000D02*
X135177081Y-108695000D01*
X132577081Y-111355000D02*
X135177081Y-111355000D01*
X129977081Y-111355000D02*
X129977081Y-110025000D01*
X132577081Y-111355000D02*
X132577081Y-108695000D01*
X131307081Y-111355000D02*
X129977081Y-111355000D01*
%TO.C,R31*%
X132307081Y-81925000D02*
X134907081Y-81925000D01*
X131037081Y-84585000D02*
X129707081Y-84585000D01*
X129707081Y-84585000D02*
X129707081Y-83255000D01*
X132307081Y-84585000D02*
X132307081Y-81925000D01*
X132307081Y-84585000D02*
X134907081Y-84585000D01*
X134907081Y-84585000D02*
X134907081Y-81925000D01*
%TO.C,R27*%
X123167081Y-111320000D02*
X123167081Y-108660000D01*
X120567081Y-111320000D02*
X123167081Y-111320000D01*
X120567081Y-108660000D02*
X123167081Y-108660000D01*
X120567081Y-111320000D02*
X120567081Y-108660000D01*
X119297081Y-111320000D02*
X117967081Y-111320000D01*
X117967081Y-111320000D02*
X117967081Y-109990000D01*
%TO.C,R32*%
X132257081Y-90115000D02*
X132257081Y-87455000D01*
X132257081Y-87455000D02*
X134857081Y-87455000D01*
X130987081Y-90115000D02*
X129657081Y-90115000D01*
X129657081Y-90115000D02*
X129657081Y-88785000D01*
X134857081Y-90115000D02*
X134857081Y-87455000D01*
X132257081Y-90115000D02*
X134857081Y-90115000D01*
%TO.C,R30*%
X132187081Y-79095000D02*
X134787081Y-79095000D01*
X129587081Y-79095000D02*
X129587081Y-77765000D01*
X134787081Y-79095000D02*
X134787081Y-76435000D01*
X130917081Y-79095000D02*
X129587081Y-79095000D01*
X132187081Y-76435000D02*
X134787081Y-76435000D01*
X132187081Y-79095000D02*
X132187081Y-76435000D01*
%TO.C,R19*%
X131997081Y-68875000D02*
X131997081Y-66215000D01*
X130727081Y-68875000D02*
X129397081Y-68875000D01*
X131997081Y-66215000D02*
X134597081Y-66215000D01*
X131997081Y-68875000D02*
X134597081Y-68875000D01*
X134597081Y-68875000D02*
X134597081Y-66215000D01*
X129397081Y-68875000D02*
X129397081Y-67545000D01*
%TO.C,R14*%
X111487081Y-92650000D02*
X111487081Y-93980000D01*
X108887081Y-95310000D02*
X106287081Y-95310000D01*
X110157081Y-92650000D02*
X111487081Y-92650000D01*
X106287081Y-92650000D02*
X106287081Y-95310000D01*
X108887081Y-92650000D02*
X108887081Y-95310000D01*
X108887081Y-92650000D02*
X106287081Y-92650000D01*
%TO.C,R22*%
X117737081Y-84650000D02*
X117737081Y-83320000D01*
X120337081Y-84650000D02*
X122937081Y-84650000D01*
X122937081Y-84650000D02*
X122937081Y-81990000D01*
X120337081Y-81990000D02*
X122937081Y-81990000D01*
X120337081Y-84650000D02*
X120337081Y-81990000D01*
X119067081Y-84650000D02*
X117737081Y-84650000D01*
%TO.C,R20*%
X118887081Y-73880000D02*
X117557081Y-73880000D01*
X120157081Y-71220000D02*
X122757081Y-71220000D01*
X120157081Y-73880000D02*
X122757081Y-73880000D01*
X120157081Y-73880000D02*
X120157081Y-71220000D01*
X122757081Y-73880000D02*
X122757081Y-71220000D01*
X117557081Y-73880000D02*
X117557081Y-72550000D01*
%TO.C,R35*%
X132577081Y-106025000D02*
X135177081Y-106025000D01*
X129977081Y-106025000D02*
X129977081Y-104695000D01*
X132577081Y-103365000D02*
X135177081Y-103365000D01*
X132577081Y-106025000D02*
X132577081Y-103365000D01*
X131307081Y-106025000D02*
X129977081Y-106025000D01*
X135177081Y-106025000D02*
X135177081Y-103365000D01*
%TO.C,R26*%
X120567081Y-106050000D02*
X123167081Y-106050000D01*
X120567081Y-103390000D02*
X123167081Y-103390000D01*
X117967081Y-106050000D02*
X117967081Y-104720000D01*
X120567081Y-106050000D02*
X120567081Y-103390000D01*
X123167081Y-106050000D02*
X123167081Y-103390000D01*
X119297081Y-106050000D02*
X117967081Y-106050000D01*
%TO.C,R21*%
X120277081Y-79010000D02*
X120277081Y-76350000D01*
X120277081Y-79010000D02*
X122877081Y-79010000D01*
X117677081Y-79010000D02*
X117677081Y-77680000D01*
X120277081Y-76350000D02*
X122877081Y-76350000D01*
X119007081Y-79010000D02*
X117677081Y-79010000D01*
X122877081Y-79010000D02*
X122877081Y-76350000D01*
%TD*%
M02*
