M48
; DRILL file {KiCad (6.0.7)} date Tue Sep 20 14:39:48 2022
; FORMAT={-:-/ absolute / metric / decimal}
; #@! TF.CreationDate,2022-09-20T14:39:48-04:00
; #@! TF.GenerationSoftware,Kicad,Pcbnew,(6.0.7)
; #@! TF.FileFunction,MixedPlating,1,2
FMAT,2
METRIC
; #@! TA.AperFunction,Plated,PTH,ViaDrill
T1C0.400
; #@! TA.AperFunction,Plated,PTH,ComponentDrill
T2C0.800
; #@! TA.AperFunction,Plated,PTH,ComponentDrill
T3C1.000
; #@! TA.AperFunction,Plated,PTH,ComponentDrill
T4C1.020
; #@! TA.AperFunction,Plated,PTH,ComponentDrill
T5C1.100
; #@! TA.AperFunction,NonPlated,NPTH,ComponentDrill
T6C1.500
; #@! TA.AperFunction,NonPlated,NPTH,ComponentDrill
T7C1.800
; #@! TA.AperFunction,NonPlated,NPTH,ComponentDrill
T8C3.200
%
G90
G05
T1
X136.64Y-67.504
X151.626Y-90.364
X151.626Y-103.064
X160.577Y-124.339
X163.976Y-77.76
X180.328Y-75.124
X182.36Y-82.744
X196.584Y-75.378
T2
X162.759Y-126.071
X167.759Y-126.071
X173.681Y-75.271
X175.967Y-82.891
X178.681Y-75.271
X180.967Y-82.891
T3
X106.957Y-72.54
X107.187Y-77.64
X107.617Y-88.65
X107.617Y-93.98
X107.617Y-99.39
X107.657Y-104.66
X107.687Y-83.47
X107.692Y-109.88
X107.727Y-115.13
X109.497Y-72.54
X109.727Y-77.64
X110.157Y-88.65
X110.157Y-93.98
X110.157Y-99.39
X110.197Y-104.66
X110.227Y-83.47
X110.232Y-109.88
X110.267Y-115.13
X110.634Y-121.499
X113.174Y-121.499
X115.714Y-121.499
X118.887Y-72.55
X119.007Y-77.68
X119.067Y-83.32
X119.192Y-88.58
X119.297Y-104.72
X119.297Y-109.99
X119.307Y-99.39
X119.347Y-93.98
X119.347Y-115.08
X121.427Y-72.55
X121.547Y-77.68
X121.607Y-83.32
X121.732Y-88.58
X121.837Y-104.72
X121.837Y-109.99
X121.847Y-99.39
X121.887Y-93.98
X121.887Y-115.08
X125.083Y-127.956
X127.623Y-127.956
X130.727Y-67.545
X130.797Y-72.675
X130.917Y-77.765
X130.987Y-88.785
X131.037Y-83.255
X131.267Y-99.405
X131.297Y-94.095
X131.307Y-104.695
X131.307Y-110.025
X131.317Y-115.255
X131.347Y-120.415
X133.267Y-67.545
X133.337Y-72.675
X133.457Y-77.765
X133.527Y-88.785
X133.577Y-83.255
X133.807Y-99.405
X133.837Y-94.095
X133.847Y-104.695
X133.847Y-110.025
X133.857Y-115.255
X133.887Y-120.415
X139.053Y-128.21
X141.593Y-128.21
X183.957Y-100.71
X183.957Y-103.25
X183.957Y-105.79
X183.957Y-108.33
X183.957Y-110.87
X183.957Y-113.41
X183.957Y-115.95
X183.957Y-118.49
X183.957Y-121.03
X183.957Y-123.57
T4
X149.667Y-72.68
X149.667Y-75.22
X149.667Y-77.76
X149.667Y-80.3
X149.667Y-82.84
X149.667Y-85.38
X149.667Y-87.92
X149.667Y-90.46
X149.667Y-93.0
X149.667Y-95.54
X149.667Y-98.08
X149.667Y-100.62
X149.667Y-103.16
X149.667Y-105.7
X149.667Y-108.24
X149.667Y-110.78
X149.667Y-113.32
X149.667Y-115.86
X149.667Y-118.4
X149.667Y-120.94
X156.017Y-120.71
X158.557Y-120.71
X161.097Y-120.71
X167.447Y-72.68
X167.447Y-75.22
X167.447Y-77.76
X167.447Y-80.3
X167.447Y-82.84
X167.447Y-85.38
X167.447Y-87.92
X167.447Y-90.46
X167.447Y-93.0
X167.447Y-95.54
X167.447Y-98.08
X167.447Y-100.62
X167.447Y-103.16
X167.447Y-105.7
X167.447Y-108.24
X167.447Y-110.78
X167.447Y-113.32
X167.447Y-115.86
X167.447Y-118.4
X167.447Y-120.94
T5
X187.663Y-75.307
X187.663Y-79.807
X194.163Y-75.307
X194.163Y-79.807
T6
X156.132Y-75.84
X160.982Y-75.84
T7
X155.832Y-72.81
X161.282Y-72.81
T8
X97.778Y-66.234
X98.286Y-126.94
X204.458Y-66.488
X204.458Y-126.432
T0
M30
