%TF.GenerationSoftware,KiCad,Pcbnew,(6.0.7)*%
%TF.CreationDate,2022-09-20T14:40:13-04:00*%
%TF.ProjectId,RPi Pico Core,52506920-5069-4636-9f20-436f72652e6b,rev?*%
%TF.SameCoordinates,Original*%
%TF.FileFunction,Soldermask,Bot*%
%TF.FilePolarity,Negative*%
%FSLAX46Y46*%
G04 Gerber Fmt 4.6, Leading zero omitted, Abs format (unit mm)*
G04 Created by KiCad (PCBNEW (6.0.7)) date 2022-09-20 14:40:13*
%MOMM*%
%LPD*%
G01*
G04 APERTURE LIST*
%ADD10C,2.000000*%
%ADD11C,3.200000*%
%ADD12O,1.800000X1.800000*%
%ADD13O,1.500000X1.500000*%
%ADD14O,1.700000X1.700000*%
%ADD15R,1.700000X1.700000*%
%ADD16C,1.600000*%
G04 APERTURE END LIST*
D10*
%TO.C,TP2*%
X141593000Y-128210000D03*
X139053000Y-128210000D03*
%TD*%
%TO.C,TP1*%
X125083000Y-127956000D03*
X127623000Y-127956000D03*
%TD*%
D11*
%TO.C,H4*%
X97778000Y-66234000D03*
%TD*%
%TO.C,H3*%
X204458000Y-66488000D03*
%TD*%
%TO.C,H2*%
X204458000Y-126432000D03*
%TD*%
%TO.C,H1*%
X98286000Y-126940000D03*
%TD*%
D12*
%TO.C,U1*%
X155832081Y-72810000D03*
D13*
X156132081Y-75840000D03*
D12*
X161282081Y-72810000D03*
D13*
X160982081Y-75840000D03*
D14*
X149667081Y-72680000D03*
X149667081Y-75220000D03*
D15*
X149667081Y-77760000D03*
D14*
X149667081Y-80300000D03*
X149667081Y-82840000D03*
X149667081Y-85380000D03*
X149667081Y-87920000D03*
D15*
X149667081Y-90460000D03*
D14*
X149667081Y-93000000D03*
X149667081Y-95540000D03*
X149667081Y-98080000D03*
X149667081Y-100620000D03*
D15*
X149667081Y-103160000D03*
D14*
X149667081Y-105700000D03*
X149667081Y-108240000D03*
X149667081Y-110780000D03*
X149667081Y-113320000D03*
D15*
X149667081Y-115860000D03*
D14*
X149667081Y-118400000D03*
X149667081Y-120940000D03*
X167447081Y-120940000D03*
X167447081Y-118400000D03*
D15*
X167447081Y-115860000D03*
D14*
X167447081Y-113320000D03*
X167447081Y-110780000D03*
X167447081Y-108240000D03*
X167447081Y-105700000D03*
D15*
X167447081Y-103160000D03*
D14*
X167447081Y-100620000D03*
X167447081Y-98080000D03*
X167447081Y-95540000D03*
X167447081Y-93000000D03*
D15*
X167447081Y-90460000D03*
D14*
X167447081Y-87920000D03*
X167447081Y-85380000D03*
X167447081Y-82840000D03*
X167447081Y-80300000D03*
D15*
X167447081Y-77760000D03*
D14*
X167447081Y-75220000D03*
X167447081Y-72680000D03*
X156017081Y-120710000D03*
D15*
X158557081Y-120710000D03*
D14*
X161097081Y-120710000D03*
%TD*%
D15*
%TO.C,R23*%
X119192081Y-88580000D03*
D14*
X121732081Y-88580000D03*
%TD*%
D15*
%TO.C,R37*%
X131317081Y-115255000D03*
D14*
X133857081Y-115255000D03*
%TD*%
D15*
%TO.C,R25*%
X119307081Y-99390000D03*
D14*
X121847081Y-99390000D03*
%TD*%
D15*
%TO.C,R17*%
X110232081Y-109880000D03*
D14*
X107692081Y-109880000D03*
%TD*%
D15*
%TO.C,R12*%
X110227081Y-83470000D03*
D14*
X107687081Y-83470000D03*
%TD*%
D15*
%TO.C,R13*%
X110157081Y-88650000D03*
D14*
X107617081Y-88650000D03*
%TD*%
D15*
%TO.C,R18*%
X110267081Y-115130000D03*
D14*
X107727081Y-115130000D03*
%TD*%
D15*
%TO.C,R34*%
X131267081Y-99405000D03*
D14*
X133807081Y-99405000D03*
%TD*%
D15*
%TO.C,R15*%
X110157081Y-99390000D03*
D14*
X107617081Y-99390000D03*
%TD*%
D15*
%TO.C,R38*%
X131347081Y-120415000D03*
D14*
X133887081Y-120415000D03*
%TD*%
D15*
%TO.C,R33*%
X131297081Y-94095000D03*
D14*
X133837081Y-94095000D03*
%TD*%
D10*
%TO.C,SW1*%
X194163081Y-79807000D03*
X187663081Y-79807000D03*
X194163081Y-75307000D03*
X187663081Y-75307000D03*
%TD*%
D16*
%TO.C,C3*%
X178681081Y-75271000D03*
X173681081Y-75271000D03*
%TD*%
D15*
%TO.C,R29*%
X130797081Y-72675000D03*
D14*
X133337081Y-72675000D03*
%TD*%
D15*
%TO.C,R10*%
X109497081Y-72540000D03*
D14*
X106957081Y-72540000D03*
%TD*%
D16*
%TO.C,C2*%
X180967081Y-82891000D03*
X175967081Y-82891000D03*
%TD*%
D15*
%TO.C,R24*%
X119347081Y-93980000D03*
D14*
X121887081Y-93980000D03*
%TD*%
D15*
%TO.C,R28*%
X119347081Y-115080000D03*
D14*
X121887081Y-115080000D03*
%TD*%
D16*
%TO.C,C1*%
X162759081Y-126071000D03*
X167759081Y-126071000D03*
%TD*%
D15*
%TO.C,J2*%
X115714081Y-121499000D03*
D14*
X113174081Y-121499000D03*
X110634081Y-121499000D03*
%TD*%
D15*
%TO.C,J1*%
X183957081Y-123570000D03*
D14*
X183957081Y-121030000D03*
X183957081Y-118490000D03*
X183957081Y-115950000D03*
X183957081Y-113410000D03*
X183957081Y-110870000D03*
X183957081Y-108330000D03*
X183957081Y-105790000D03*
X183957081Y-103250000D03*
X183957081Y-100710000D03*
%TD*%
D15*
%TO.C,R16*%
X110197081Y-104660000D03*
D14*
X107657081Y-104660000D03*
%TD*%
D15*
%TO.C,R11*%
X109727081Y-77640000D03*
D14*
X107187081Y-77640000D03*
%TD*%
D15*
%TO.C,R36*%
X131307081Y-110025000D03*
D14*
X133847081Y-110025000D03*
%TD*%
D15*
%TO.C,R31*%
X131037081Y-83255000D03*
D14*
X133577081Y-83255000D03*
%TD*%
D15*
%TO.C,R27*%
X119297081Y-109990000D03*
D14*
X121837081Y-109990000D03*
%TD*%
D15*
%TO.C,R32*%
X130987081Y-88785000D03*
D14*
X133527081Y-88785000D03*
%TD*%
D15*
%TO.C,R30*%
X130917081Y-77765000D03*
D14*
X133457081Y-77765000D03*
%TD*%
D15*
%TO.C,R19*%
X130727081Y-67545000D03*
D14*
X133267081Y-67545000D03*
%TD*%
D15*
%TO.C,R14*%
X110157081Y-93980000D03*
D14*
X107617081Y-93980000D03*
%TD*%
D15*
%TO.C,R22*%
X119067081Y-83320000D03*
D14*
X121607081Y-83320000D03*
%TD*%
D15*
%TO.C,R20*%
X118887081Y-72550000D03*
D14*
X121427081Y-72550000D03*
%TD*%
D15*
%TO.C,R35*%
X131307081Y-104695000D03*
D14*
X133847081Y-104695000D03*
%TD*%
D15*
%TO.C,R26*%
X119297081Y-104720000D03*
D14*
X121837081Y-104720000D03*
%TD*%
D15*
%TO.C,R21*%
X119007081Y-77680000D03*
D14*
X121547081Y-77680000D03*
%TD*%
M02*
